<?xml version="1.0" encoding="UTF-8" standalone="no"?>
<svg
   xmlns:dc="http://purl.org/dc/elements/1.1/"
   xmlns:cc="http://creativecommons.org/ns#"
   xmlns:rdf="http://www.w3.org/1999/02/22-rdf-syntax-ns#"
   xmlns:svg="http://www.w3.org/2000/svg"
   xmlns="http://www.w3.org/2000/svg"
   xmlns:sodipodi="http://sodipodi.sourceforge.net/DTD/sodipodi-0.dtd"
   xmlns:inkscape="http://www.inkscape.org/namespaces/inkscape"
   version="1.1"
   id="Layer_1"
   x="0px"
   y="0px"
   width="64"
   height="128"
   viewBox="0 0 64 128"
   enable-background="new 0 0 256 256"
   xml:space="preserve"
   sodipodi:docname="babuska.svg"
   inkscape:version="1.0.1 (3bc2e813f5, 2020-09-07)"><metadata
   id="metadata215"><rdf:RDF><cc:Work
       rdf:about=""><dc:format>image/svg+xml</dc:format><dc:type
         rdf:resource="http://purl.org/dc/dcmitype/StillImage" /><dc:title></dc:title></cc:Work></rdf:RDF></metadata><defs
   id="defs213" /><sodipodi:namedview
   pagecolor="#ffffff"
   bordercolor="#666666"
   borderopacity="1"
   objecttolerance="10"
   gridtolerance="10"
   guidetolerance="10"
   inkscape:pageopacity="0"
   inkscape:pageshadow="2"
   inkscape:window-width="1911"
   inkscape:window-height="1027"
   id="namedview211"
   showgrid="false"
   inkscape:zoom="5.2149125"
   inkscape:cx="-32.080036"
   inkscape:cy="61.81481"
   inkscape:window-x="0"
   inkscape:window-y="38"
   inkscape:window-maximized="0"
   inkscape:current-layer="Layer_1"
   inkscape:pagecheckerboard="true"
   fit-margin-top="0"
   fit-margin-left="0"
   fit-margin-right="0"
   fit-margin-bottom="0"
   inkscape:document-rotation="0"><inkscape:grid
     type="xygrid"
     id="grid4725"
     originx="-88"
     originy="-120" /></sodipodi:namedview>
<rect
   x="-48"
   y="8"
   width="8"
   height="8"
   id="rect2"
   transform="scale(-1,1)"
   style="fill:#ffeb1c;fill-opacity:1" />
<rect
   x="-48"
   y="16"
   width="8"
   height="8"
   id="rect4"
   transform="scale(-1,1)"
   style="fill:#00ff00;fill-opacity:1" />
<rect
   x="-48"
   y="24"
   width="8"
   height="8"
   id="rect6"
   transform="scale(-1,1)"
   style="fill:#000000;fill-opacity:1" />
<rect
   x="-40"
   y="24"
   width="8"
   height="8"
   id="rect8"
   transform="scale(-1,1)"
   style="fill:#00ff00;fill-opacity:1" />
<rect
   x="-32"
   y="24"
   width="8"
   height="8"
   id="rect10"
   transform="scale(-1,1)"
   style="fill:#ffeb1c;fill-opacity:1" />
<rect
   x="-32"
   y="16"
   width="8"
   height="8"
   id="rect12"
   transform="scale(-1,1)"
   style="fill:#ff2a7f;fill-opacity:1" />
<rect
   x="-24"
   y="16"
   width="8"
   height="8"
   id="rect14"
   transform="scale(-1,1)"
   style="fill:#ff0000;fill-opacity:1" />
<rect
   x="-16"
   y="16"
   width="8"
   height="8"
   id="rect16"
   transform="scale(-1,1)"
   style="fill:#ffeb1c;fill-opacity:1" />
<rect
   x="-16"
   y="24"
   width="8"
   height="8"
   id="rect18"
   transform="scale(-1,1)"
   style="fill:#ffb380" />
<rect
   x="-24"
   y="24"
   width="8"
   height="8"
   id="rect20"
   transform="scale(-1,1)"
   style="fill:#ffb380" />
<rect
   x="-8"
   y="24"
   width="8"
   height="8"
   id="rect22"
   transform="scale(-1,1)"
   style="fill:#ffb380" />
<rect
   x="-8"
   y="32"
   width="8"
   height="8"
   id="rect24"
   transform="scale(-1,1)"
   style="fill:#ffb380" />

<rect
   x="-8"
   y="48"
   width="8"
   height="8"
   id="rect28"
   transform="scale(-1,1)"
   style="fill:#ffb380" />
<rect
   x="-16"
   y="48"
   width="8"
   height="8"
   id="rect30"
   transform="scale(-1,1)"
   style="fill:#ffb380" />
<rect
   x="-16"
   y="56"
   width="8"
   height="8"
   id="rect32"
   transform="scale(-1,1)"
   style="fill:#ffb380" />
<rect
   x="-24"
   y="48"
   width="8"
   height="8"
   id="rect34"
   transform="scale(-1,1)"
   style="fill:#ffb380" />
<rect
   x="-24"
   y="56"
   width="8"
   height="8"
   id="rect36"
   transform="scale(-1,1)"
   style="fill:#ffb380" />

<rect
   x="-32"
   y="40"
   width="8"
   height="8"
   id="rect40"
   transform="scale(-1,1)"
   style="fill:#ffb380" />
<rect
   x="-40"
   y="40"
   width="8"
   height="8"
   id="rect42"
   transform="scale(-1,1)"
   style="fill:#ffb380" />
<rect
   x="-48"
   y="40"
   width="8"
   height="8"
   id="rect44"
   transform="scale(-1,1)"
   style="fill:#ffeb1c;fill-opacity:1" />
<rect
   x="-40"
   y="48"
   width="8"
   height="8"
   id="rect46"
   transform="scale(-1,1)"
   style="fill:#ffb380" />
<rect
   x="-40"
   y="56"
   width="8"
   height="8"
   id="rect48"
   transform="scale(-1,1)"
   style="fill:#ffb380" />
<rect
   x="-48"
   y="48"
   width="8"
   height="8"
   id="rect50"
   transform="scale(-1,1)"
   style="fill:#ffb380" />


<rect
   x="-40"
   y="72"
   width="8"
   height="8"
   id="rect56"
   transform="scale(-1,1)"
   style="fill:#28220b" />

<rect
   x="-56"
   y="80"
   width="8"
   height="8"
   id="rect60"
   transform="scale(-1,1)"
   style="fill:#7c1b3a;fill-opacity:1" />



<rect
   x="-8"
   y="80"
   width="8"
   height="8"
   id="rect68"
   transform="scale(-1,1)"
   style="fill:#28220b" />

<rect
   x="-16"
   y="80"
   width="8"
   height="8"
   id="rect72"
   transform="scale(-1,1)"
   style="fill:#28170b;fill-opacity:1" />
<rect
   x="-32"
   y="80"
   width="8"
   height="8"
   id="rect74"
   transform="scale(-1,1)"
   style="fill:#7c1b3a;fill-opacity:1" />
<rect
   x="-40"
   y="80"
   width="8"
   height="8"
   id="rect76"
   transform="scale(-1,1)"
   style="fill:#7c1b3a;fill-opacity:1" />
<rect
   x="-48"
   y="80"
   width="8"
   height="8"
   id="rect78"
   transform="scale(-1,1)"
   style="fill:#7c1b3a;fill-opacity:1" />
<rect
   x="-56"
   y="88"
   width="8"
   height="8"
   id="rect80"
   transform="scale(-1,1)"
   style="fill:#ffb380" />
<rect
   x="-8"
   y="88"
   width="8"
   height="8"
   id="rect82"
   transform="scale(-1,1)"
   style="fill:#7c1b3a;fill-opacity:1" />
<rect
   x="-16"
   y="88"
   width="8"
   height="8"
   id="rect84"
   transform="scale(-1,1)"
   style="fill:#28170b;fill-opacity:1" />
<rect
   x="-24"
   y="88"
   width="8"
   height="8"
   id="rect86"
   transform="scale(-1,1)"
   style="fill:#7c1b3a;fill-opacity:1" />
<rect
   x="-32"
   y="88"
   width="8"
   height="8"
   id="rect88"
   transform="scale(-1,1)"
   style="fill:#7c1b3a;fill-opacity:1" />
<rect
   x="-40"
   y="88"
   width="8"
   height="8"
   id="rect90"
   transform="scale(-1,1)"
   style="fill:#7c1b3a;fill-opacity:1" />
<rect
   x="-48"
   y="88"
   width="8"
   height="8"
   id="rect92"
   transform="scale(-1,1)"
   style="fill:#ffb380" />
<rect
   x="-56"
   y="96"
   width="8"
   height="8"
   id="rect94"
   transform="scale(-1,1)"
   style="fill:#ffb380" />
<rect
   x="-8"
   y="96"
   width="8"
   height="8"
   id="rect96"
   transform="scale(-1,1)"
   style="fill:#7c1b3a;fill-opacity:1" />
<rect
   x="-16"
   y="96"
   width="8"
   height="8"
   id="rect98"
   transform="scale(-1,1)"
   style="fill:#28170b;fill-opacity:1" />
<rect
   x="-24"
   y="96"
   width="8"
   height="8"
   id="rect100"
   transform="scale(-1,1)"
   style="fill:#7c1b3a;fill-opacity:1" />
<rect
   x="-32"
   y="96"
   width="8"
   height="8"
   id="rect102"
   transform="scale(-1,1)"
   style="fill:#7c1b3a;fill-opacity:1" />
<rect
   x="-8"
   y="104"
   width="8"
   height="8"
   id="rect104"
   transform="scale(-1,1)"
   style="fill:#7c1b3a;fill-opacity:1" />
<rect
   x="-16"
   y="104"
   width="8"
   height="8"
   id="rect106"
   transform="scale(-1,1)"
   style="fill:#28170b;fill-opacity:1" />
<rect
   x="-24"
   y="104"
   width="8"
   height="8"
   id="rect108"
   transform="scale(-1,1)"
   style="fill:#7c1b3a;fill-opacity:1" />
<rect
   x="-32"
   y="104"
   width="8"
   height="8"
   id="rect110"
   transform="scale(-1,1)"
   style="fill:#7c1b3a;fill-opacity:1" />
<rect
   x="-40"
   y="96"
   width="8"
   height="8"
   id="rect112"
   transform="scale(-1,1)"
   style="fill:#7c1b3a;fill-opacity:1" />
<rect
   x="-48"
   y="96"
   width="8"
   height="8"
   id="rect114"
   transform="scale(-1,1)"
   style="fill:#ffb380" />
<rect
   x="-56"
   y="104"
   width="8"
   height="8"
   id="rect116"
   transform="scale(-1,1)"
   style="fill:#ffb380" />
<rect
   x="-40"
   y="104"
   width="8"
   height="8"
   id="rect118"
   transform="scale(-1,1)"
   style="fill:#7c1b3a;fill-opacity:1" />
<rect
   x="-48"
   y="104"
   width="8"
   height="8"
   id="rect120"
   transform="scale(-1,1)"
   style="fill:#ffb380" />
<rect
   x="-24"
   y="112"
   width="8"
   height="8"
   id="rect122"
   transform="scale(-1,1)"
   style="fill:#7c1b3a;fill-opacity:1" />
<rect
   x="-16"
   y="112"
   width="8"
   height="8"
   id="rect124"
   transform="scale(-1,1)"
   style="fill:#7c1b3a;fill-opacity:1" />

<rect
   x="-32"
   y="112"
   width="8"
   height="8"
   id="rect128"
   transform="scale(-1,1)"
   style="fill:#7c1b3a;fill-opacity:1" />
<rect
   x="-40"
   y="112"
   width="8"
   height="8"
   id="rect130"
   transform="scale(-1,1)"
   style="fill:#7c1b3a;fill-opacity:1" />
<rect
   x="-48"
   y="112"
   width="8"
   height="8"
   id="rect132"
   transform="scale(-1,1)"
   style="fill:#7c1b3a;fill-opacity:1" />




<rect
   x="-16"
   y="64"
   width="8"
   height="8"
   id="rect142"
   transform="scale(-1,1)"
   style="fill:#ffb380" />
<rect
   x="-56"
   y="48"
   width="8"
   height="8"
   id="rect144"
   transform="scale(-1,1)"
   style="fill:#ffeb1c;fill-opacity:1" />
<rect
   x="-64"
   y="48"
   width="8"
   height="8"
   id="rect146"
   transform="scale(-1,1)"
   style="fill:#ff2a7f;fill-opacity:1" />
<rect
   x="-56"
   y="40"
   width="8"
   height="8"
   id="rect148"
   transform="scale(-1,1)"
   style="fill:#00ff00;fill-opacity:1" />
<rect
   x="-64"
   y="40"
   width="8"
   height="8"
   id="rect150"
   transform="scale(-1,1)"
   style="fill:#00ff00;fill-opacity:1" />
<rect
   x="-56"
   y="32"
   width="8"
   height="8"
   id="rect152"
   transform="scale(-1,1)"
   style="fill:#000000;fill-opacity:1" />
<rect
   x="-64"
   y="32"
   width="8"
   height="8"
   id="rect154"
   transform="scale(-1,1)"
   style="fill:#ffeb1c;fill-opacity:1" />

<rect
   x="-56"
   y="24"
   width="8"
   height="8"
   id="rect158"
   transform="scale(-1,1)"
   style="fill:#ffeb1c;fill-opacity:1" />
<rect
   x="-56"
   y="16"
   width="8"
   height="8"
   id="rect160"
   transform="scale(-1,1)"
   style="fill:#ffeb1c;fill-opacity:1" />
<rect
   x="-32"
   y="48"
   width="8"
   height="8"
   id="rect162"
   transform="scale(-1,1)"
   style="fill:#ffb380" />
<rect
   x="-32"
   y="56"
   width="8"
   height="8"
   id="rect164"
   transform="scale(-1,1)"
   style="fill:#ffb380" />
<rect
   x="-16"
   y="32"
   width="8"
   height="8"
   id="rect166"
   transform="scale(-1,1)"
   style="fill:#501616" />

<rect
   x="-24"
   y="32"
   width="8"
   height="8"
   id="rect170"
   transform="scale(-1,1)"
   style="fill:#ffb380" />
<rect
   x="-32"
   y="32"
   width="8"
   height="8"
   id="rect172"
   transform="scale(-1,1)"
   style="fill:#ffb380" />
<rect
   x="-40"
   y="32"
   width="8"
   height="8"
   id="rect174"
   transform="scale(-1,1)"
   style="fill:#ffeb1c;fill-opacity:1" />
<rect
   x="-48"
   y="32"
   width="8"
   height="8"
   id="rect176"
   transform="scale(-1,1)"
   style="fill:#0000ff;fill-opacity:1" />
<rect
   x="-40"
   y="8"
   width="8"
   height="8"
   id="rect178"
   transform="scale(-1,1)"
   style="fill:#ff2a7f;fill-opacity:1" />
<rect
   x="-40"
   y="16"
   width="8"
   height="8"
   id="rect180"
   transform="scale(-1,1)"
   style="fill:#2aff2a;fill-opacity:1" />
<rect
   x="-32"
   y="8"
   width="8"
   height="8"
   id="rect182"
   transform="scale(-1,1)"
   style="fill:#ff0000;fill-opacity:1" />
<rect
   x="-24"
   y="8"
   width="8"
   height="8"
   id="rect184"
   transform="scale(-1,1)"
   style="fill:#ff2a7f;fill-opacity:1" />
<rect
   x="-16"
   y="8"
   width="8"
   height="8"
   id="rect186"
   transform="scale(-1,1)"
   style="fill:#ffeb1c;fill-opacity:1" />
<rect
   x="-16"
   y="0"
   width="8"
   height="8"
   id="rect188"
   transform="scale(-1,1)"
   style="fill:#ffeb1c;fill-opacity:1" />
<rect
   x="-24"
   y="0"
   width="8"
   height="8"
   id="rect190"
   transform="scale(-1,1)"
   style="fill:#ffeb1c;fill-opacity:1" />
<rect
   x="-32"
   y="0"
   width="8"
   height="8"
   id="rect192"
   transform="scale(-1,1)"
   style="fill:#ffeb1c;fill-opacity:1" />
<rect
   x="-40"
   y="0"
   width="8"
   height="8"
   id="rect194"
   transform="scale(-1,1)"
   style="fill:#ffeb1c;fill-opacity:1" />
<rect
   x="-8"
   y="8"
   width="8"
   height="8"
   id="rect196"
   transform="scale(-1,1)"
   style="fill:#ffeb1c;fill-opacity:1" />
<rect
   x="-56"
   y="56"
   width="8"
   height="8"
   id="rect198"
   transform="scale(-1,1)"
   style="fill:#ff2a7f;fill-opacity:1" />



<rect
   x="-8"
   y="56"
   width="8"
   height="8"
   id="rect206"
   transform="scale(-1,1)"
   style="fill:#ffb380" />
<rect
   x="-8"
   y="16"
   width="8"
   height="8"
   id="rect208"
   transform="scale(-1,1)"
   style="fill:#ffeb1c;fill-opacity:1" />
<rect
   x="-64"
   y="56"
   width="8"
   height="8"
   id="rect144-2"
   transform="scale(-1,1)"
   style="fill:#ffeb1c;fill-opacity:1" /><rect
   x="-48"
   y="56"
   width="8"
   height="8"
   id="rect144-8"
   transform="scale(-1,1)"
   style="fill:#ffeb1c;fill-opacity:1" /><rect
   x="-40"
   y="64"
   width="8"
   height="8"
   id="rect144-7"
   transform="scale(-1,1)"
   style="fill:#ffeb1c;fill-opacity:1" /><rect
   x="-32"
   y="72"
   width="8"
   height="8"
   id="rect144-4"
   transform="scale(-1,1)"
   style="fill:#ffeb1c;fill-opacity:1" /><rect
   x="-24"
   y="72"
   width="8"
   height="8"
   id="rect144-24"
   transform="scale(-1,1)"
   style="fill:#ffeb1c;fill-opacity:1" /><rect
   x="-24"
   y="64"
   width="8"
   height="8"
   id="rect142-3"
   transform="scale(-1,1)"
   style="fill:#ffb380" /><rect
   x="-32"
   y="64"
   width="8"
   height="8"
   id="rect142-4"
   transform="scale(-1,1)"
   style="fill:#ffb380" /><rect
   x="-48"
   y="64"
   width="8"
   height="8"
   id="rect144-8-1"
   transform="scale(-1,1)"
   style="fill:#ffeb1c;fill-opacity:1" /><rect
   x="-40"
   y="72"
   width="8"
   height="8"
   id="rect144-8-8"
   transform="scale(-1,1)"
   style="fill:#7c1b3a;fill-opacity:1" /><rect
   x="-56"
   y="64"
   width="8"
   height="8"
   id="rect144-8-6"
   transform="scale(-1,1)"
   style="fill:#ffeb1c;fill-opacity:1" /><rect
   x="-48"
   y="72"
   width="8"
   height="8"
   id="rect144-8-92"
   transform="scale(-1,1)"
   style="fill:#7c1b3a;fill-opacity:1" /><rect
   x="-16"
   y="72"
   width="8"
   height="8"
   id="rect144-8-15"
   transform="scale(-1,1)"
   style="fill:#ffeb1c;fill-opacity:1" /><rect
   x="-8"
   y="80"
   width="8"
   height="8"
   id="rect144-8-10"
   transform="scale(-1,1)"
   style="fill:#ffeb1c;fill-opacity:1" /><rect
   x="-16"
   y="40"
   width="8"
   height="8"
   id="rect166-9"
   transform="scale(-1,1)"
   style="fill:#501616" /><rect
   x="-24"
   y="40"
   width="8"
   height="8"
   id="rect40-8"
   transform="scale(-1,1)"
   style="fill:#ffb380" /><rect
   x="-8"
   y="40"
   width="8"
   height="8"
   id="rect40-1"
   transform="scale(-1,1)"
   style="fill:#ffb380" /><rect
   x="-24"
   y="80"
   width="8"
   height="8"
   id="rect86-5"
   transform="scale(-1,1)"
   style="fill:#7c1b3a;fill-opacity:1" /><rect
   x="-8"
   y="112"
   width="8"
   height="8"
   id="rect124-5"
   transform="scale(-1,1)"
   style="fill:#7c1b3a;fill-opacity:1" /><rect
   x="-56"
   y="112"
   width="8"
   height="8"
   id="rect124-9"
   transform="scale(-1,1)"
   style="fill:#7c1b3a;fill-opacity:1" /><rect
   x="-16"
   y="120"
   width="8"
   height="8"
   id="rect106-4"
   transform="scale(-1,1)"
   style="fill:#28170b;fill-opacity:1" /><rect
   x="-48"
   y="120"
   width="8"
   height="8"
   id="rect106-5"
   transform="scale(-1,1)"
   style="fill:#28170b;fill-opacity:1" /><rect
   x="-40"
   y="120"
   width="8"
   height="8"
   id="rect106-9"
   transform="scale(-1,1)"
   style="fill:#28170b;fill-opacity:1" /><rect
   x="-24"
   y="120"
   width="8"
   height="8"
   id="rect106-0"
   transform="scale(-1,1)"
   style="fill:#28170b;fill-opacity:1" /></svg>
