<?xml version="1.0" encoding="UTF-8" standalone="no"?>
<svg
   xmlns:dc="http://purl.org/dc/elements/1.1/"
   xmlns:cc="http://creativecommons.org/ns#"
   xmlns:rdf="http://www.w3.org/1999/02/22-rdf-syntax-ns#"
   xmlns:svg="http://www.w3.org/2000/svg"
   xmlns="http://www.w3.org/2000/svg"
   xmlns:sodipodi="http://sodipodi.sourceforge.net/DTD/sodipodi-0.dtd"
   xmlns:inkscape="http://www.inkscape.org/namespaces/inkscape"
   version="1.1"
   id="Layer_1"
   x="0px"
   y="0px"
   width="120"
   height="120"
   viewBox="0 0 120 120"
   enable-background="new 0 0 256 256"
   xml:space="preserve"
   sodipodi:docname="Hjerte.svg"
   inkscape:version="1.0.1 (3bc2e813f5, 2020-09-07)"><metadata
   id="metadata215"><rdf:RDF><cc:Work
       rdf:about=""><dc:format>image/svg+xml</dc:format><dc:type
         rdf:resource="http://purl.org/dc/dcmitype/StillImage" /><dc:title></dc:title></cc:Work></rdf:RDF></metadata><defs
   id="defs213" /><sodipodi:namedview
   pagecolor="#ffffff"
   bordercolor="#666666"
   borderopacity="1"
   objecttolerance="10"
   gridtolerance="10"
   guidetolerance="10"
   inkscape:pageopacity="0"
   inkscape:pageshadow="2"
   inkscape:window-width="2560"
   inkscape:window-height="1373"
   id="namedview211"
   showgrid="false"
   inkscape:zoom="3.6875001"
   inkscape:cx="22.926682"
   inkscape:cy="45.690954"
   inkscape:window-x="-9"
   inkscape:window-y="29"
   inkscape:window-maximized="1"
   inkscape:current-layer="Layer_1"
   inkscape:pagecheckerboard="true"
   fit-margin-top="0"
   fit-margin-left="0"
   fit-margin-right="0"
   fit-margin-bottom="0"
   inkscape:document-rotation="0"><inkscape:grid
     type="xygrid"
     id="grid4725"
     originx="-0.016582489"
     originy="-12.263779" /></sodipodi:namedview>








































































































<rect
   x="-40"
   y="40.000004"
   width="8"
   height="8"
   id="rect188-82-4-3-7-6"
   transform="scale(-1,1)"
   style="fill:#ff008a;fill-opacity:1" /><rect
   x="-48"
   y="40.000004"
   width="8"
   height="8"
   id="rect188-82-4-3-7-2-4-6-5-15"
   transform="scale(-1,1)"
   style="fill:#b94789;fill-opacity:1" /><rect
   x="-40"
   y="32.000004"
   width="8"
   height="8"
   id="rect188-82-4-3-7-2-4-6-5-8"
   transform="scale(-1,1)"
   style="fill:#b94789;fill-opacity:1" /><rect
   x="-32"
   y="32.000004"
   width="8"
   height="8"
   id="rect188-82-4-3-7-2-4-6-5-2"
   transform="scale(-1,1)"
   style="fill:#b94789;fill-opacity:1" /><rect
   x="-24"
   y="32.000004"
   width="8"
   height="8"
   id="rect188-82-4-3-7-2-4-6-5-95"
   transform="scale(-1,1)"
   style="fill:#b94789;fill-opacity:1" /><rect
   x="-16"
   y="40.000004"
   width="8"
   height="8"
   id="rect188-82-4-3-7-2-4-6-5-25"
   transform="scale(-1,1)"
   style="fill:#b94789;fill-opacity:1" /><rect
   x="-56"
   y="48.000004"
   width="8"
   height="8"
   id="rect188-82-4-3-7-2-4-6-5-15-9"
   transform="scale(-1,1)"
   style="fill:#b94789;fill-opacity:1" /><rect
   x="-64"
   y="56.000008"
   width="8"
   height="8"
   id="rect188-82-4-3-7-2-4-6-5-15-2"
   transform="scale(-1,1)"
   style="fill:#b94789;fill-opacity:1" /><rect
   x="-72"
   y="48.000004"
   width="8"
   height="8"
   id="rect188-82-4-3-7-2-4-6-5-15-1"
   transform="scale(-1,1)"
   style="fill:#b94789;fill-opacity:1" /><rect
   x="-80"
   y="40.000004"
   width="8"
   height="8"
   id="rect188-82-4-3-7-2-4-6-5-15-8"
   transform="scale(-1,1)"
   style="fill:#b94789;fill-opacity:1" /><rect
   x="-88"
   y="32.000004"
   width="8"
   height="8"
   id="rect188-82-4-3-7-2-4-6-5-15-0"
   transform="scale(-1,1)"
   style="fill:#b94789;fill-opacity:1" /><rect
   x="-96"
   y="32.000004"
   width="8"
   height="8"
   id="rect188-82-4-3-7-2-4-6-5-15-15"
   transform="scale(-1,1)"
   style="fill:#b94789;fill-opacity:1" /><rect
   x="-104"
   y="32.000004"
   width="8"
   height="8"
   id="rect188-82-4-3-7-2-4-6-5-15-6"
   transform="scale(-1,1)"
   style="fill:#b94789;fill-opacity:1" /><rect
   x="-112"
   y="40.000004"
   width="8"
   height="8"
   id="rect188-82-4-3-7-2-4-6-5-15-7"
   transform="scale(-1,1)"
   style="fill:#b94789;fill-opacity:1" /><rect
   x="-120"
   y="48.000004"
   width="8"
   height="8"
   id="rect188-82-4-3-7-2-4-6-5-15-4"
   transform="scale(-1,1)"
   style="fill:#b94789;fill-opacity:1" /><rect
   x="-120"
   y="56.000008"
   width="8"
   height="8"
   id="rect188-82-4-3-7-2-4-6-5-15-64"
   transform="scale(-1,1)"
   style="fill:#b94789;fill-opacity:1" /><rect
   x="-112"
   y="64.000008"
   width="8"
   height="8"
   id="rect188-82-4-3-7-2-4-6-5-15-63"
   transform="scale(-1,1)"
   style="fill:#b94789;fill-opacity:1" /><rect
   x="-104"
   y="72.000008"
   width="8"
   height="8"
   id="rect188-82-4-3-7-2-4-6-5-15-87"
   transform="scale(-1,1)"
   style="fill:#b94789;fill-opacity:1" /><rect
   x="-96"
   y="80"
   width="8"
   height="8"
   id="rect188-82-4-3-7-2-4-6-5-15-5"
   transform="scale(-1,1)"
   style="fill:#b94789;fill-opacity:1" /><rect
   x="-88"
   y="88"
   width="8"
   height="8"
   id="rect188-82-4-3-7-2-4-6-5-15-00"
   transform="scale(-1,1)"
   style="fill:#b94789;fill-opacity:1" /><rect
   x="-80"
   y="96"
   width="8"
   height="8"
   id="rect188-82-4-3-7-2-4-6-5-15-65"
   transform="scale(-1,1)"
   style="fill:#b94789;fill-opacity:1" /><rect
   x="-72"
   y="104"
   width="8"
   height="8"
   id="rect188-82-4-3-7-2-4-6-5-15-46"
   transform="scale(-1,1)"
   style="fill:#b94789;fill-opacity:1" /><rect
   x="-8"
   y="48.000004"
   width="8"
   height="8"
   id="rect188-82-4-3-7-2-4-6-5-15-72"
   transform="scale(-1,1)"
   style="fill:#b94789;fill-opacity:1" /><rect
   x="-8"
   y="56.000008"
   width="8"
   height="8"
   id="rect188-82-4-3-7-2-4-6-5-15-28"
   transform="scale(-1,1)"
   style="fill:#b94789;fill-opacity:1" /><rect
   x="-16"
   y="64.000008"
   width="8"
   height="8"
   id="rect188-82-4-3-7-2-4-6-5-15-90"
   transform="scale(-1,1)"
   style="fill:#b94789;fill-opacity:1" /><rect
   x="-24"
   y="72.000008"
   width="8"
   height="8"
   id="rect188-82-4-3-7-2-4-6-5-15-81"
   transform="scale(-1,1)"
   style="fill:#b94789;fill-opacity:1" /><rect
   x="-32"
   y="80"
   width="8"
   height="8"
   id="rect188-82-4-3-7-2-4-6-5-15-04"
   transform="scale(-1,1)"
   style="fill:#b94789;fill-opacity:1" /><rect
   x="-40"
   y="88"
   width="8"
   height="8"
   id="rect188-82-4-3-7-2-4-6-5-15-59"
   transform="scale(-1,1)"
   style="fill:#b94789;fill-opacity:1" /><rect
   x="-48"
   y="96"
   width="8"
   height="8"
   id="rect188-82-4-3-7-2-4-6-5-15-62"
   transform="scale(-1,1)"
   style="fill:#b94789;fill-opacity:1" /><rect
   x="-56"
   y="104"
   width="8"
   height="8"
   id="rect188-82-4-3-7-2-4-6-5-15-57"
   transform="scale(-1,1)"
   style="fill:#b94789;fill-opacity:1" /><rect
   x="-64"
   y="112"
   width="8"
   height="8"
   id="rect188-82-4-3-7-2-4-6-5-15-22"
   transform="scale(-1,1)"
   style="fill:#b94789;fill-opacity:1" /><rect
   x="-32"
   y="40.000004"
   width="8"
   height="8"
   id="rect188-82-4-3-7-6-4"
   transform="scale(-1,1)"
   style="fill:#ff008a;fill-opacity:1" /><rect
   x="-24"
   y="40.000004"
   width="8"
   height="8"
   id="rect188-82-4-3-7-6-6"
   transform="scale(-1,1)"
   style="fill:#ff008a;fill-opacity:1" /><rect
   x="-16"
   y="48.000004"
   width="8"
   height="8"
   id="rect188-82-4-3-7-6-0"
   transform="scale(-1,1)"
   style="fill:#ff008a;fill-opacity:1" /><rect
   x="-16"
   y="56.000008"
   width="8"
   height="8"
   id="rect188-82-4-3-7-6-68"
   transform="scale(-1,1)"
   style="fill:#ff008a;fill-opacity:1" /><rect
   x="-24"
   y="64.000008"
   width="8"
   height="8"
   id="rect188-82-4-3-7-6-2"
   transform="scale(-1,1)"
   style="fill:#ff008a;fill-opacity:1" /><rect
   x="-32"
   y="72.000008"
   width="8"
   height="8"
   id="rect188-82-4-3-7-6-1"
   transform="scale(-1,1)"
   style="fill:#ff008a;fill-opacity:1" /><rect
   x="-40"
   y="80"
   width="8"
   height="8"
   id="rect188-82-4-3-7-6-41"
   transform="scale(-1,1)"
   style="fill:#ff008a;fill-opacity:1" /><rect
   x="-48"
   y="88"
   width="8"
   height="8"
   id="rect188-82-4-3-7-6-65"
   transform="scale(-1,1)"
   style="fill:#ff008a;fill-opacity:1" /><rect
   x="-48"
   y="48.000004"
   width="8"
   height="8"
   id="rect188-82-4-3-7-6-02"
   transform="scale(-1,1)"
   style="fill:#ff008a;fill-opacity:1" /><rect
   x="-56"
   y="56.000008"
   width="8"
   height="8"
   id="rect188-82-4-3-7-6-9"
   transform="scale(-1,1)"
   style="fill:#ff008a;fill-opacity:1" /><rect
   x="-64"
   y="64.000008"
   width="8"
   height="8"
   id="rect188-82-4-3-7-6-5"
   transform="scale(-1,1)"
   style="fill:#ff008a;fill-opacity:1" /><rect
   x="-72"
   y="56.000008"
   width="8"
   height="8"
   id="rect188-82-4-3-7-6-7"
   transform="scale(-1,1)"
   style="fill:#ff008a;fill-opacity:1" /><rect
   x="-80"
   y="48.000004"
   width="8"
   height="8"
   id="rect188-82-4-3-7-6-8"
   transform="scale(-1,1)"
   style="fill:#ff008a;fill-opacity:1" /><rect
   x="-88"
   y="40.000004"
   width="8"
   height="8"
   id="rect188-82-4-3-7-6-01"
   transform="scale(-1,1)"
   style="fill:#ff008a;fill-opacity:1" /><rect
   x="-96"
   y="40.000004"
   width="8"
   height="8"
   id="rect188-82-4-3-7-6-93"
   transform="scale(-1,1)"
   style="fill:#ff008a;fill-opacity:1" /><rect
   x="-104"
   y="40.000004"
   width="8"
   height="8"
   id="rect188-82-4-3-7-6-17"
   transform="scale(-1,1)"
   style="fill:#ff008a;fill-opacity:1" /><rect
   x="-112"
   y="48.000004"
   width="8"
   height="8"
   id="rect188-82-4-3-7-6-96"
   transform="scale(-1,1)"
   style="fill:#ff008a;fill-opacity:1" /><rect
   x="-112"
   y="56.000008"
   width="8"
   height="8"
   id="rect188-82-4-3-7-6-61"
   transform="scale(-1,1)"
   style="fill:#ff008a;fill-opacity:1" /><rect
   x="-104"
   y="64.000008"
   width="8"
   height="8"
   id="rect188-82-4-3-7-6-020"
   transform="scale(-1,1)"
   style="fill:#ff008a;fill-opacity:1" /><rect
   x="-96"
   y="72.000008"
   width="8"
   height="8"
   id="rect188-82-4-3-7-6-26"
   transform="scale(-1,1)"
   style="fill:#ff008a;fill-opacity:1" /><rect
   x="-88"
   y="80"
   width="8"
   height="8"
   id="rect188-82-4-3-7-6-60"
   transform="scale(-1,1)"
   style="fill:#ff008a;fill-opacity:1" /><rect
   x="-80"
   y="88"
   width="8"
   height="8"
   id="rect188-82-4-3-7-6-76"
   transform="scale(-1,1)"
   style="fill:#ff008a;fill-opacity:1" /><rect
   x="-72"
   y="96"
   width="8"
   height="8"
   id="rect188-82-4-3-7-6-67"
   transform="scale(-1,1)"
   style="fill:#ff008a;fill-opacity:1" /><rect
   x="-56"
   y="96"
   width="8"
   height="8"
   id="rect188-82-4-3-7-6-29"
   transform="scale(-1,1)"
   style="fill:#ff008a;fill-opacity:1" /><rect
   x="-64"
   y="104"
   width="8"
   height="8"
   id="rect188-82-4-3-7-6-968"
   transform="scale(-1,1)"
   style="fill:#ff008a;fill-opacity:1" /><rect
   x="-72"
   y="64.000008"
   width="8"
   height="8"
   id="rect188-82-4-3-7-6-23"
   transform="scale(-1,1)"
   style="fill:#ffc2d3;fill-opacity:1" /><rect
   x="-80"
   y="56.000008"
   width="8"
   height="8"
   id="rect188-82-4-3-7-6-23-8"
   transform="scale(-1,1)"
   style="fill:#ffc2d3;fill-opacity:1" /><rect
   x="-88"
   y="48.000004"
   width="8"
   height="8"
   id="rect188-82-4-3-7-6-23-0"
   transform="scale(-1,1)"
   style="fill:#ffc2d3;fill-opacity:1" /><rect
   x="-96"
   y="48.000004"
   width="8"
   height="8"
   id="rect188-82-4-3-7-6-23-9"
   transform="scale(-1,1)"
   style="fill:#ffc2d3;fill-opacity:1" /><rect
   x="-104"
   y="48.000004"
   width="8"
   height="8"
   id="rect188-82-4-3-7-6-23-3"
   transform="scale(-1,1)"
   style="fill:#ffc2d3;fill-opacity:1" /><rect
   x="-104"
   y="56.000008"
   width="8"
   height="8"
   id="rect188-82-4-3-7-6-23-82"
   transform="scale(-1,1)"
   style="fill:#ffc2d3;fill-opacity:1" /><rect
   x="-96"
   y="64.000008"
   width="8"
   height="8"
   id="rect188-82-4-3-7-6-23-80"
   transform="scale(-1,1)"
   style="fill:#ffc2d3;fill-opacity:1" /><rect
   x="-88"
   y="72.000008"
   width="8"
   height="8"
   id="rect188-82-4-3-7-6-23-4"
   transform="scale(-1,1)"
   style="fill:#ffc2d3;fill-opacity:1" /><rect
   x="-80"
   y="80"
   width="8"
   height="8"
   id="rect188-82-4-3-7-6-23-05"
   transform="scale(-1,1)"
   style="fill:#ffc2d3;fill-opacity:1" /><rect
   x="-72"
   y="88"
   width="8"
   height="8"
   id="rect188-82-4-3-7-6-23-1"
   transform="scale(-1,1)"
   style="fill:#ffc2d3;fill-opacity:1" /><rect
   x="-64"
   y="96"
   width="8"
   height="8"
   id="rect188-82-4-3-7-6-23-6"
   transform="scale(-1,1)"
   style="fill:#ffc2d3;fill-opacity:1" /><rect
   x="-56"
   y="64.000008"
   width="8"
   height="8"
   id="rect188-82-4-3-7-6-23-11"
   transform="scale(-1,1)"
   style="fill:#ffc2d3;fill-opacity:1" /><rect
   x="-48"
   y="56.000008"
   width="8"
   height="8"
   id="rect188-82-4-3-7-6-23-86"
   transform="scale(-1,1)"
   style="fill:#ffc2d3;fill-opacity:1" /><rect
   x="-40"
   y="48.000004"
   width="8"
   height="8"
   id="rect188-82-4-3-7-6-23-41"
   transform="scale(-1,1)"
   style="fill:#ffc2d3;fill-opacity:1" /><rect
   x="-32"
   y="48.000004"
   width="8"
   height="8"
   id="rect188-82-4-3-7-6-23-43"
   transform="scale(-1,1)"
   style="fill:#ffc2d3;fill-opacity:1" /><rect
   x="-24"
   y="48.000004"
   width="8"
   height="8"
   id="rect188-82-4-3-7-6-23-45"
   transform="scale(-1,1)"
   style="fill:#ffc2d3;fill-opacity:1" /><rect
   x="-24"
   y="56.000008"
   width="8"
   height="8"
   id="rect188-82-4-3-7-6-23-49"
   transform="scale(-1,1)"
   style="fill:#ffc2d3;fill-opacity:1" /><rect
   x="-32"
   y="64.000008"
   width="8"
   height="8"
   id="rect188-82-4-3-7-6-23-67"
   transform="scale(-1,1)"
   style="fill:#ffc2d3;fill-opacity:1" /><rect
   x="-40"
   y="72.000008"
   width="8"
   height="8"
   id="rect188-82-4-3-7-6-23-38"
   transform="scale(-1,1)"
   style="fill:#ffc2d3;fill-opacity:1" /><rect
   x="-48"
   y="80"
   width="8"
   height="8"
   id="rect188-82-4-3-7-6-23-7"
   transform="scale(-1,1)"
   style="fill:#ffc2d3;fill-opacity:1" /><rect
   x="-56"
   y="88"
   width="8"
   height="8"
   id="rect188-82-4-3-7-6-23-414"
   transform="scale(-1,1)"
   style="fill:#ffc2d3;fill-opacity:1" /><rect
   x="-64"
   y="72.000008"
   width="8"
   height="8"
   id="rect188-82-4-3-7-6-23-12"
   transform="scale(-1,1)"
   style="fill:#ffc2d3;fill-opacity:1" /><rect
   x="-32"
   y="56.000008"
   width="8"
   height="8"
   id="rect188-82-4-3-7-6-23-19"
   transform="scale(-1,1)"
   style="fill:#ffd5ff;fill-opacity:1" /><rect
   x="-40"
   y="56.000008"
   width="8"
   height="8"
   id="rect188-82-4-3-7-6-23-19-9"
   transform="scale(-1,1)"
   style="fill:#ffd5ff;fill-opacity:1" /><rect
   x="-40"
   y="64.000008"
   width="8"
   height="8"
   id="rect188-82-4-3-7-6-23-19-8"
   transform="scale(-1,1)"
   style="fill:#ffd5ff;fill-opacity:1" /><rect
   x="-48"
   y="64.000008"
   width="8"
   height="8"
   id="rect188-82-4-3-7-6-23-19-3"
   transform="scale(-1,1)"
   style="fill:#ffd5ff;fill-opacity:1" /><rect
   x="-48"
   y="72.000008"
   width="8"
   height="8"
   id="rect188-82-4-3-7-6-23-19-5"
   transform="scale(-1,1)"
   style="fill:#ffd5ff;fill-opacity:1" /><rect
   x="-56"
   y="72.000008"
   width="8"
   height="8"
   id="rect188-82-4-3-7-6-23-19-80"
   transform="scale(-1,1)"
   style="fill:#ffd5ff;fill-opacity:1" /><rect
   x="-56"
   y="80"
   width="8"
   height="8"
   id="rect188-82-4-3-7-6-23-19-30"
   transform="scale(-1,1)"
   style="fill:#ffd5ff;fill-opacity:1" /><rect
   x="-64"
   y="80"
   width="8"
   height="8"
   id="rect188-82-4-3-7-6-23-19-91"
   transform="scale(-1,1)"
   style="fill:#ffd5ff;fill-opacity:1" /><rect
   x="-64"
   y="88"
   width="8"
   height="8"
   id="rect188-82-4-3-7-6-23-19-36"
   transform="scale(-1,1)"
   style="fill:#ffd5ff;fill-opacity:1" /><rect
   x="-72"
   y="80"
   width="8"
   height="8"
   id="rect188-82-4-3-7-6-23-19-39"
   transform="scale(-1,1)"
   style="fill:#ffd5ff;fill-opacity:1" /><rect
   x="-72"
   y="72.000008"
   width="8"
   height="8"
   id="rect188-82-4-3-7-6-23-19-1"
   transform="scale(-1,1)"
   style="fill:#ffd5ff;fill-opacity:1" /><rect
   x="-80"
   y="72.000008"
   width="8"
   height="8"
   id="rect188-82-4-3-7-6-23-19-2"
   transform="scale(-1,1)"
   style="fill:#ffd5ff;fill-opacity:1" /><rect
   x="-80"
   y="64.000008"
   width="8"
   height="8"
   id="rect188-82-4-3-7-6-23-19-14"
   transform="scale(-1,1)"
   style="fill:#ffd5ff;fill-opacity:1" /><rect
   x="-88"
   y="64.000008"
   width="8"
   height="8"
   id="rect188-82-4-3-7-6-23-19-7"
   transform="scale(-1,1)"
   style="fill:#ffd5ff;fill-opacity:1" /><rect
   x="-88"
   y="56.000008"
   width="8"
   height="8"
   id="rect188-82-4-3-7-6-23-19-17"
   transform="scale(-1,1)"
   style="fill:#ffd5ff;fill-opacity:1" /><rect
   x="-96"
   y="56.000008"
   width="8"
   height="8"
   id="rect188-82-4-3-7-6-23-19-54"
   transform="scale(-1,1)"
   style="fill:#ffd5ff;fill-opacity:1" /></svg>
