<?xml version="1.0" encoding="UTF-8" standalone="no"?>
<svg
   xmlns:dc="http://purl.org/dc/elements/1.1/"
   xmlns:cc="http://creativecommons.org/ns#"
   xmlns:rdf="http://www.w3.org/1999/02/22-rdf-syntax-ns#"
   xmlns:svg="http://www.w3.org/2000/svg"
   xmlns="http://www.w3.org/2000/svg"
   xmlns:sodipodi="http://sodipodi.sourceforge.net/DTD/sodipodi-0.dtd"
   xmlns:inkscape="http://www.inkscape.org/namespaces/inkscape"
   version="1.1"
   id="Layer_1"
   x="0px"
   y="0px"
   width="88"
   height="152"
   viewBox="0 0 88 152"
   enable-background="new 0 0 256 256"
   xml:space="preserve"
   sodipodi:docname="lenin.svg"
   inkscape:version="1.0.1 (3bc2e813f5, 2020-09-07)"><metadata
   id="metadata215"><rdf:RDF><cc:Work
       rdf:about=""><dc:format>image/svg+xml</dc:format><dc:type
         rdf:resource="http://purl.org/dc/dcmitype/StillImage" /><dc:title></dc:title></cc:Work></rdf:RDF></metadata><defs
   id="defs213" /><sodipodi:namedview
   pagecolor="#ffffff"
   bordercolor="#666666"
   borderopacity="1"
   objecttolerance="10"
   gridtolerance="10"
   guidetolerance="10"
   inkscape:pageopacity="0"
   inkscape:pageshadow="2"
   inkscape:window-width="2560"
   inkscape:window-height="1373"
   id="namedview211"
   showgrid="false"
   inkscape:zoom="3.6875"
   inkscape:cx="49.133139"
   inkscape:cy="81.878213"
   inkscape:window-x="-9"
   inkscape:window-y="29"
   inkscape:window-maximized="1"
   inkscape:current-layer="Layer_1"
   inkscape:pagecheckerboard="true"
   fit-margin-top="0"
   fit-margin-left="0"
   fit-margin-right="0"
   fit-margin-bottom="0"
   inkscape:document-rotation="0"><inkscape:grid
     type="xygrid"
     id="grid4725"
     originx="-80"
     originy="-95.999999" /></sodipodi:namedview>
<rect
   x="-56"
   y="8"
   width="8"
   height="8"
   id="rect2"
   transform="scale(-1,1)"
   style="fill:#ffb380;fill-opacity:1" />
<rect
   x="-56"
   y="16"
   width="8"
   height="8"
   id="rect4"
   transform="scale(-1,1)"
   style="fill:#ffb380;fill-opacity:1" />
<rect
   x="-56"
   y="24"
   width="8"
   height="8"
   id="rect6"
   transform="scale(-1,1)"
   style="fill:#cc8835;fill-opacity:1" />
<rect
   x="-48"
   y="24"
   width="8"
   height="8"
   id="rect8"
   transform="scale(-1,1)"
   style="fill:#ffb380;fill-opacity:1" />
<rect
   x="-40"
   y="24"
   width="8"
   height="8"
   id="rect10"
   transform="scale(-1,1)"
   style="fill:#cc8835;fill-opacity:1" />
<rect
   x="-40"
   y="16"
   width="8"
   height="8"
   id="rect12"
   transform="scale(-1,1)"
   style="fill:#ffb380;fill-opacity:1" />
<rect
   x="-32"
   y="16"
   width="8"
   height="8"
   id="rect14"
   transform="scale(-1,1)"
   style="fill:#ffb380;fill-opacity:1" />
<rect
   x="-24"
   y="16"
   width="8"
   height="8"
   id="rect16"
   transform="scale(-1,1)"
   style="fill:#ffb380;fill-opacity:1" />
<rect
   x="-24"
   y="24"
   width="8"
   height="8"
   id="rect18"
   transform="scale(-1,1)"
   style="fill:#cc8835;fill-opacity:1" />
<rect
   x="-32"
   y="24"
   width="8"
   height="8"
   id="rect20"
   transform="scale(-1,1)"
   style="fill:#cc8835;fill-opacity:1" />




<rect
   x="-24"
   y="48"
   width="8"
   height="8"
   id="rect30"
   transform="scale(-1,1)"
   style="fill:#ffb380" />

<rect
   x="-32"
   y="48"
   width="8"
   height="8"
   id="rect34"
   transform="scale(-1,1)"
   style="fill:#ffb380" />


<rect
   x="-40"
   y="40"
   width="8"
   height="8"
   id="rect40"
   transform="scale(-1,1)"
   style="fill:#ffb380" />
<rect
   x="-48"
   y="40"
   width="8"
   height="8"
   id="rect42"
   transform="scale(-1,1)"
   style="fill:#ffb380" />
<rect
   x="-56"
   y="40"
   width="8"
   height="8"
   id="rect44"
   transform="scale(-1,1)"
   style="fill:#ffb380;fill-opacity:1" />
<rect
   x="-48"
   y="48"
   width="8"
   height="8"
   id="rect46"
   transform="scale(-1,1)"
   style="fill:#71511b;fill-opacity:1" />
<rect
   x="-48"
   y="56"
   width="8"
   height="8"
   id="rect48"
   transform="scale(-1,1)"
   style="fill:#ff2a2a;fill-opacity:1" />
<rect
   x="-56"
   y="48"
   width="8"
   height="8"
   id="rect50"
   transform="scale(-1,1)"
   style="fill:#71511b;fill-opacity:1" />














































<rect
   x="-64"
   y="48"
   width="8"
   height="8"
   id="rect144"
   transform="scale(-1,1)"
   style="fill:#ffb380;fill-opacity:1" />

<rect
   x="-64"
   y="40"
   width="8"
   height="8"
   id="rect148"
   transform="scale(-1,1)"
   style="fill:#ffb380;fill-opacity:1" />

<rect
   x="-64"
   y="32"
   width="8"
   height="8"
   id="rect152"
   transform="scale(-1,1)"
   style="fill:#000000;fill-opacity:1" />
<rect
   x="-72"
   y="32"
   width="8"
   height="8"
   id="rect154"
   transform="scale(-1,1)"
   style="fill:#ffb380;fill-opacity:1" />

<rect
   x="-64"
   y="24"
   width="8"
   height="8"
   id="rect158"
   transform="scale(-1,1)"
   style="fill:#cc8835;fill-opacity:1" />
<rect
   x="-64"
   y="16"
   width="8"
   height="8"
   id="rect160"
   transform="scale(-1,1)"
   style="fill:#ffb380;fill-opacity:1" />
<rect
   x="-40"
   y="48"
   width="8"
   height="8"
   id="rect162"
   transform="scale(-1,1)"
   style="fill:#71511b;fill-opacity:1" />
<rect
   x="-40"
   y="56"
   width="8"
   height="8"
   id="rect164"
   transform="scale(-1,1)"
   style="fill:#ffb380;fill-opacity:1" />
<rect
   x="-24"
   y="32"
   width="8"
   height="8"
   id="rect166"
   transform="scale(-1,1)"
   style="fill:#ffb380;fill-opacity:1" />

<rect
   x="-32"
   y="32"
   width="8"
   height="8"
   id="rect170"
   transform="scale(-1,1)"
   style="fill:#000000" />
<rect
   x="-40"
   y="32"
   width="8"
   height="8"
   id="rect172"
   transform="scale(-1,1)"
   style="fill:#ffb380" />
<rect
   x="-48"
   y="32"
   width="8"
   height="8"
   id="rect174"
   transform="scale(-1,1)"
   style="fill:#ffb380;fill-opacity:1" />
<rect
   x="-56"
   y="32"
   width="8"
   height="8"
   id="rect176"
   transform="scale(-1,1)"
   style="fill:#ffb380;fill-opacity:1" />
<rect
   x="-48"
   y="8"
   width="8"
   height="8"
   id="rect178"
   transform="scale(-1,1)"
   style="fill:#ffb380;fill-opacity:1" />
<rect
   x="-48"
   y="16"
   width="8"
   height="8"
   id="rect180"
   transform="scale(-1,1)"
   style="fill:#ffb380;fill-opacity:1" />
<rect
   x="-40"
   y="8"
   width="8"
   height="8"
   id="rect182"
   transform="scale(-1,1)"
   style="fill:#ffb380;fill-opacity:1" />
<rect
   x="-32"
   y="8"
   width="8"
   height="8"
   id="rect184"
   transform="scale(-1,1)"
   style="fill:#ffb380;fill-opacity:1" />
<rect
   x="-24"
   y="8"
   width="8"
   height="8"
   id="rect186"
   transform="scale(-1,1)"
   style="fill:#ffb380;fill-opacity:1" />
<rect
   x="-24"
   y="0"
   width="8"
   height="8"
   id="rect188"
   transform="scale(-1,1)"
   style="fill:#cca647;fill-opacity:1" />
<rect
   x="-32"
   y="0"
   width="8"
   height="8"
   id="rect190"
   transform="scale(-1,1)"
   style="fill:#ffb380;fill-opacity:1" />
<rect
   x="-40"
   y="0"
   width="8"
   height="8"
   id="rect192"
   transform="scale(-1,1)"
   style="fill:#ffb380;fill-opacity:1" />
<rect
   x="-48"
   y="0"
   width="8"
   height="8"
   id="rect194"
   transform="scale(-1,1)"
   style="fill:#ffb380;fill-opacity:1" />
<rect
   x="-16"
   y="8"
   width="8"
   height="8"
   id="rect196"
   transform="scale(-1,1)"
   style="fill:#cca647;fill-opacity:1" />





<rect
   x="-16"
   y="16"
   width="8"
   height="8"
   id="rect208"
   transform="scale(-1,1)"
   style="fill:#cca647;fill-opacity:1" />
<rect
   x="-24"
   y="40"
   width="8"
   height="8"
   id="rect166-9"
   transform="scale(-1,1)"
   style="fill:#ffbda4;fill-opacity:1" /><rect
   x="-32"
   y="40"
   width="8"
   height="8"
   id="rect40-8"
   transform="scale(-1,1)"
   style="fill:#ffb380" /><rect
   x="-72"
   y="23.999998"
   width="8"
   height="8"
   id="rect154-6"
   transform="scale(-1,1)"
   style="fill:#cc8835;fill-opacity:1" /><rect
   x="-72"
   y="16"
   width="8"
   height="8"
   id="rect154-3"
   transform="scale(-1,1)"
   style="fill:#ffb380;fill-opacity:1" /><rect
   x="-64"
   y="8"
   width="8"
   height="8"
   id="rect154-7"
   transform="scale(-1,1)"
   style="fill:#ffb380;fill-opacity:1" /><rect
   x="-72"
   y="8"
   width="8"
   height="8"
   id="rect154-1"
   transform="scale(-1,1)"
   style="fill:#ffb380;fill-opacity:1" /><rect
   x="-56"
   y="0"
   width="8"
   height="8"
   id="rect154-78"
   transform="scale(-1,1)"
   style="fill:#ffb380;fill-opacity:1" /><rect
   x="-64"
   y="0"
   width="8"
   height="8"
   id="rect154-38"
   transform="scale(-1,1)"
   style="fill:#ffb380;fill-opacity:1" /><rect
   x="-16"
   y="24"
   width="8"
   height="8"
   id="rect154-72"
   transform="scale(-1,1)"
   style="fill:#cca647;fill-opacity:1" /><rect
   x="-16"
   y="32"
   width="8"
   height="8"
   id="rect154-74"
   transform="scale(-1,1)"
   style="fill:#cca647;fill-opacity:1" /><rect
   x="-72"
   y="40"
   width="8"
   height="8"
   id="rect154-35"
   transform="scale(-1,1)"
   style="fill:#ffbda4;fill-opacity:1" /><rect
   x="-16"
   y="48"
   width="8"
   height="8"
   id="rect154-74-7"
   transform="scale(-1,1)"
   style="fill:#ffb380;fill-opacity:1" /><rect
   x="-80"
   y="48"
   width="8"
   height="8"
   id="rect154-74-7-2"
   transform="scale(-1,1)"
   style="fill:#ffb380;fill-opacity:1" /><rect
   x="-32"
   y="56"
   width="8"
   height="8"
   id="rect154-74-7-4"
   transform="scale(-1,1)"
   style="fill:#71511b;fill-opacity:1" /><rect
   x="-24"
   y="56"
   width="8"
   height="8"
   id="rect154-74-7-70"
   transform="scale(-1,1)"
   style="fill:#ffb380;fill-opacity:1" /><rect
   x="-64"
   y="56"
   width="8"
   height="8"
   id="rect154-74-7-8"
   transform="scale(-1,1)"
   style="fill:#71511b;fill-opacity:1" /><rect
   x="-72"
   y="56"
   width="8"
   height="8"
   id="rect154-74-7-70-9"
   transform="scale(-1,1)"
   style="fill:#ffb380;fill-opacity:1" /><rect
   x="-72"
   y="64"
   width="8"
   height="8"
   id="rect154-74-7-70-7"
   transform="scale(-1,1)"
   style="fill:#000000;fill-opacity:1" /><rect
   x="-32"
   y="64"
   width="8"
   height="8"
   id="rect154-74-7-70-2"
   transform="scale(-1,1)"
   style="fill:#ffb380;fill-opacity:1" /><rect
   x="-64"
   y="64"
   width="8"
   height="8"
   id="rect148-0"
   transform="scale(-1,1)"
   style="fill:#ffb380;fill-opacity:1" /><rect
   x="-24"
   y="64"
   width="8"
   height="8"
   id="rect148-9"
   transform="scale(-1,1)"
   style="fill:#000000;fill-opacity:1" /><rect
   x="-40"
   y="64"
   width="8"
   height="8"
   id="rect154-74-7-8-1"
   transform="scale(-1,1)"
   style="fill:#ffb380;fill-opacity:1" /><rect
   x="-48"
   y="64"
   width="8"
   height="8"
   id="rect154-74-7-8-0"
   transform="scale(-1,1)"
   style="fill:#ffb380;fill-opacity:1" /><rect
   x="-64"
   y="72"
   width="8"
   height="8"
   id="rect154-74-7-7-5"
   transform="scale(-1,1)"
   style="fill:#ffffff;fill-opacity:1" /><rect
   x="-48"
   y="72"
   width="8"
   height="8"
   id="rect154-74-7-7-1"
   transform="scale(-1,1)"
   style="fill:#71511b;fill-opacity:1" /><rect
   x="-56"
   y="72"
   width="8"
   height="8"
   id="rect154-74-7-7-84"
   transform="scale(-1,1)"
   style="fill:#71511b;fill-opacity:1" /><rect
   x="-72"
   y="72"
   width="8"
   height="8"
   id="rect154-74-7-7-843"
   transform="scale(-1,1)"
   style="fill:#38200d;fill-opacity:1" /><rect
   x="-40"
   y="72"
   width="8"
   height="8"
   id="rect154-74-7-7-3"
   transform="scale(-1,1)"
   style="fill:#71511b;fill-opacity:1" /><rect
   x="-32"
   y="72"
   width="8"
   height="8"
   id="rect154-74-7-7-9"
   transform="scale(-1,1)"
   style="fill:#ffffff;fill-opacity:1" /><rect
   x="-24"
   y="72"
   width="8"
   height="8"
   id="rect154-74-7-7-37"
   transform="scale(-1,1)"
   style="fill:#38200d;fill-opacity:1" /><rect
   x="-16"
   y="72"
   width="8"
   height="8"
   id="rect154-74-7-7-4"
   transform="scale(-1,1)"
   style="fill:#38200d;fill-opacity:1" /><rect
   x="-8"
   y="88"
   width="8"
   height="8"
   id="rect148-9-0"
   transform="scale(-1,1)"
   style="fill:#38200d;fill-opacity:1" /><rect
   x="-16"
   y="80"
   width="8"
   height="8"
   id="rect148-9-2"
   transform="scale(-1,1)"
   style="fill:#38200d;fill-opacity:1" /><rect
   x="-8"
   y="80"
   width="8"
   height="8"
   id="rect148-9-23"
   transform="scale(-1,1)"
   style="fill:#38200d;fill-opacity:1" /><rect
   x="-24"
   y="80"
   width="8"
   height="8"
   id="rect148-9-6"
   transform="scale(-1,1)"
   style="fill:#38200d;fill-opacity:1" /><rect
   x="-32"
   y="80"
   width="8"
   height="8"
   id="rect148-9-4"
   transform="scale(-1,1)"
   style="fill:#38200d;fill-opacity:1" /><rect
   x="-40"
   y="80"
   width="8"
   height="8"
   id="rect148-9-49"
   transform="scale(-1,1)"
   style="fill:#ffffff;fill-opacity:1" /><rect
   x="-48"
   y="80"
   width="8"
   height="8"
   id="rect148-9-19"
   transform="scale(-1,1)"
   style="fill:#000000;fill-opacity:1" /><rect
   x="-56"
   y="80"
   width="8"
   height="8"
   id="rect148-9-03"
   transform="scale(-1,1)"
   style="fill:#ffffff;fill-opacity:1" /><rect
   x="-64"
   y="80"
   width="8"
   height="8"
   id="rect148-9-8"
   transform="scale(-1,1)"
   style="fill:#38200d;fill-opacity:1" /><rect
   x="-72"
   y="80"
   width="8"
   height="8"
   id="rect148-9-06"
   transform="scale(-1,1)"
   style="fill:#38200d;fill-opacity:1" /><rect
   x="-80"
   y="80"
   width="8"
   height="8"
   id="rect148-9-40"
   transform="scale(-1,1)"
   style="fill:#38200d;fill-opacity:1" /><rect
   x="-80"
   y="88"
   width="8"
   height="8"
   id="rect148-9-15"
   transform="scale(-1,1)"
   style="fill:#38200d;fill-opacity:1" /><rect
   x="-80"
   y="96"
   width="8"
   height="8"
   id="rect148-9-1"
   transform="scale(-1,1)"
   style="fill:#38200d;fill-opacity:1" /><rect
   x="-16"
   y="88"
   width="8"
   height="8"
   id="rect148-9-0-6"
   transform="scale(-1,1)"
   style="fill:#38200d;fill-opacity:1" /><rect
   x="-8"
   y="96"
   width="8"
   height="8"
   id="rect148-9-0-2"
   transform="scale(-1,1)"
   style="fill:#38200d;fill-opacity:1" /><rect
   x="-16"
   y="96"
   width="8"
   height="8"
   id="rect148-9-0-3"
   transform="scale(-1,1)"
   style="fill:#38200d;fill-opacity:1" /><rect
   x="-8"
   y="104"
   width="8"
   height="8"
   id="rect148-9-0-1"
   transform="scale(-1,1)"
   style="fill:#38200d;fill-opacity:1" /><rect
   x="-16"
   y="104"
   width="8"
   height="8"
   id="rect148-9-0-60"
   transform="scale(-1,1)"
   style="fill:#38200d;fill-opacity:1" /><rect
   x="-72"
   y="88"
   width="8"
   height="8"
   id="rect148-9-0-0"
   transform="scale(-1,1)"
   style="fill:#38200d;fill-opacity:1" /><rect
   x="-72"
   y="96"
   width="8"
   height="8"
   id="rect148-9-0-7"
   transform="scale(-1,1)"
   style="fill:#38200d;fill-opacity:1" /><rect
   x="-72"
   y="104"
   width="8"
   height="8"
   id="rect148-9-0-5"
   transform="scale(-1,1)"
   style="fill:#38200d;fill-opacity:1" /><rect
   x="-80"
   y="104"
   width="8"
   height="8"
   id="rect148-9-0-52"
   transform="scale(-1,1)"
   style="fill:#38200d;fill-opacity:1" /><rect
   x="-16"
   y="112"
   width="8"
   height="8"
   id="rect172-1"
   transform="scale(-1,1)"
   style="fill:#38200d;fill-opacity:1" /><rect
   x="-24"
   y="88"
   width="8"
   height="8"
   id="rect172-4-1"
   transform="scale(-1,1)"
   style="fill:#38200d;fill-opacity:1" /><rect
   x="-32"
   y="88"
   width="8"
   height="8"
   id="rect172-4-15"
   transform="scale(-1,1)"
   style="fill:#38200d;fill-opacity:1" /><rect
   x="-40"
   y="88"
   width="8"
   height="8"
   id="rect172-4-2"
   transform="scale(-1,1)"
   style="fill:#ffffff;fill-opacity:1" /><rect
   x="-48"
   y="88"
   width="8"
   height="8"
   id="rect172-4-3"
   transform="scale(-1,1)"
   style="fill:#000000;fill-opacity:1" /><rect
   x="-56"
   y="88"
   width="8"
   height="8"
   id="rect172-4-9"
   transform="scale(-1,1)"
   style="fill:#ffffff;fill-opacity:1" /><rect
   x="-64"
   y="88"
   width="8"
   height="8"
   id="rect172-4-91"
   transform="scale(-1,1)"
   style="fill:#38200d;fill-opacity:1" /><rect
   x="-24"
   y="96"
   width="8"
   height="8"
   id="rect172-4-19"
   transform="scale(-1,1)"
   style="fill:#38200d;fill-opacity:1" /><rect
   x="-32"
   y="96"
   width="8"
   height="8"
   id="rect172-4-6"
   transform="scale(-1,1)"
   style="fill:#38200d;fill-opacity:1" /><rect
   x="-40"
   y="96"
   width="8"
   height="8"
   id="rect172-4-4"
   transform="scale(-1,1)"
   style="fill:#38200d;fill-opacity:1" /><rect
   x="-56"
   y="96"
   width="8"
   height="8"
   id="rect172-4-0"
   transform="scale(-1,1)"
   style="fill:#38200d;fill-opacity:1" /><rect
   x="-48"
   y="96"
   width="8"
   height="8"
   id="rect172-4-63"
   transform="scale(-1,1)"
   style="fill:#38200d;fill-opacity:1" /><rect
   x="-64"
   y="96"
   width="8"
   height="8"
   id="rect172-4-45"
   transform="scale(-1,1)"
   style="fill:#38200d;fill-opacity:1" /><rect
   x="-24"
   y="104"
   width="8"
   height="8"
   id="rect172-4-02"
   transform="scale(-1,1)"
   style="fill:#38200d;fill-opacity:1" /><rect
   x="-32"
   y="104"
   width="8"
   height="8"
   id="rect172-4-65"
   transform="scale(-1,1)"
   style="fill:#38200d;fill-opacity:1" /><rect
   x="-40"
   y="104"
   width="8"
   height="8"
   id="rect172-4-5"
   transform="scale(-1,1)"
   style="fill:#38200d;fill-opacity:1" /><rect
   x="-48"
   y="104"
   width="8"
   height="8"
   id="rect172-4-7"
   transform="scale(-1,1)"
   style="fill:#38200d;fill-opacity:1" /><rect
   x="-56"
   y="104"
   width="8"
   height="8"
   id="rect172-4-55"
   transform="scale(-1,1)"
   style="fill:#38200d;fill-opacity:1" /><rect
   x="-64"
   y="104"
   width="8"
   height="8"
   id="rect172-4-159"
   transform="scale(-1,1)"
   style="fill:#38200d;fill-opacity:1" /><rect
   x="-24"
   y="112"
   width="8"
   height="8"
   id="rect172-4-26"
   transform="scale(-1,1)"
   style="fill:#38200d;fill-opacity:1" /><rect
   x="-32"
   y="112"
   width="8"
   height="8"
   id="rect172-4-70"
   transform="scale(-1,1)"
   style="fill:#38200d;fill-opacity:1" /><rect
   x="-40"
   y="112"
   width="8"
   height="8"
   id="rect172-4-60"
   transform="scale(-1,1)"
   style="fill:#38200d;fill-opacity:1" /><rect
   x="-48"
   y="112"
   width="8"
   height="8"
   id="rect172-4-71"
   transform="scale(-1,1)"
   style="fill:#38200d;fill-opacity:1" /><rect
   x="-56"
   y="112"
   width="8"
   height="8"
   id="rect172-4-54"
   transform="scale(-1,1)"
   style="fill:#38200d;fill-opacity:1" /><rect
   x="-64"
   y="112"
   width="8"
   height="8"
   id="rect172-4-34"
   transform="scale(-1,1)"
   style="fill:#38200d;fill-opacity:1" /><rect
   x="-8"
   y="112"
   width="8"
   height="8"
   id="rect148-9-0-6-5"
   transform="scale(-1,1)"
   style="fill:#ffffff;fill-opacity:1" /><rect
   x="-8"
   y="120"
   width="8"
   height="8"
   id="rect148-9-0-6-8"
   transform="scale(-1,1)"
   style="fill:#ffb380;fill-opacity:1" /><rect
   x="-16"
   y="128"
   width="8"
   height="8"
   id="rect148-9-0-6-6"
   transform="scale(-1,1)"
   style="fill:#38200d;fill-opacity:1" /><rect
   x="-24"
   y="136"
   width="8"
   height="8"
   id="rect148-9-0-6-3"
   transform="scale(-1,1)"
   style="fill:#38350d;fill-opacity:1" /><rect
   x="-32"
   y="136"
   width="8"
   height="8"
   id="rect148-9-0-6-2"
   transform="scale(-1,1)"
   style="fill:#38350d;fill-opacity:1" /><rect
   x="-16"
   y="144"
   width="8"
   height="8"
   id="rect148-9-0-6-85"
   transform="scale(-1,1)"
   style="fill:#18200d;fill-opacity:1" /><rect
   x="-40"
   y="136"
   width="8"
   height="8"
   id="rect148-9-0-6-7"
   transform="scale(-1,1)"
   style="fill:#38350d;fill-opacity:1" /><rect
   x="-24"
   y="144"
   width="8"
   height="8"
   id="rect148-9-0-6-9"
   transform="scale(-1,1)"
   style="fill:#18200d;fill-opacity:1" /><rect
   x="-32"
   y="144"
   width="8"
   height="8"
   id="rect148-9-0-6-3-6"
   transform="scale(-1,1)"
   style="fill:#18200d;fill-opacity:1" /><rect
   x="-40"
   y="144"
   width="8"
   height="8"
   id="rect148-9-0-6-2-1"
   transform="scale(-1,1)"
   style="fill:#18200d;fill-opacity:1" /><rect
   x="-47.999992"
   y="144"
   width="8"
   height="8"
   id="rect148-9-0-6-7-0"
   transform="scale(-1,1)"
   style="fill:#38350d;fill-opacity:1" /><rect
   x="-47.999992"
   y="136"
   width="8"
   height="8"
   id="rect148-9-0-6-3-61"
   transform="scale(-1,1)"
   style="fill:#38350d;fill-opacity:1" /><rect
   x="-56"
   y="136"
   width="8"
   height="8"
   id="rect148-9-0-6-2-6"
   transform="scale(-1,1)"
   style="fill:#38350d;fill-opacity:1" /><rect
   x="-64"
   y="136"
   width="8"
   height="8"
   id="rect148-9-0-6-7-04"
   transform="scale(-1,1)"
   style="fill:#38350d;fill-opacity:1" /><rect
   x="-56"
   y="144"
   width="8"
   height="8"
   id="rect148-9-0-6-3-62"
   transform="scale(-1,1)"
   style="fill:#18200d;fill-opacity:1" /><rect
   x="-64"
   y="144"
   width="8"
   height="8"
   id="rect148-9-0-6-2-0"
   transform="scale(-1,1)"
   style="fill:#18200d;fill-opacity:1" /><rect
   x="-72"
   y="144"
   width="8"
   height="8"
   id="rect148-9-0-6-7-7"
   transform="scale(-1,1)"
   style="fill:#18200d;fill-opacity:1" /><rect
   x="-72"
   y="128"
   width="8"
   height="8"
   id="rect148-9-0-6-6-1"
   transform="scale(-1,1)"
   style="fill:#38200d;fill-opacity:1" /><rect
   x="-80"
   y="120"
   width="8"
   height="8"
   id="rect148-9-0-6-6-0"
   transform="scale(-1,1)"
   style="fill:#38200d;fill-opacity:1" /><rect
   x="-80"
   y="112"
   width="8"
   height="8"
   id="rect148-9-0-6-6-8"
   transform="scale(-1,1)"
   style="fill:#38200d;fill-opacity:1" /><rect
   x="-64"
   y="120"
   width="8"
   height="8"
   id="rect172-4-51"
   transform="scale(-1,1)"
   style="fill:#38200d;fill-opacity:1" /><rect
   x="-16"
   y="120"
   width="8"
   height="8"
   id="rect172-4-26-3"
   transform="scale(-1,1)"
   style="fill:#38200d;fill-opacity:1" /><rect
   x="-24"
   y="120"
   width="8"
   height="8"
   id="rect172-4-70-3"
   transform="scale(-1,1)"
   style="fill:#38200d;fill-opacity:1" /><rect
   x="-32"
   y="120"
   width="8"
   height="8"
   id="rect172-4-60-9"
   transform="scale(-1,1)"
   style="fill:#38200d;fill-opacity:1" /><rect
   x="-40"
   y="120"
   width="8"
   height="8"
   id="rect172-4-71-8"
   transform="scale(-1,1)"
   style="fill:#38200d;fill-opacity:1" /><rect
   x="-48"
   y="120"
   width="8"
   height="8"
   id="rect172-4-54-4"
   transform="scale(-1,1)"
   style="fill:#38200d;fill-opacity:1" /><rect
   x="-56"
   y="120"
   width="8"
   height="8"
   id="rect172-4-34-8"
   transform="scale(-1,1)"
   style="fill:#38200d;fill-opacity:1" /><rect
   x="-72"
   y="120"
   width="8"
   height="8"
   id="rect172-4-51-6"
   transform="scale(-1,1)"
   style="fill:#38200d;fill-opacity:1" /><rect
   x="-64"
   y="128"
   width="8"
   height="8"
   id="rect172-4-51-5"
   transform="scale(-1,1)"
   style="fill:#38200d;fill-opacity:1" /><rect
   x="-24"
   y="128"
   width="8"
   height="8"
   id="rect172-4-70-3-1"
   transform="scale(-1,1)"
   style="fill:#38200d;fill-opacity:1" /><rect
   x="-32"
   y="128"
   width="8"
   height="8"
   id="rect172-4-60-9-4"
   transform="scale(-1,1)"
   style="fill:#38200d;fill-opacity:1" /><rect
   x="-40"
   y="128"
   width="8"
   height="8"
   id="rect172-4-71-8-4"
   transform="scale(-1,1)"
   style="fill:#38200d;fill-opacity:1" /><rect
   x="-48"
   y="128"
   width="8"
   height="8"
   id="rect172-4-54-4-0"
   transform="scale(-1,1)"
   style="fill:#38200d;fill-opacity:1" /><rect
   x="-56"
   y="128"
   width="8"
   height="8"
   id="rect172-4-34-8-6"
   transform="scale(-1,1)"
   style="fill:#38200d;fill-opacity:1" /><rect
   x="-72"
   y="112"
   width="8"
   height="8"
   id="rect172-1-1"
   transform="scale(-1,1)"
   style="fill:#38200d;fill-opacity:1" /><rect
   x="-8"
   y="72"
   width="8"
   height="8"
   id="rect154-74-7-7-843-0"
   transform="scale(-1,1)"
   style="fill:#38200d;fill-opacity:1" /><rect
   x="-80"
   y="23.999996"
   width="8"
   height="8"
   id="rect154-6-9"
   transform="scale(-1,1)"
   style="fill:#cca647;fill-opacity:1" /><rect
   x="-80"
   y="15.999998"
   width="8"
   height="8"
   id="rect154-3-4"
   transform="scale(-1,1)"
   style="fill:#cca647;fill-opacity:1" /><rect
   x="-80"
   y="7.999999"
   width="8"
   height="8"
   id="rect154-1-8"
   transform="scale(-1,1)"
   style="fill:#cca647;fill-opacity:1" /><rect
   x="-80"
   y="32"
   width="8"
   height="8"
   id="rect154-35-5"
   transform="scale(-1,1)"
   style="fill:#cca647;fill-opacity:1" /><rect
   x="-72"
   y="2.2351742e-008"
   width="8"
   height="8"
   id="rect154-1-7"
   transform="scale(-1,1)"
   style="fill:#cca647;fill-opacity:1" /><rect
   x="-72"
   y="48"
   width="8"
   height="8"
   id="rect154-74-7-2-0"
   transform="scale(-1,1)"
   style="fill:#ffb380;fill-opacity:1" /><rect
   x="-56"
   y="56"
   width="8"
   height="8"
   id="rect154-74-7-5-8"
   transform="scale(-1,1)"
   style="fill:#ffb380;fill-opacity:1" /><rect
   x="-56"
   y="63.999996"
   width="8"
   height="8"
   id="rect148-0-8"
   transform="scale(-1,1)"
   style="fill:#ffb380;fill-opacity:1" /><rect
   x="-88"
   y="72"
   width="8"
   height="8"
   id="rect154-74-7-7-4-4"
   transform="scale(-1,1)"
   style="fill:#38200d;fill-opacity:1" /><rect
   x="-80"
   y="72"
   width="8"
   height="8"
   id="rect154-74-7-7-843-0-2"
   transform="scale(-1,1)"
   style="fill:#38200d;fill-opacity:1" /><rect
   x="-80"
   y="128"
   width="8"
   height="8"
   id="rect148-9-0-6-6-1-5"
   transform="scale(-1,1)"
   style="fill:#38200d;fill-opacity:1" /><rect
   x="-88"
   y="80"
   width="8"
   height="8"
   id="rect148-9-40-7"
   transform="scale(-1,1)"
   style="fill:#38200d;fill-opacity:1" /><rect
   x="-88"
   y="88"
   width="8"
   height="8"
   id="rect148-9-15-6"
   transform="scale(-1,1)"
   style="fill:#38200d;fill-opacity:1" /><rect
   x="-88"
   y="96"
   width="8"
   height="8"
   id="rect148-9-1-5"
   transform="scale(-1,1)"
   style="fill:#38200d;fill-opacity:1" /><rect
   x="-88"
   y="104"
   width="8"
   height="8"
   id="rect148-9-0-52-0"
   transform="scale(-1,1)"
   style="fill:#38200d;fill-opacity:1" /><rect
   x="-88"
   y="120"
   width="8"
   height="8"
   id="rect148-9-0-6-6-0-9"
   transform="scale(-1,1)"
   style="fill:#ffb380;fill-opacity:1" /><rect
   x="-88"
   y="112"
   width="8"
   height="8"
   id="rect148-9-0-6-6-8-5"
   transform="scale(-1,1)"
   style="fill:#ffffff;fill-opacity:1" /><rect
   x="-72"
   y="136"
   width="8"
   height="8"
   id="rect148-9-0-6-7-04-4"
   transform="scale(-1,1)"
   style="fill:#38350d;fill-opacity:1" /><rect
   x="-80"
   y="144"
   width="8"
   height="8"
   id="rect148-9-0-6-7-04-44"
   transform="scale(-1,1)"
   style="fill:#18200d;fill-opacity:1" /><rect
   x="-80"
   y="40"
   width="8"
   height="8"
   id="rect154-74-7-2-9"
   transform="scale(-1,1)"
   style="fill:#ffb380;fill-opacity:1" /><rect
   x="-16"
   y="40"
   width="8"
   height="8"
   id="rect154-74-7-2-92"
   transform="scale(-1,1)"
   style="fill:#ffb380;fill-opacity:1" /></svg>
