<?xml version="1.0" encoding="UTF-8" standalone="no"?>
<svg
   xmlns:dc="http://purl.org/dc/elements/1.1/"
   xmlns:cc="http://creativecommons.org/ns#"
   xmlns:rdf="http://www.w3.org/1999/02/22-rdf-syntax-ns#"
   xmlns:svg="http://www.w3.org/2000/svg"
   xmlns="http://www.w3.org/2000/svg"
   xmlns:sodipodi="http://sodipodi.sourceforge.net/DTD/sodipodi-0.dtd"
   xmlns:inkscape="http://www.inkscape.org/namespaces/inkscape"
   version="1.1"
   id="Layer_1"
   x="0px"
   y="0px"
   width="80"
   height="80"
   viewBox="0 0 80 80"
   enable-background="new 0 0 256 256"
   xml:space="preserve"
   sodipodi:docname="Lysekrone.svg"
   inkscape:version="1.0.1 (3bc2e813f5, 2020-09-07)"><metadata
   id="metadata215"><rdf:RDF><cc:Work
       rdf:about=""><dc:format>image/svg+xml</dc:format><dc:type
         rdf:resource="http://purl.org/dc/dcmitype/StillImage" /><dc:title></dc:title></cc:Work></rdf:RDF></metadata><defs
   id="defs213" /><sodipodi:namedview
   pagecolor="#ffffff"
   bordercolor="#666666"
   borderopacity="1"
   objecttolerance="10"
   gridtolerance="10"
   guidetolerance="10"
   inkscape:pageopacity="0"
   inkscape:pageshadow="2"
   inkscape:window-width="2560"
   inkscape:window-height="1373"
   id="namedview211"
   showgrid="false"
   inkscape:zoom="2.6074563"
   inkscape:cx="37.687254"
   inkscape:cy="40.159532"
   inkscape:window-x="-9"
   inkscape:window-y="29"
   inkscape:window-maximized="1"
   inkscape:current-layer="Layer_1"
   inkscape:pagecheckerboard="true"
   fit-margin-top="24"
   fit-margin-left="4"
   fit-margin-right="4"
   fit-margin-bottom="0"
   inkscape:document-rotation="0"><inkscape:grid
     type="xygrid"
     id="grid4725"
     originx="8.525852"
     originy="1.434002" /></sodipodi:namedview>








































































































<rect
   x="-28"
   y="24"
   width="8"
   height="8"
   id="rect188-82-4-3-7-3"
   transform="scale(-1,1)"
   style="fill:#d5f6ff;fill-opacity:1" /><rect
   x="-36"
   y="24"
   width="8"
   height="8"
   id="rect188-82-4-3-7"
   transform="scale(-1,1)"
   style="fill:#b7e9fa;fill-opacity:1" /><rect
   x="-44"
   y="24"
   width="8"
   height="8"
   id="rect188-82-4-3-7-38"
   transform="scale(-1,1)"
   style="fill:#d5f6ff;fill-opacity:1" /><rect
   x="-52"
   y="24"
   width="8"
   height="8"
   id="rect188-82-4-3-7-6"
   transform="scale(-1,1)"
   style="fill:#b7e9fa;fill-opacity:1" /><rect
   x="-20"
   y="32"
   width="8"
   height="8"
   id="rect188-82-4-3-7-8"
   transform="scale(-1,1)"
   style="fill:#d5f6ff;fill-opacity:1" /><rect
   x="-28"
   y="32"
   width="8"
   height="8"
   id="rect188-82-4-3-7-2"
   transform="scale(-1,1)"
   style="fill:#b7e9fa;fill-opacity:1" /><rect
   x="-36"
   y="32"
   width="8"
   height="8"
   id="rect188-82-4-3-7-4"
   transform="scale(-1,1)"
   style="fill:#d5f6ff;fill-opacity:1" /><rect
   x="-68"
   y="40"
   width="8"
   height="8"
   id="rect188-82-4-3-7-88"
   transform="scale(-1,1)"
   style="fill:#b7e9fa;fill-opacity:1" /><rect
   x="-60"
   y="32"
   width="8"
   height="8"
   id="rect188-82-4-3-7-87"
   transform="scale(-1,1)"
   style="fill:#b7e9fa;fill-opacity:1" /><rect
   x="-52"
   y="32"
   width="8"
   height="8"
   id="rect188-82-4-3-7-23"
   transform="scale(-1,1)"
   style="fill:#d5f6ff;fill-opacity:1" /><rect
   x="-44"
   y="32"
   width="8"
   height="8"
   id="rect188-82-4-3-7-44"
   transform="scale(-1,1)"
   style="fill:#b7e9fa;fill-opacity:1" /><rect
   x="-20"
   y="40"
   width="8"
   height="8"
   id="rect188-82-4-3-7-8-8"
   transform="scale(-1,1)"
   style="fill:#b7e9fa;fill-opacity:1" /><rect
   x="-28"
   y="40"
   width="8"
   height="8"
   id="rect188-82-4-3-7-2-4"
   transform="scale(-1,1)"
   style="fill:#d5f6ff;fill-opacity:1" /><rect
   x="-36"
   y="40"
   width="8"
   height="8"
   id="rect188-82-4-3-7-4-0"
   transform="scale(-1,1)"
   style="fill:#b7e9fa;fill-opacity:1" /><rect
   x="-60"
   y="40"
   width="8"
   height="8"
   id="rect188-82-4-3-7-87-8"
   transform="scale(-1,1)"
   style="fill:#d5f6ff;fill-opacity:1" /><rect
   x="-52"
   y="40"
   width="8"
   height="8"
   id="rect188-82-4-3-7-23-8"
   transform="scale(-1,1)"
   style="fill:#b7e9fa;fill-opacity:1" /><rect
   x="-44"
   y="40"
   width="8"
   height="8"
   id="rect188-82-4-3-7-44-3"
   transform="scale(-1,1)"
   style="fill:#d5f6ff;fill-opacity:1" /><rect
   x="-12"
   y="40"
   width="8"
   height="8"
   id="rect188-82-4-3-7-88-5"
   transform="scale(-1,1)"
   style="fill:#d5f6ff;fill-opacity:1" /><rect
   x="-60"
   y="24"
   width="8"
   height="8"
   id="rect188-82-4-3-7-87-9"
   transform="scale(-1,1)"
   style="fill:#d5f6ff;fill-opacity:1" /><rect
   x="-68"
   y="32"
   width="8"
   height="8"
   id="rect188-82-4-3-7-87-6"
   transform="scale(-1,1)"
   style="fill:#d5f6ff;fill-opacity:1" /><rect
   x="-76"
   y="40"
   width="8"
   height="8"
   id="rect188-82-4-3-7-87-65"
   transform="scale(-1,1)"
   style="fill:#d5f6ff;fill-opacity:1" /><rect
   x="-12"
   y="48"
   width="8"
   height="8"
   id="rect188-82-4-3-7-87-7"
   transform="scale(-1,1)"
   style="fill:#ffcc00;fill-opacity:1" /><rect
   x="-20"
   y="48"
   width="8"
   height="8"
   id="rect188-82-4-3-7-87-61"
   transform="scale(-1,1)"
   style="fill:#ffcc00;fill-opacity:1" /><rect
   x="-28"
   y="48"
   width="8"
   height="8"
   id="rect188-82-4-3-7-87-3"
   transform="scale(-1,1)"
   style="fill:#ffcc00;fill-opacity:1" /><rect
   x="-36"
   y="48"
   width="8"
   height="8"
   id="rect188-82-4-3-7-87-0"
   transform="scale(-1,1)"
   style="fill:#ffcc00;fill-opacity:1" /><rect
   x="-44"
   y="48"
   width="8"
   height="8"
   id="rect188-82-4-3-7-87-06"
   transform="scale(-1,1)"
   style="fill:#ffcc00;fill-opacity:1" /><rect
   x="-52"
   y="48"
   width="8"
   height="8"
   id="rect188-82-4-3-7-87-5"
   transform="scale(-1,1)"
   style="fill:#ffcc00;fill-opacity:1" /><rect
   x="-60"
   y="48"
   width="8"
   height="8"
   id="rect188-82-4-3-7-87-652"
   transform="scale(-1,1)"
   style="fill:#ffcc00;fill-opacity:1" /><rect
   x="-68"
   y="48"
   width="8"
   height="8"
   id="rect188-82-4-3-7-87-1"
   transform="scale(-1,1)"
   style="fill:#ffcc00;fill-opacity:1" /><rect
   x="-76"
   y="48"
   width="8"
   height="8"
   id="rect188-82-4-3-7-87-16"
   transform="scale(-1,1)"
   style="fill:#ffcc00;fill-opacity:1" /><rect
   x="-44"
   y="56"
   width="8"
   height="8"
   id="rect188-82-4-3-7-2-4-9"
   transform="scale(-1,1)"
   style="fill:#d5f6ff;fill-opacity:1" /><rect
   x="-36"
   y="64"
   width="8"
   height="8"
   id="rect188-82-4-3-7-2-4-90"
   transform="scale(-1,1)"
   style="fill:#d5f6ff;fill-opacity:1" /><rect
   x="-52"
   y="64"
   width="8"
   height="8"
   id="rect188-82-4-3-7-2-4-4"
   transform="scale(-1,1)"
   style="fill:#d5f6ff;fill-opacity:1" /><rect
   x="-44"
   y="64"
   width="8"
   height="8"
   id="rect188-82-4-3-7-2-4-1"
   transform="scale(-1,1)"
   style="fill:#d5f6ff;fill-opacity:1" /><rect
   x="-44"
   y="72"
   width="8"
   height="8"
   id="rect188-82-4-3-7-2-4-6"
   transform="scale(-1,1)"
   style="fill:#ffff00;fill-opacity:1" /><rect
   x="-52"
   y="56"
   width="8"
   height="8"
   id="rect188-82-4-3-7-2-4-3"
   transform="scale(-1,1)"
   style="fill:#d5f6ff;fill-opacity:1" /><rect
   x="-60"
   y="56"
   width="8"
   height="8"
   id="rect188-82-4-3-7-2-4-92"
   transform="scale(-1,1)"
   style="fill:#d5f6ff;fill-opacity:1" /><rect
   x="-36"
   y="56"
   width="8"
   height="8"
   id="rect188-82-4-3-7-2-4-8"
   transform="scale(-1,1)"
   style="fill:#d5f6ff;fill-opacity:1" /><rect
   x="-28"
   y="56"
   width="8"
   height="8"
   id="rect188-82-4-3-7-2-4-2"
   transform="scale(-1,1)"
   style="fill:#d5f6ff;fill-opacity:1" /></svg>
