<?xml version="1.0" encoding="UTF-8" standalone="no"?>
<svg
   xmlns:dc="http://purl.org/dc/elements/1.1/"
   xmlns:cc="http://creativecommons.org/ns#"
   xmlns:rdf="http://www.w3.org/1999/02/22-rdf-syntax-ns#"
   xmlns:svg="http://www.w3.org/2000/svg"
   xmlns="http://www.w3.org/2000/svg"
   xmlns:sodipodi="http://sodipodi.sourceforge.net/DTD/sodipodi-0.dtd"
   xmlns:inkscape="http://www.inkscape.org/namespaces/inkscape"
   version="1.1"
   id="Layer_1"
   x="0px"
   y="0px"
   width="64"
   height="128"
   viewBox="0 0 64 128"
   enable-background="new 0 0 256 256"
   xml:space="preserve"
   sodipodi:docname="maincharacterMoscow.svg"
   inkscape:version="1.0.1 (3bc2e813f5, 2020-09-07)"><metadata
   id="metadata215"><rdf:RDF><cc:Work
       rdf:about=""><dc:format>image/svg+xml</dc:format><dc:type
         rdf:resource="http://purl.org/dc/dcmitype/StillImage" /><dc:title></dc:title></cc:Work></rdf:RDF></metadata><defs
   id="defs213" /><sodipodi:namedview
   pagecolor="#ffffff"
   bordercolor="#666666"
   borderopacity="1"
   objecttolerance="10"
   gridtolerance="10"
   guidetolerance="10"
   inkscape:pageopacity="0"
   inkscape:pageshadow="2"
   inkscape:window-width="820"
   inkscape:window-height="480"
   id="namedview211"
   showgrid="false"
   inkscape:zoom="0.921875"
   inkscape:cx="40"
   inkscape:cy="8"
   inkscape:window-x="626"
   inkscape:window-y="165"
   inkscape:window-maximized="0"
   inkscape:current-layer="Layer_1"
   fit-margin-top="0"
   fit-margin-left="0"
   fit-margin-right="0"
   fit-margin-bottom="0"
   inkscape:document-rotation="0" />
<rect
   x="16"
   y="8"
   width="8"
   height="8"
   id="rect2"
   style="fill:#993300" />
<rect
   x="16"
   y="16"
   width="8"
   height="8"
   id="rect4"
   style="fill:#993300" />
<rect
   x="16"
   y="24"
   width="8"
   height="8"
   id="rect6"
   style="fill:#993300" />
<rect
   x="24"
   y="24"
   width="8"
   height="8"
   id="rect8"
   style="fill:#993300" />
<rect
   x="32"
   y="24"
   width="8"
   height="8"
   id="rect10"
   style="fill:#993300" />
<rect
   x="32"
   y="16"
   width="8"
   height="8"
   id="rect12"
   style="fill:#993300" />
<rect
   x="40"
   y="16"
   width="8"
   height="8"
   id="rect14"
   style="fill:#993300" />
<rect
   x="48"
   y="16"
   width="8"
   height="8"
   id="rect16"
   style="fill:#993300" />
<rect
   x="48"
   y="24"
   width="8"
   height="8"
   id="rect18"
   style="fill:#ffaa85" />
<rect
   x="40"
   y="24"
   width="8"
   height="8"
   id="rect20"
   style="fill:#ffaa85" />
<rect
   x="56"
   y="24"
   width="8"
   height="8"
   id="rect22"
   style="fill:#ffaa85" />
<rect
   x="56"
   y="32"
   width="8"
   height="8"
   id="rect24"
   style="fill:#ffaa85" />
<rect
   x="56"
   y="40"
   width="8"
   height="8"
   id="rect26"
   style="fill:#ffaa85" />
<rect
   x="56"
   y="48"
   width="8"
   height="8"
   id="rect28"
   style="fill:#ffaa85" />
<rect
   x="48"
   y="48"
   width="8"
   height="8"
   id="rect30"
   style="fill:#ffaa85" />
<rect
   x="48"
   y="56"
   width="8"
   height="8"
   id="rect32"
   style="fill:#ffaa85" />
<rect
   x="40"
   y="48"
   width="8"
   height="8"
   id="rect34"
   style="fill:#ffaa85" />
<rect
   x="40"
   y="56"
   width="8"
   height="8"
   id="rect36"
   style="fill:#ffaa85" />
<rect
   x="40"
   y="40"
   width="8"
   height="8"
   id="rect38"
   style="fill:#ffaa85" />
<rect
   x="32"
   y="40"
   width="8"
   height="8"
   id="rect40"
   style="fill:#ffaa85" />
<rect
   x="24"
   y="40"
   width="8"
   height="8"
   id="rect42"
   style="fill:#ffaa85" />
<rect
   x="16"
   y="40"
   width="8"
   height="8"
   id="rect44"
   style="fill:#993300" />
<rect
   x="24"
   y="48"
   width="8"
   height="8"
   id="rect46"
   style="fill:#ffaa85" />
<rect
   x="24"
   y="56"
   width="8"
   height="8"
   id="rect48"
   style="fill:#ffaa85" />
<rect
   x="16"
   y="48"
   width="8"
   height="8"
   id="rect50"
   style="fill:#ffaa85" />
<rect
   x="16"
   y="56"
   width="8"
   height="8"
   id="rect52"
   style="fill:#ffaa85" />
<rect
   x="16"
   y="64"
   width="8"
   height="8"
   id="rect54"
   style="fill:#ea1818" />
<rect
   x="24"
   y="72"
   width="8"
   height="8"
   id="rect56"
   style="fill:#ea1818" />
<rect
   x="16"
   y="72"
   width="8"
   height="8"
   id="rect58"
   style="fill:#ea1818" />
<rect
   x="8"
   y="80"
   width="8"
   height="8"
   id="rect60"
   style="fill:#ea1818" />
<rect
   x="32"
   y="72"
   width="8"
   height="8"
   id="rect62" />
<rect
   x="40"
   y="72"
   width="8"
   height="8"
   id="rect64"
   style="fill:#ea1818" />
<rect
   x="48"
   y="72"
   width="8"
   height="8"
   id="rect66"
   style="fill:#ea1818" />
<rect
   x="56"
   y="80"
   width="8"
   height="8"
   id="rect68"
   style="fill:#ea1818" />
<rect
   x="48"
   y="80"
   width="8"
   height="8"
   id="rect70"
   style="fill:#ea1818" />
<rect
   x="40"
   y="80"
   width="8"
   height="8"
   id="rect72"
   style="fill:#ea1818" />
<rect
   x="32"
   y="80"
   width="8"
   height="8"
   id="rect74"
   style="fill:#ea1818" />
<rect
   x="24"
   y="80"
   width="8"
   height="8"
   id="rect76"
   style="fill:#ea1818" />
<rect
   x="16"
   y="80"
   width="8"
   height="8"
   id="rect78"
   style="fill:#ea1818" />
<rect
   x="8"
   y="88"
   width="8"
   height="8"
   id="rect80"
   style="fill:#ffaa85" />
<rect
   x="56"
   y="88"
   width="8"
   height="8"
   id="rect82"
   style="fill:#ea1818" />
<rect
   x="48"
   y="88"
   width="8"
   height="8"
   id="rect84"
   style="fill:#ea1818" />
<rect
   x="40"
   y="88"
   width="8"
   height="8"
   id="rect86"
   style="fill:#ea1818" />
<rect
   x="32"
   y="88"
   width="8"
   height="8"
   id="rect88"
   style="fill:#ea1818" />
<rect
   x="24"
   y="88"
   width="8"
   height="8"
   id="rect90"
   style="fill:#ea1818" />
<rect
   x="16"
   y="88"
   width="8"
   height="8"
   id="rect92"
   style="fill:#ffaa85" />
<rect
   x="8"
   y="96"
   width="8"
   height="8"
   id="rect94"
   style="fill:#ffaa85" />
<rect
   x="56"
   y="96"
   width="8"
   height="8"
   id="rect96"
   style="fill:#ea1818" />
<rect
   x="48"
   y="96"
   width="8"
   height="8"
   id="rect98"
   style="fill:#ea1818" />
<rect
   x="40"
   y="96"
   width="8"
   height="8"
   id="rect100"
   style="fill:#ea1818" />
<rect
   x="32"
   y="96"
   width="8"
   height="8"
   id="rect102"
   style="fill:#ea1818" />
<rect
   x="56"
   y="104"
   width="8"
   height="8"
   id="rect104"
   style="fill:#ea1818" />
<rect
   x="48"
   y="104"
   width="8"
   height="8"
   id="rect106"
   style="fill:#ea1818" />
<rect
   x="40"
   y="104"
   width="8"
   height="8"
   id="rect108"
   style="fill:#ea1818" />
<rect
   x="32"
   y="104"
   width="8"
   height="8"
   id="rect110"
   style="fill:#ea1818" />
<rect
   x="24"
   y="96"
   width="8"
   height="8"
   id="rect112"
   style="fill:#ffaa85" />
<rect
   x="16"
   y="96"
   width="8"
   height="8"
   id="rect114"
   style="fill:#ffaa85" />
<rect
   x="8"
   y="104"
   width="8"
   height="8"
   id="rect116"
   style="fill:#ffaa85" />
<rect
   x="24"
   y="104"
   width="8"
   height="8"
   id="rect118"
   style="fill:#ffaa85" />
<rect
   x="16"
   y="104"
   width="8"
   height="8"
   id="rect120"
   style="fill:#ffaa85" />
<rect
   x="40"
   y="112"
   width="8"
   height="8"
   id="rect122" />
<rect
   x="48"
   y="112"
   width="8"
   height="8"
   id="rect124" />
<rect
   x="48"
   y="120"
   width="8"
   height="8"
   id="rect126" />
<rect
   x="32"
   y="112"
   width="8"
   height="8"
   id="rect128" />
<rect
   x="24"
   y="112"
   width="8"
   height="8"
   id="rect130" />
<rect
   x="16"
   y="112"
   width="8"
   height="8"
   id="rect132" />
<rect
   x="16"
   y="120"
   width="8"
   height="8"
   id="rect134" />
<rect
   x="40"
   y="120"
   width="8"
   height="8"
   id="rect136" />
<rect
   x="32"
   y="120"
   width="8"
   height="8"
   id="rect138" />
<rect
   x="24"
   y="120"
   width="8"
   height="8"
   id="rect140" />
<rect
   x="48"
   y="64"
   width="8"
   height="8"
   id="rect142"
   style="fill:#ffaa85" />
<rect
   x="8"
   y="48"
   width="8"
   height="8"
   id="rect144"
   style="fill:#993300" />
<rect
   x="0"
   y="48"
   width="8"
   height="8"
   id="rect146"
   style="fill:#993300" />
<rect
   x="8"
   y="40"
   width="8"
   height="8"
   id="rect148"
   style="fill:#993300" />
<rect
   x="0"
   y="40"
   width="8"
   height="8"
   id="rect150"
   style="fill:#993300" />
<rect
   x="8"
   y="32"
   width="8"
   height="8"
   id="rect152"
   style="fill:#993300" />
<rect
   x="0"
   y="24"
   width="8"
   height="8"
   id="rect154"
   style="fill:#993300" />
<rect
   x="0"
   y="32"
   width="8"
   height="8"
   id="rect156"
   style="fill:#993300" />
<rect
   x="8"
   y="24"
   width="8"
   height="8"
   id="rect158"
   style="fill:#993300" />
<rect
   x="8"
   y="16"
   width="8"
   height="8"
   id="rect160"
   style="fill:#993300" />
<rect
   x="32"
   y="48"
   width="8"
   height="8"
   id="rect162"
   style="fill:#ffaa85" />
<rect
   x="32"
   y="56"
   width="8"
   height="8"
   id="rect164"
   style="fill:#ffaa85" />
<rect
   x="48"
   y="32"
   width="8"
   height="8"
   id="rect166" />
<rect
   x="48"
   y="40"
   width="8"
   height="8"
   id="rect168" />
<rect
   x="40"
   y="32"
   width="8"
   height="8"
   id="rect170"
   style="fill:#ffaa85" />
<rect
   x="32"
   y="32"
   width="8"
   height="8"
   id="rect172"
   style="fill:#ffaa85" />
<rect
   x="24"
   y="32"
   width="8"
   height="8"
   id="rect174"
   style="fill:#993300" />
<rect
   x="16"
   y="32"
   width="8"
   height="8"
   id="rect176"
   style="fill:#993300" />
<rect
   x="24"
   y="8"
   width="8"
   height="8"
   id="rect178"
   style="fill:#993300" />
<rect
   x="24"
   y="16"
   width="8"
   height="8"
   id="rect180"
   style="fill:#993300" />
<rect
   x="32"
   y="8"
   width="8"
   height="8"
   id="rect182"
   style="fill:#993300" />
<rect
   x="40"
   y="8"
   width="8"
   height="8"
   id="rect184"
   style="fill:#993300" />
<rect
   x="48"
   y="8"
   width="8"
   height="8"
   id="rect186"
   style="fill:#993300" />
<rect
   x="48"
   y="0"
   width="8"
   height="8"
   id="rect188"
   style="fill:#993300" />
<rect
   x="40"
   y="0"
   width="8"
   height="8"
   id="rect190"
   style="fill:#993300" />
<rect
   x="32"
   y="0"
   width="8"
   height="8"
   id="rect192"
   style="fill:#993300" />
<rect
   x="24"
   y="0"
   width="8"
   height="8"
   id="rect194"
   style="fill:#993300" />
<rect
   x="56"
   y="8"
   width="8"
   height="8"
   id="rect196"
   style="fill:#993300" />
<rect
   x="8"
   y="56"
   width="8"
   height="8"
   id="rect198"
   style="fill:#993300" />
<rect
   x="40"
   y="64"
   width="8"
   height="8"
   id="rect200"
   style="fill:#ffaa85" />
<rect
   x="32"
   y="64"
   width="8"
   height="8"
   id="rect202"
   style="fill:#ffaa85" />
<rect
   x="24"
   y="64"
   width="8"
   height="8"
   id="rect204"
   style="fill:#ffaa85" />
<rect
   x="56"
   y="56"
   width="8"
   height="8"
   id="rect206"
   style="fill:#ffaa85" />
<rect
   x="56"
   y="16"
   width="8"
   height="8"
   id="rect208"
   style="fill:#993300" />
</svg>
