<?xml version="1.0" encoding="UTF-8" standalone="no"?>
<svg
   xmlns:dc="http://purl.org/dc/elements/1.1/"
   xmlns:cc="http://creativecommons.org/ns#"
   xmlns:rdf="http://www.w3.org/1999/02/22-rdf-syntax-ns#"
   xmlns:svg="http://www.w3.org/2000/svg"
   xmlns="http://www.w3.org/2000/svg"
   xmlns:sodipodi="http://sodipodi.sourceforge.net/DTD/sodipodi-0.dtd"
   xmlns:inkscape="http://www.inkscape.org/namespaces/inkscape"
   version="1.1"
   id="Layer_1"
   x="0px"
   y="0px"
   width="96.030495"
   height="216.01312"
   viewBox="0 0 96.030496 216.01312"
   enable-background="new 0 0 256 256"
   xml:space="preserve"
   sodipodi:docname="StasjonInngang.svg"
   inkscape:version="1.0.1 (3bc2e813f5, 2020-09-07)"><metadata
   id="metadata215"><rdf:RDF><cc:Work
       rdf:about=""><dc:format>image/svg+xml</dc:format><dc:type
         rdf:resource="http://purl.org/dc/dcmitype/StillImage" /><dc:title></dc:title></cc:Work></rdf:RDF></metadata><defs
   id="defs213" /><sodipodi:namedview
   pagecolor="#ffffff"
   bordercolor="#666666"
   borderopacity="1"
   objecttolerance="10"
   gridtolerance="10"
   guidetolerance="10"
   inkscape:pageopacity="0"
   inkscape:pageshadow="2"
   inkscape:window-width="2560"
   inkscape:window-height="1373"
   id="namedview211"
   showgrid="false"
   inkscape:zoom="5.2149128"
   inkscape:cx="31.697284"
   inkscape:cy="44.175902"
   inkscape:window-x="-9"
   inkscape:window-y="29"
   inkscape:window-maximized="1"
   inkscape:current-layer="Layer_1"
   inkscape:pagecheckerboard="true"
   fit-margin-top="0"
   fit-margin-left="0"
   fit-margin-right="0"
   fit-margin-bottom="0"
   inkscape:document-rotation="0"><inkscape:grid
     type="xygrid"
     id="grid4725"
     originx="-36.567284"
     originy="-31.374023" /></sodipodi:namedview>





























































































<rect
   x="-24.000019"
   y="64"
   width="8"
   height="8"
   id="rect188"
   transform="scale(-1,1)"
   style="fill:#483e37;fill-opacity:1" />










<rect
   x="-32.000023"
   y="64"
   width="8"
   height="8"
   id="rect188-7"
   transform="scale(-1,1)"
   style="fill:#483e37;fill-opacity:1" /><rect
   x="-48.000015"
   y="64"
   width="8"
   height="8"
   id="rect188-9"
   transform="scale(-1,1)"
   style="fill:#483e37;fill-opacity:1" /><rect
   x="-40.000023"
   y="64"
   width="8"
   height="8"
   id="rect188-4"
   transform="scale(-1,1)"
   style="fill:#483e37;fill-opacity:1" /><rect
   x="-56.000023"
   y="64"
   width="8"
   height="8"
   id="rect188-8"
   transform="scale(-1,1)"
   style="fill:#483e37;fill-opacity:1" /><rect
   x="-64.000023"
   y="64"
   width="8"
   height="8"
   id="rect188-5"
   transform="scale(-1,1)"
   style="fill:#483e37;fill-opacity:1" /><rect
   x="-72.000015"
   y="64"
   width="8"
   height="8"
   id="rect188-3"
   transform="scale(-1,1)"
   style="fill:#483e37;fill-opacity:1" /><rect
   x="-80.000015"
   y="64"
   width="8"
   height="8"
   id="rect188-98"
   transform="scale(-1,1)"
   style="fill:#483e37;fill-opacity:1" /><rect
   x="-88.000015"
   y="64"
   width="8"
   height="8"
   id="rect188-42"
   transform="scale(-1,1)"
   style="fill:#483e37;fill-opacity:1" /><rect
   x="-16.000019"
   y="64"
   width="8"
   height="8"
   id="rect188-1"
   transform="scale(-1,1)"
   style="fill:#483e37;fill-opacity:1" /><rect
   x="-16.000019"
   y="72"
   width="8"
   height="8"
   id="rect188-08"
   transform="scale(-1,1)"
   style="fill:#d8c896;fill-opacity:1" /><rect
   x="-16.000019"
   y="80"
   width="8"
   height="8"
   id="rect188-93"
   transform="scale(-1,1)"
   style="fill:#d8c896;fill-opacity:1" /><rect
   x="-24.000019"
   y="72"
   width="8"
   height="8"
   id="rect188-10"
   transform="scale(-1,1)"
   style="fill:#d8c896;fill-opacity:1" /><rect
   x="-24.000019"
   y="80"
   width="8"
   height="8"
   id="rect188-6"
   transform="scale(-1,1)"
   style="fill:#d8c896;fill-opacity:1" /><rect
   x="-16.000019"
   y="88"
   width="8"
   height="8"
   id="rect188-302"
   transform="scale(-1,1)"
   style="fill:#d8c896;fill-opacity:1" /><rect
   x="-32.000023"
   y="72"
   width="8"
   height="8"
   id="rect188-28"
   transform="scale(-1,1)"
   style="fill:#d4aa00;fill-opacity:1" /><rect
   x="-32.000023"
   y="80"
   width="8"
   height="8"
   id="rect188-44"
   transform="scale(-1,1)"
   style="fill:#d4aa00;fill-opacity:1" /><rect
   x="-24.000019"
   y="88"
   width="8"
   height="8"
   id="rect188-87"
   transform="scale(-1,1)"
   style="fill:#d4aa00;fill-opacity:1" /><rect
   x="-24.000019"
   y="96"
   width="8"
   height="8"
   id="rect188-59"
   transform="scale(-1,1)"
   style="fill:#d4aa00;fill-opacity:1" /><rect
   x="-16.000019"
   y="96"
   width="8"
   height="8"
   id="rect188-38"
   transform="scale(-1,1)"
   style="fill:#d8c896;fill-opacity:1" /><rect
   x="-16.000019"
   y="104"
   width="8"
   height="8"
   id="rect188-19"
   transform="scale(-1,1)"
   style="fill:#d4aa00;fill-opacity:1" /><rect
   x="-16.000019"
   y="112"
   width="8"
   height="8"
   id="rect188-20"
   transform="scale(-1,1)"
   style="fill:#d4aa00;fill-opacity:1" /><rect
   x="-40.000023"
   y="72"
   width="8"
   height="8"
   id="rect188-21"
   transform="scale(-1,1)"
   style="fill:#d4aa00;fill-opacity:1" /><rect
   x="-48.000023"
   y="72"
   width="8"
   height="8"
   id="rect188-35"
   transform="scale(-1,1)"
   style="fill:#d4aa00;fill-opacity:1" /><rect
   x="-56.000023"
   y="72"
   width="8"
   height="8"
   id="rect188-58"
   transform="scale(-1,1)"
   style="fill:#d4aa00;fill-opacity:1" /><rect
   x="-64.000023"
   y="72"
   width="8"
   height="8"
   id="rect188-46"
   transform="scale(-1,1)"
   style="fill:#d4aa00;fill-opacity:1" /><rect
   x="-72.000015"
   y="80"
   width="8"
   height="8"
   id="rect188-96"
   transform="scale(-1,1)"
   style="fill:#d4aa00;fill-opacity:1" /><rect
   x="-80.000015"
   y="88"
   width="8"
   height="8"
   id="rect188-25"
   transform="scale(-1,1)"
   style="fill:#d4aa00;fill-opacity:1" /><rect
   x="-80.000015"
   y="96"
   width="8"
   height="8"
   id="rect188-83"
   transform="scale(-1,1)"
   style="fill:#d4aa00;fill-opacity:1" /><rect
   x="-88.000015"
   y="104"
   width="8"
   height="8"
   id="rect188-43"
   transform="scale(-1,1)"
   style="fill:#d4aa00;fill-opacity:1" /><rect
   x="-88.000015"
   y="112"
   width="8"
   height="8"
   id="rect188-97"
   transform="scale(-1,1)"
   style="fill:#d4aa00;fill-opacity:1" /><rect
   x="-72.000015"
   y="72"
   width="8"
   height="8"
   id="rect188-68"
   transform="scale(-1,1)"
   style="fill:#d4aa00;fill-opacity:1" /><rect
   x="-80.000015"
   y="80"
   width="8"
   height="8"
   id="rect188-54"
   transform="scale(-1,1)"
   style="fill:#d8c896;fill-opacity:1" /><rect
   x="-80.000015"
   y="72"
   width="8"
   height="8"
   id="rect188-77"
   transform="scale(-1,1)"
   style="fill:#d8c896;fill-opacity:1" /><rect
   x="-88.000015"
   y="96"
   width="8"
   height="8"
   id="rect188-467"
   transform="scale(-1,1)"
   style="fill:#d8c896;fill-opacity:1" /><rect
   x="-88.000015"
   y="87.999985"
   width="8"
   height="8"
   id="rect188-830"
   transform="scale(-1,1)"
   style="fill:#d8c896;fill-opacity:1" /><rect
   x="-88.000015"
   y="80"
   width="8"
   height="8"
   id="rect188-09"
   transform="scale(-1,1)"
   style="fill:#d8c896;fill-opacity:1" /><rect
   x="-88.000015"
   y="72"
   width="8"
   height="8"
   id="rect188-31"
   transform="scale(-1,1)"
   style="fill:#d8c896;fill-opacity:1" /><rect
   x="-96.000008"
   y="112"
   width="8"
   height="8"
   id="rect188-142"
   transform="scale(-1,1)"
   style="fill:#483e37;fill-opacity:1" /><rect
   x="-96.000008"
   y="104"
   width="8"
   height="8"
   id="rect188-05"
   transform="scale(-1,1)"
   style="fill:#483e37;fill-opacity:1" /><rect
   x="-96.000008"
   y="96"
   width="8"
   height="8"
   id="rect188-82"
   transform="scale(-1,1)"
   style="fill:#483e37;fill-opacity:1" /><rect
   x="-96.000008"
   y="87.999985"
   width="8"
   height="8"
   id="rect188-76"
   transform="scale(-1,1)"
   style="fill:#483e37;fill-opacity:1" /><rect
   x="-96.000008"
   y="80"
   width="8"
   height="8"
   id="rect188-03"
   transform="scale(-1,1)"
   style="fill:#483e37;fill-opacity:1" /><rect
   x="-8.0000191"
   y="64"
   width="8"
   height="8"
   id="rect188-72"
   transform="scale(-1,1)"
   style="fill:#483e37;fill-opacity:1" /><rect
   x="-8.0000191"
   y="72"
   width="8"
   height="8"
   id="rect188-742"
   transform="scale(-1,1)"
   style="fill:#483e37;fill-opacity:1" /><rect
   x="-8.0000191"
   y="80"
   width="8"
   height="8"
   id="rect188-598"
   transform="scale(-1,1)"
   style="fill:#483e37;fill-opacity:1" /><rect
   x="-8.0000191"
   y="88"
   width="8"
   height="8"
   id="rect188-304"
   transform="scale(-1,1)"
   style="fill:#483e37;fill-opacity:1" /><rect
   x="-8.0000191"
   y="96"
   width="8"
   height="8"
   id="rect188-39"
   transform="scale(-1,1)"
   style="fill:#483e37;fill-opacity:1" /><rect
   x="-8.0000191"
   y="104"
   width="8"
   height="8"
   id="rect188-682"
   transform="scale(-1,1)"
   style="fill:#483e37;fill-opacity:1"
   inkscape:transform-center-y="-12.067797" /><rect
   x="-8.0000191"
   y="112"
   width="8"
   height="8"
   id="rect188-3024"
   transform="scale(-1,1)"
   style="fill:#483e37;fill-opacity:1" /><rect
   x="-88.000015"
   y="152"
   width="8"
   height="8"
   id="rect188-82-4"
   transform="scale(-1,1)"
   style="fill:#d4aa00;fill-opacity:1" /><rect
   x="-88.000015"
   y="144"
   width="8"
   height="8"
   id="rect188-82-4-3"
   transform="scale(-1,1)"
   style="fill:#d4aa00;fill-opacity:1" /><rect
   x="-88.000015"
   y="136"
   width="8"
   height="8"
   id="rect188-76-3-8"
   transform="scale(-1,1)"
   style="fill:#d4aa00;fill-opacity:1" /><rect
   x="-88.000015"
   y="128"
   width="8"
   height="8"
   id="rect188-03-7-8"
   transform="scale(-1,1)"
   style="fill:#d4aa00;fill-opacity:1" /><rect
   x="-88.000015"
   y="120"
   width="8"
   height="8"
   id="rect188-006-6-5"
   transform="scale(-1,1)"
   style="fill:#d4aa00;fill-opacity:1" /><rect
   x="-96.000008"
   y="136"
   width="8"
   height="8"
   id="rect188-76-3-3"
   transform="scale(-1,1)"
   style="fill:#483e37;fill-opacity:1" /><rect
   x="-96.000008"
   y="128"
   width="8"
   height="8"
   id="rect188-03-7-2"
   transform="scale(-1,1)"
   style="fill:#483e37;fill-opacity:1" /><rect
   x="-96.000008"
   y="120"
   width="8"
   height="8"
   id="rect188-006-6-7"
   transform="scale(-1,1)"
   style="fill:#483e37;fill-opacity:1" /><rect
   x="-96.000008"
   y="144"
   width="8"
   height="8"
   id="rect188-82-4-39-0"
   transform="scale(-1,1)"
   style="fill:#483e37;fill-opacity:1" /><rect
   x="-96.000008"
   y="152"
   width="8"
   height="8"
   id="rect188-82-4-39-8"
   transform="scale(-1,1)"
   style="fill:#483e37;fill-opacity:1" /><rect
   x="-16.000019"
   y="120"
   width="8"
   height="8"
   id="rect188-0-1-1"
   transform="scale(-1,1)"
   style="fill:#d4aa00;fill-opacity:1" /><rect
   x="-16.000019"
   y="144"
   width="8"
   height="8"
   id="rect188-76-3-35"
   transform="scale(-1,1)"
   style="fill:#d4aa00;fill-opacity:1" /><rect
   x="-16.000019"
   y="136"
   width="8"
   height="8"
   id="rect188-03-7-0"
   transform="scale(-1,1)"
   style="fill:#d4aa00;fill-opacity:1" /><rect
   x="-16.000019"
   y="128"
   width="8"
   height="8"
   id="rect188-006-6-11"
   transform="scale(-1,1)"
   style="fill:#d4aa00;fill-opacity:1" /><rect
   x="-16.000019"
   y="152"
   width="8"
   height="8"
   id="rect188-82-4-39-6"
   transform="scale(-1,1)"
   style="fill:#d4aa00;fill-opacity:1" /><rect
   x="-8.0000191"
   y="136"
   width="8"
   height="8"
   id="rect188-76-3-3-9"
   transform="scale(-1,1)"
   style="fill:#483e37;fill-opacity:1" /><rect
   x="-8.0000191"
   y="128"
   width="8"
   height="8"
   id="rect188-03-7-2-3"
   transform="scale(-1,1)"
   style="fill:#483e37;fill-opacity:1" /><rect
   x="-8.0000191"
   y="120"
   width="8"
   height="8"
   id="rect188-006-6-7-5"
   transform="scale(-1,1)"
   style="fill:#483e37;fill-opacity:1" /><rect
   x="-8.0000191"
   y="144"
   width="8"
   height="8"
   id="rect188-82-4-39-0-8"
   transform="scale(-1,1)"
   style="fill:#483e37;fill-opacity:1" /><rect
   x="-8.0000191"
   y="152"
   width="8"
   height="8"
   id="rect188-82-4-39-8-9"
   transform="scale(-1,1)"
   style="fill:#483e37;fill-opacity:1" /><rect
   x="-88.03051"
   y="160.01311"
   width="8"
   height="8"
   id="rect188-742-3-9"
   transform="scale(-1,1)"
   style="fill:#d4aa00;fill-opacity:1" /><rect
   x="-96.000008"
   y="160"
   width="8"
   height="8"
   id="rect188-742-61-3"
   transform="scale(-1,1)"
   style="fill:#483e37;fill-opacity:1" /><rect
   x="-88.03051"
   y="168.01311"
   width="8"
   height="8"
   id="rect188-742-61-0-7"
   transform="scale(-1,1)"
   style="fill:#d4aa00;fill-opacity:1" /><rect
   x="-96.030495"
   y="168.01311"
   width="8"
   height="8"
   id="rect188-742-1-7-5"
   transform="scale(-1,1)"
   style="fill:#483e37;fill-opacity:1" /><rect
   x="-8.0304909"
   y="200.01311"
   width="8"
   height="8"
   id="rect188-742-0-1-6"
   transform="scale(-1,1)"
   style="fill:#483e37;fill-opacity:1" /><rect
   x="-16.030491"
   y="200.01311"
   width="8"
   height="8"
   id="rect188-742-64-2-1"
   transform="scale(-1,1)"
   style="fill:#d4aa00;fill-opacity:1" /><rect
   x="-8.0304909"
   y="208.01312"
   width="8"
   height="8"
   id="rect188-742-6-9-1-0"
   transform="scale(-1,1)"
   style="fill:#483e37;fill-opacity:1" /><rect
   x="-16.030491"
   y="208.01311"
   width="8"
   height="8"
   id="rect188-742-0-9-4-4"
   transform="scale(-1,1)"
   style="fill:#d4aa00;fill-opacity:1" /><rect
   x="-16.030491"
   y="176.01311"
   width="8"
   height="8"
   id="rect188-742-1-2-2-6"
   transform="scale(-1,1)"
   style="fill:#d4aa00;fill-opacity:1" /><rect
   x="-88.03051"
   y="176.01311"
   width="8"
   height="8"
   id="rect188-742-1-2-5-4"
   transform="scale(-1,1)"
   style="fill:#d4aa00;fill-opacity:1" /><rect
   x="-96.030495"
   y="176.01311"
   width="8"
   height="8"
   id="rect188-742-1-23-8"
   transform="scale(-1,1)"
   style="fill:#483e37;fill-opacity:1" /><rect
   x="-88.03051"
   y="184.01311"
   width="8"
   height="8"
   id="rect188-742-1-0-2"
   transform="scale(-1,1)"
   style="fill:#d4aa00;fill-opacity:1" /><rect
   x="-8.0304909"
   y="184.01311"
   width="8"
   height="8"
   id="rect188-742-1-2-2-4-7"
   transform="scale(-1,1)"
   style="fill:#483e37;fill-opacity:1" /><rect
   x="-88.03051"
   y="192.01311"
   width="8"
   height="8"
   id="rect188-742-1-25-8-3"
   transform="scale(-1,1)"
   style="fill:#d4aa00;fill-opacity:1" /><rect
   x="-88.03051"
   y="200.01312"
   width="8"
   height="8"
   id="rect188-742-1-25-0-5"
   transform="scale(-1,1)"
   style="fill:#d4aa00;fill-opacity:1" /><rect
   x="-8.0304909"
   y="192.01311"
   width="8"
   height="8"
   id="rect188-742-1-25-4-2"
   transform="scale(-1,1)"
   style="fill:#483e37;fill-opacity:1" /><rect
   x="-96.030495"
   y="184.01311"
   width="8"
   height="8"
   id="rect188-742-1-25-04-7"
   transform="scale(-1,1)"
   style="fill:#483e37;fill-opacity:1" /><rect
   x="-96.030495"
   y="192.01311"
   width="8"
   height="8"
   id="rect188-742-1-25-06-4"
   transform="scale(-1,1)"
   style="fill:#483e37;fill-opacity:1" /><rect
   x="-96.030495"
   y="200.01312"
   width="8"
   height="8"
   id="rect188-742-1-25-25-7"
   transform="scale(-1,1)"
   style="fill:#483e37;fill-opacity:1" /><rect
   x="-16.030491"
   y="192.01311"
   width="8"
   height="8"
   id="rect188-742-1-25-20-1"
   transform="scale(-1,1)"
   style="fill:#d4aa00;fill-opacity:1" /><rect
   x="-16.030491"
   y="184.01311"
   width="8"
   height="8"
   id="rect188-742-1-25-4-6-7"
   transform="scale(-1,1)"
   style="fill:#d4aa00;fill-opacity:1" /><rect
   x="-88.03051"
   y="208.01312"
   width="8"
   height="8"
   id="rect188-742-1-25-0-3-8"
   transform="scale(-1,1)"
   style="fill:#d4aa00;fill-opacity:1" /><rect
   x="-96.030495"
   y="208.01312"
   width="8"
   height="8"
   id="rect188-742-1-25-25-0-6"
   transform="scale(-1,1)"
   style="fill:#483e37;fill-opacity:1" /><rect
   x="-16.000019"
   y="160"
   width="8"
   height="8"
   id="rect188-742-9-2-7"
   transform="scale(-1,1)"
   style="fill:#d4aa00;fill-opacity:1" /><rect
   x="-16.000019"
   y="168"
   width="8"
   height="8"
   id="rect188-742-9-0-6"
   transform="scale(-1,1)"
   style="fill:#d4aa00;fill-opacity:1" /><rect
   x="-8.0000191"
   y="160"
   width="8"
   height="8"
   id="rect188-742-9-24-2"
   transform="scale(-1,1)"
   style="fill:#483e37;fill-opacity:1" /><rect
   x="-8.0000191"
   y="168"
   width="8"
   height="8"
   id="rect188-742-9-01-6"
   transform="scale(-1,1)"
   style="fill:#483e37;fill-opacity:1" /><rect
   x="-8.0000191"
   y="176"
   width="8"
   height="8"
   id="rect188-742-9-5-5"
   transform="scale(-1,1)"
   style="fill:#483e37;fill-opacity:1" /><rect
   x="-24.000011"
   y="56.000004"
   width="8"
   height="8"
   id="rect188-745"
   transform="scale(-1,1)"
   style="fill:#fff6d5;fill-opacity:1" /><rect
   x="-32.000015"
   y="56.000004"
   width="8"
   height="8"
   id="rect188-7-7"
   transform="scale(-1,1)"
   style="fill:#fff6d5;fill-opacity:1" /><rect
   x="-48.000008"
   y="56.000004"
   width="8"
   height="8"
   id="rect188-9-8"
   transform="scale(-1,1)"
   style="fill:#fff6d5;fill-opacity:1" /><rect
   x="-40.000015"
   y="56.000004"
   width="8"
   height="8"
   id="rect188-4-6"
   transform="scale(-1,1)"
   style="fill:#fff6d5;fill-opacity:1" /><rect
   x="-56.000015"
   y="56.000004"
   width="8"
   height="8"
   id="rect188-8-0"
   transform="scale(-1,1)"
   style="fill:#fff6d5;fill-opacity:1" /><rect
   x="-64.000015"
   y="56.000004"
   width="8"
   height="8"
   id="rect188-5-0"
   transform="scale(-1,1)"
   style="fill:#fff6d5;fill-opacity:1" /><rect
   x="-72"
   y="56.000004"
   width="8"
   height="8"
   id="rect188-3-5"
   transform="scale(-1,1)"
   style="fill:#fff6d5;fill-opacity:1" /><rect
   x="-80"
   y="56.000004"
   width="8"
   height="8"
   id="rect188-98-3"
   transform="scale(-1,1)"
   style="fill:#fff6d5;fill-opacity:1" /><rect
   x="-88"
   y="56.000004"
   width="8"
   height="8"
   id="rect188-42-7"
   transform="scale(-1,1)"
   style="fill:#fff6d5;fill-opacity:1" /><rect
   x="-16.000011"
   y="56.000004"
   width="8"
   height="8"
   id="rect188-1-1"
   transform="scale(-1,1)"
   style="fill:#fff6d5;fill-opacity:1" /><rect
   x="-8.0000114"
   y="56.000004"
   width="8"
   height="8"
   id="rect188-72-3"
   transform="scale(-1,1)"
   style="fill:#483e37;fill-opacity:1" /><rect
   x="-24.000004"
   y="48"
   width="8"
   height="8"
   id="rect188-687"
   transform="scale(-1,1)"
   style="fill:#fff6d5;fill-opacity:1" /><rect
   x="-32.000008"
   y="48"
   width="8"
   height="8"
   id="rect188-7-1"
   transform="scale(-1,1)"
   style="fill:#fff6d5;fill-opacity:1" /><rect
   x="-48"
   y="48"
   width="8"
   height="8"
   id="rect188-9-2"
   transform="scale(-1,1)"
   style="fill:#fff6d5;fill-opacity:1" /><rect
   x="-40.000008"
   y="48"
   width="8"
   height="8"
   id="rect188-4-0"
   transform="scale(-1,1)"
   style="fill:#fff6d5;fill-opacity:1" /><rect
   x="-56.000008"
   y="48"
   width="8"
   height="8"
   id="rect188-8-6"
   transform="scale(-1,1)"
   style="fill:#fff6d5;fill-opacity:1" /><rect
   x="-64.000015"
   y="48"
   width="8"
   height="8"
   id="rect188-5-7"
   transform="scale(-1,1)"
   style="fill:#fff6d5;fill-opacity:1" /><rect
   x="-72"
   y="48"
   width="8"
   height="8"
   id="rect188-3-6"
   transform="scale(-1,1)"
   style="fill:#fff6d5;fill-opacity:1" /><rect
   x="-80"
   y="48"
   width="8"
   height="8"
   id="rect188-98-7"
   transform="scale(-1,1)"
   style="fill:#fff6d5;fill-opacity:1" /><rect
   x="-88"
   y="48"
   width="8"
   height="8"
   id="rect188-42-74"
   transform="scale(-1,1)"
   style="fill:#fff6d5;fill-opacity:1" /><rect
   x="-16.000004"
   y="48"
   width="8"
   height="8"
   id="rect188-1-3"
   transform="scale(-1,1)"
   style="fill:#fff6d5;fill-opacity:1" /><rect
   x="-8.0000038"
   y="48"
   width="8"
   height="8"
   id="rect188-72-5"
   transform="scale(-1,1)"
   style="fill:#483e37;fill-opacity:1" /><rect
   x="-24.000004"
   y="40"
   width="8"
   height="8"
   id="rect188-95"
   transform="scale(-1,1)"
   style="fill:#fff6d5;fill-opacity:1" /><rect
   x="-32.000008"
   y="40"
   width="8"
   height="8"
   id="rect188-7-10"
   transform="scale(-1,1)"
   style="fill:#fff6d5;fill-opacity:1" /><rect
   x="-48"
   y="40"
   width="8"
   height="8"
   id="rect188-9-7"
   transform="scale(-1,1)"
   style="fill:#fff6d5;fill-opacity:1" /><rect
   x="-40.000008"
   y="40"
   width="8"
   height="8"
   id="rect188-4-8"
   transform="scale(-1,1)"
   style="fill:#fff6d5;fill-opacity:1" /><rect
   x="-56.000008"
   y="40"
   width="8"
   height="8"
   id="rect188-8-7"
   transform="scale(-1,1)"
   style="fill:#fff6d5;fill-opacity:1" /><rect
   x="-64.000015"
   y="40"
   width="8"
   height="8"
   id="rect188-5-02"
   transform="scale(-1,1)"
   style="fill:#fff6d5;fill-opacity:1" /><rect
   x="-72"
   y="40"
   width="8"
   height="8"
   id="rect188-3-1"
   transform="scale(-1,1)"
   style="fill:#fff6d5;fill-opacity:1" /><rect
   x="-80"
   y="40"
   width="8"
   height="8"
   id="rect188-98-4"
   transform="scale(-1,1)"
   style="fill:#fff6d5;fill-opacity:1" /><rect
   x="-88"
   y="40"
   width="8"
   height="8"
   id="rect188-42-5"
   transform="scale(-1,1)"
   style="fill:#fff6d5;fill-opacity:1" /><rect
   x="-16"
   y="40"
   width="8"
   height="8"
   id="rect188-1-5"
   transform="scale(-1,1)"
   style="fill:#fff6d5;fill-opacity:1" /><rect
   x="-8"
   y="40"
   width="8"
   height="8"
   id="rect188-72-59"
   transform="scale(-1,1)"
   style="fill:#483e37;fill-opacity:1" /><rect
   x="-24.000019"
   y="32"
   width="8"
   height="8"
   id="rect188-70"
   transform="scale(-1,1)"
   style="fill:#483e37;fill-opacity:1" /><rect
   x="-32.000023"
   y="32"
   width="8"
   height="8"
   id="rect188-7-4"
   transform="scale(-1,1)"
   style="fill:#483e37;fill-opacity:1" /><rect
   x="-48.000008"
   y="32"
   width="8"
   height="8"
   id="rect188-9-1"
   transform="scale(-1,1)"
   style="fill:#483e37;fill-opacity:1" /><rect
   x="-40.000023"
   y="32"
   width="8"
   height="8"
   id="rect188-4-7"
   transform="scale(-1,1)"
   style="fill:#483e37;fill-opacity:1" /><rect
   x="-56.000023"
   y="32"
   width="8"
   height="8"
   id="rect188-8-8"
   transform="scale(-1,1)"
   style="fill:#483e37;fill-opacity:1" /><rect
   x="-64.000023"
   y="32"
   width="8"
   height="8"
   id="rect188-5-1"
   transform="scale(-1,1)"
   style="fill:#483e37;fill-opacity:1" /><rect
   x="-72.000015"
   y="32"
   width="8"
   height="8"
   id="rect188-3-14"
   transform="scale(-1,1)"
   style="fill:#483e37;fill-opacity:1" /><rect
   x="-80.000015"
   y="32"
   width="8"
   height="8"
   id="rect188-98-1"
   transform="scale(-1,1)"
   style="fill:#483e37;fill-opacity:1" /><rect
   x="-88.000015"
   y="32"
   width="8"
   height="8"
   id="rect188-42-2"
   transform="scale(-1,1)"
   style="fill:#483e37;fill-opacity:1" /><rect
   x="-16.000019"
   y="32"
   width="8"
   height="8"
   id="rect188-1-0"
   transform="scale(-1,1)"
   style="fill:#483e37;fill-opacity:1" /><rect
   x="-8.0000191"
   y="32"
   width="8"
   height="8"
   id="rect188-72-33"
   transform="scale(-1,1)"
   style="fill:#483e37;fill-opacity:1" /><rect
   x="-24.000004"
   y="24"
   width="8"
   height="8"
   id="rect188-70-9"
   transform="scale(-1,1)"
   style="fill:#483e37;fill-opacity:1" /><rect
   x="-32.000008"
   y="24"
   width="8"
   height="8"
   id="rect188-7-4-8"
   transform="scale(-1,1)"
   style="fill:#483e37;fill-opacity:1" /><rect
   x="-47.999992"
   y="24"
   width="8"
   height="8"
   id="rect188-9-1-4"
   transform="scale(-1,1)"
   style="fill:#483e37;fill-opacity:1" /><rect
   x="-40.000008"
   y="24"
   width="8"
   height="8"
   id="rect188-4-7-1"
   transform="scale(-1,1)"
   style="fill:#483e37;fill-opacity:1" /><rect
   x="-56.000015"
   y="24"
   width="8"
   height="8"
   id="rect188-8-8-1"
   transform="scale(-1,1)"
   style="fill:#483e37;fill-opacity:1" /><rect
   x="-64.000015"
   y="24"
   width="8"
   height="8"
   id="rect188-5-1-9"
   transform="scale(-1,1)"
   style="fill:#483e37;fill-opacity:1" /><rect
   x="-72"
   y="24"
   width="8"
   height="8"
   id="rect188-3-14-0"
   transform="scale(-1,1)"
   style="fill:#483e37;fill-opacity:1" /><rect
   x="-80"
   y="24"
   width="8"
   height="8"
   id="rect188-98-1-8"
   transform="scale(-1,1)"
   style="fill:#483e37;fill-opacity:1" /><rect
   x="-88"
   y="24"
   width="8"
   height="8"
   id="rect188-42-2-0"
   transform="scale(-1,1)"
   style="fill:#483e37;fill-opacity:1" /><rect
   x="-16.000004"
   y="24"
   width="8"
   height="8"
   id="rect188-1-0-3"
   transform="scale(-1,1)"
   style="fill:#483e37;fill-opacity:1" /><rect
   x="-8.0000038"
   y="24"
   width="8"
   height="8"
   id="rect188-72-33-5"
   transform="scale(-1,1)"
   style="fill:#483e37;fill-opacity:1" /><rect
   x="-24.000008"
   y="16"
   width="8"
   height="8"
   id="rect188-95-9"
   transform="scale(-1,1)"
   style="fill:#483e37;fill-opacity:1" /><rect
   x="-32.000015"
   y="16"
   width="8"
   height="8"
   id="rect188-7-10-0"
   transform="scale(-1,1)"
   style="fill:#483e37;fill-opacity:1" /><rect
   x="-48"
   y="16"
   width="8"
   height="8"
   id="rect188-9-7-9"
   transform="scale(-1,1)"
   style="fill:#483e37;fill-opacity:1" /><rect
   x="-40.000015"
   y="16"
   width="8"
   height="8"
   id="rect188-4-8-0"
   transform="scale(-1,1)"
   style="fill:#483e37;fill-opacity:1" /><rect
   x="-56.000015"
   y="16"
   width="8"
   height="8"
   id="rect188-8-7-6"
   transform="scale(-1,1)"
   style="fill:#483e37;fill-opacity:1" /><rect
   x="-64.000015"
   y="16"
   width="8"
   height="8"
   id="rect188-5-02-0"
   transform="scale(-1,1)"
   style="fill:#483e37;fill-opacity:1" /><rect
   x="-72"
   y="16"
   width="8"
   height="8"
   id="rect188-3-1-6"
   transform="scale(-1,1)"
   style="fill:#483e37;fill-opacity:1" /><rect
   x="-80"
   y="16"
   width="8"
   height="8"
   id="rect188-98-4-5"
   transform="scale(-1,1)"
   style="fill:#483e37;fill-opacity:1" /><rect
   x="-88"
   y="16"
   width="8"
   height="8"
   id="rect188-42-5-9"
   transform="scale(-1,1)"
   style="fill:#483e37;fill-opacity:1" /><rect
   x="-16.000008"
   y="16"
   width="8"
   height="8"
   id="rect188-1-5-3"
   transform="scale(-1,1)"
   style="fill:#483e37;fill-opacity:1" /><rect
   x="-8.0000076"
   y="16"
   width="8"
   height="8"
   id="rect188-72-59-4"
   transform="scale(-1,1)"
   style="fill:#483e37;fill-opacity:1" /><rect
   x="-24.000023"
   y="8"
   width="8"
   height="8"
   id="rect188-70-1"
   transform="scale(-1,1)"
   style="fill:#483e37;fill-opacity:1" /><rect
   x="-32.000031"
   y="8"
   width="8"
   height="8"
   id="rect188-7-4-1"
   transform="scale(-1,1)"
   style="fill:#483e37;fill-opacity:1" /><rect
   x="-48.000015"
   y="8"
   width="8"
   height="8"
   id="rect188-9-1-9"
   transform="scale(-1,1)"
   style="fill:#483e37;fill-opacity:1" /><rect
   x="-40.000031"
   y="8"
   width="8"
   height="8"
   id="rect188-4-7-0"
   transform="scale(-1,1)"
   style="fill:#483e37;fill-opacity:1" /><rect
   x="-56.000031"
   y="8"
   width="8"
   height="8"
   id="rect188-8-8-0"
   transform="scale(-1,1)"
   style="fill:#483e37;fill-opacity:1" /><rect
   x="-64.000023"
   y="8"
   width="8"
   height="8"
   id="rect188-5-1-3"
   transform="scale(-1,1)"
   style="fill:#483e37;fill-opacity:1" /><rect
   x="-72.000015"
   y="8"
   width="8"
   height="8"
   id="rect188-3-14-1"
   transform="scale(-1,1)"
   style="fill:#483e37;fill-opacity:1" /><rect
   x="-80.000015"
   y="8"
   width="8"
   height="8"
   id="rect188-98-1-0"
   transform="scale(-1,1)"
   style="fill:#483e37;fill-opacity:1" /><rect
   x="-88.000015"
   y="8"
   width="8"
   height="8"
   id="rect188-42-2-00"
   transform="scale(-1,1)"
   style="fill:#483e37;fill-opacity:1" /><rect
   x="-16.000023"
   y="8"
   width="8"
   height="8"
   id="rect188-1-0-6"
   transform="scale(-1,1)"
   style="fill:#483e37;fill-opacity:1" /><rect
   x="-8.0000229"
   y="8"
   width="8"
   height="8"
   id="rect188-72-33-7"
   transform="scale(-1,1)"
   style="fill:#483e37;fill-opacity:1" /><rect
   x="-24.000008"
   y="0"
   width="8"
   height="8"
   id="rect188-70-9-4"
   transform="scale(-1,1)"
   style="fill:#483e37;fill-opacity:1" /><rect
   x="-32.000015"
   y="0"
   width="8"
   height="8"
   id="rect188-7-4-8-4"
   transform="scale(-1,1)"
   style="fill:#483e37;fill-opacity:1" /><rect
   x="-48"
   y="0"
   width="8"
   height="8"
   id="rect188-9-1-4-4"
   transform="scale(-1,1)"
   style="fill:#483e37;fill-opacity:1" /><rect
   x="-40.000015"
   y="0"
   width="8"
   height="8"
   id="rect188-4-7-1-6"
   transform="scale(-1,1)"
   style="fill:#483e37;fill-opacity:1" /><rect
   x="-56.000015"
   y="0"
   width="8"
   height="8"
   id="rect188-8-8-1-0"
   transform="scale(-1,1)"
   style="fill:#483e37;fill-opacity:1" /><rect
   x="-64.000015"
   y="0"
   width="8"
   height="8"
   id="rect188-5-1-9-2"
   transform="scale(-1,1)"
   style="fill:#483e37;fill-opacity:1" /><rect
   x="-72"
   y="0"
   width="8"
   height="8"
   id="rect188-3-14-0-9"
   transform="scale(-1,1)"
   style="fill:#483e37;fill-opacity:1" /><rect
   x="-80"
   y="0"
   width="8"
   height="8"
   id="rect188-98-1-8-1"
   transform="scale(-1,1)"
   style="fill:#483e37;fill-opacity:1" /><rect
   x="-88"
   y="0"
   width="8"
   height="8"
   id="rect188-42-2-0-3"
   transform="scale(-1,1)"
   style="fill:#483e37;fill-opacity:1" /><rect
   x="-16.000008"
   y="0"
   width="8"
   height="8"
   id="rect188-1-0-3-8"
   transform="scale(-1,1)"
   style="fill:#483e37;fill-opacity:1" /><rect
   x="-8.0000076"
   y="0"
   width="8"
   height="8"
   id="rect188-72-33-5-3"
   transform="scale(-1,1)"
   style="fill:#483e37;fill-opacity:1" /><rect
   x="-96"
   y="40"
   width="8"
   height="8"
   id="rect188-142-5"
   transform="scale(-1,1)"
   style="fill:#483e37;fill-opacity:1" /><rect
   x="-96"
   y="32"
   width="8"
   height="8"
   id="rect188-05-2"
   transform="scale(-1,1)"
   style="fill:#483e37;fill-opacity:1" /><rect
   x="-96"
   y="24"
   width="8"
   height="8"
   id="rect188-82-0"
   transform="scale(-1,1)"
   style="fill:#483e37;fill-opacity:1" /><rect
   x="-96"
   y="15.999985"
   width="8"
   height="8"
   id="rect188-76-2"
   transform="scale(-1,1)"
   style="fill:#483e37;fill-opacity:1" /><rect
   x="-96"
   y="8"
   width="8"
   height="8"
   id="rect188-03-9"
   transform="scale(-1,1)"
   style="fill:#483e37;fill-opacity:1" /><rect
   x="-96"
   y="63.999996"
   width="8"
   height="8"
   id="rect188-76-3-3-6"
   transform="scale(-1,1)"
   style="fill:#483e37;fill-opacity:1" /><rect
   x="-96"
   y="55.999996"
   width="8"
   height="8"
   id="rect188-03-7-2-34"
   transform="scale(-1,1)"
   style="fill:#483e37;fill-opacity:1" /><rect
   x="-96"
   y="47.999996"
   width="8"
   height="8"
   id="rect188-006-6-7-9"
   transform="scale(-1,1)"
   style="fill:#483e37;fill-opacity:1" /><rect
   x="-96"
   y="72"
   width="8"
   height="8"
   id="rect188-82-4-39-0-4"
   transform="scale(-1,1)"
   style="fill:#483e37;fill-opacity:1" /><rect
   x="-96.000015"
   y="0"
   width="8"
   height="8"
   id="rect188-03-9-0"
   transform="scale(-1,1)"
   style="fill:#483e37;fill-opacity:1" /></svg>
