<?xml version="1.0" encoding="UTF-8" standalone="no"?>
<!-- Generator: Adobe Illustrator 16.0.0, SVG Export Plug-In . SVG Version: 6.00 Build 0)  -->

<svg
   xmlns:dc="http://purl.org/dc/elements/1.1/"
   xmlns:cc="http://creativecommons.org/ns#"
   xmlns:rdf="http://www.w3.org/1999/02/22-rdf-syntax-ns#"
   xmlns:svg="http://www.w3.org/2000/svg"
   xmlns="http://www.w3.org/2000/svg"
   xmlns:sodipodi="http://sodipodi.sourceforge.net/DTD/sodipodi-0.dtd"
   xmlns:inkscape="http://www.inkscape.org/namespaces/inkscape"
   version="1.1"
   id="Layer_1"
   x="0px"
   y="0px"
   width="112.19852"
   height="151.9731"
   viewBox="0 0 112.19852 151.9731"
   enable-background="new 0 0 256 256"
   xml:space="preserve"
   sodipodi:docname="Switch.svg"
   inkscape:version="0.92.3 (2405546, 2018-03-11)"><metadata
   id="metadata215"><rdf:RDF><cc:Work
       rdf:about=""><dc:format>image/svg+xml</dc:format><dc:type
         rdf:resource="http://purl.org/dc/dcmitype/StillImage" /><dc:title></dc:title></cc:Work></rdf:RDF></metadata><defs
   id="defs213" /><sodipodi:namedview
   pagecolor="#ffffff"
   bordercolor="#666666"
   borderopacity="1"
   objecttolerance="10"
   gridtolerance="10"
   guidetolerance="10"
   inkscape:pageopacity="0"
   inkscape:pageshadow="2"
   inkscape:window-width="1920"
   inkscape:window-height="1013"
   id="namedview211"
   showgrid="false"
   inkscape:zoom="1.8437501"
   inkscape:cx="-70.671947"
   inkscape:cy="65.935989"
   inkscape:window-x="-9"
   inkscape:window-y="29"
   inkscape:window-maximized="1"
   inkscape:current-layer="Layer_1"
   inkscape:pagecheckerboard="true"
   fit-margin-top="0"
   fit-margin-left="0"
   fit-margin-right="0"
   fit-margin-bottom="0"
   inkscape:snap-others="false"><inkscape:grid
     type="xygrid"
     id="grid4725"
     originx="-61.21113"
     originy="-97.260575" /></sodipodi:namedview>








































































































<rect
   x="-64.198502"
   y="40"
   width="8"
   height="8"
   id="rect188-82-4-3-7-2-4-6-5-15-9"
   transform="scale(-1,1)"
   style="fill:#ffffff;fill-opacity:1" /><rect
   x="-72.198502"
   y="48"
   width="8"
   height="8"
   id="rect188-82-4-3-7-2-4-6-5-15-2"
   transform="scale(-1,1)"
   style="fill:#ffffff;fill-opacity:1" /><rect
   x="-80.198502"
   y="40"
   width="8"
   height="8"
   id="rect188-82-4-3-7-2-4-6-5-15-1"
   transform="scale(-1,1)"
   style="fill:#ffffff;fill-opacity:1" /><rect
   x="-112.19852"
   y="64"
   width="8"
   height="8"
   id="rect188-82-4-3-7-2-4-6-5-15-87"
   transform="scale(-1,1)"
   style="fill:#ffffff;fill-opacity:1" /><rect
   x="-104.1985"
   y="72"
   width="8"
   height="8"
   id="rect188-82-4-3-7-2-4-6-5-15-5"
   transform="scale(-1,1)"
   style="fill:#ffffff;fill-opacity:1" /><rect
   x="-64.198502"
   y="80"
   width="8"
   height="8"
   id="rect188-82-4-3-7-2-4-6-5-15-00"
   transform="scale(-1,1)"
   style="fill:#ffffff;fill-opacity:1" /><rect
   x="-16.198502"
   y="40"
   width="8"
   height="8"
   id="rect188-82-4-3-7-2-4-6-5-15-72"
   transform="scale(-1,1)"
   style="fill:#ffffff;fill-opacity:1" /><rect
   x="-16.198502"
   y="48"
   width="8"
   height="8"
   id="rect188-82-4-3-7-2-4-6-5-15-28"
   transform="scale(-1,1)"
   style="fill:#ffffff;fill-opacity:1" /><rect
   x="-24.198502"
   y="56"
   width="8"
   height="8"
   id="rect188-82-4-3-7-2-4-6-5-15-90"
   transform="scale(-1,1)"
   style="fill:#ffffff;fill-opacity:1" /><rect
   x="-32.198502"
   y="64"
   width="8"
   height="8"
   id="rect188-82-4-3-7-2-4-6-5-15-81"
   transform="scale(-1,1)"
   style="fill:#ffffff;fill-opacity:1" /><rect
   x="-40.198498"
   y="72"
   width="8"
   height="8"
   id="rect188-82-4-3-7-2-4-6-5-15-04"
   transform="scale(-1,1)"
   style="fill:#ffffff;fill-opacity:1" /><rect
   x="-24.198502"
   y="40"
   width="8"
   height="8"
   id="rect188-82-4-3-7-6-0"
   transform="scale(-1,1)"
   style="fill:#ffffff;fill-opacity:1" /><rect
   x="-24.198502"
   y="48"
   width="8"
   height="8"
   id="rect188-82-4-3-7-6-68"
   transform="scale(-1,1)"
   style="fill:#ffffff;fill-opacity:1" /><rect
   x="-32.198502"
   y="56.000008"
   width="8"
   height="8"
   id="rect188-82-4-3-7-6-2"
   transform="scale(-1,1)"
   style="fill:#ffffff;fill-opacity:1" /><rect
   x="-40.198498"
   y="64"
   width="8"
   height="8"
   id="rect188-82-4-3-7-6-1"
   transform="scale(-1,1)"
   style="fill:#000000;fill-opacity:1" /><rect
   x="-48.198498"
   y="72"
   width="8"
   height="8"
   id="rect188-82-4-3-7-6-41"
   transform="scale(-1,1)"
   style="fill:#ffffff;fill-opacity:1" /><rect
   x="-24.198502"
   y="80"
   width="8"
   height="8"
   id="rect188-82-4-3-7-6-65"
   transform="scale(-1,1)"
   style="fill:#000000;fill-opacity:1" /><rect
   x="-56.198498"
   y="40"
   width="8"
   height="8"
   id="rect188-82-4-3-7-6-02"
   transform="scale(-1,1)"
   style="fill:#ffffff;fill-opacity:1" /><rect
   x="-64.198502"
   y="48"
   width="8"
   height="8"
   id="rect188-82-4-3-7-6-9"
   transform="scale(-1,1)"
   style="fill:#ffffff;fill-opacity:1" /><rect
   x="-72.198502"
   y="56"
   width="8"
   height="8"
   id="rect188-82-4-3-7-6-5"
   transform="scale(-1,1)"
   style="fill:#ffffff;fill-opacity:1" /><rect
   x="-80.198502"
   y="48"
   width="8"
   height="8"
   id="rect188-82-4-3-7-6-7"
   transform="scale(-1,1)"
   style="fill:#ffffff;fill-opacity:1" /><rect
   x="-88.198502"
   y="40"
   width="8"
   height="8"
   id="rect188-82-4-3-7-6-8"
   transform="scale(-1,1)"
   style="fill:#000000;fill-opacity:1" /><rect
   x="-112.19852"
   y="56"
   width="8"
   height="8"
   id="rect188-82-4-3-7-6-020"
   transform="scale(-1,1)"
   style="fill:#ffffff;fill-opacity:1" /><rect
   x="-104.1985"
   y="64"
   width="8"
   height="8"
   id="rect188-82-4-3-7-6-26"
   transform="scale(-1,1)"
   style="fill:#ffffff;fill-opacity:1" /><rect
   x="-96.198502"
   y="72"
   width="8"
   height="8"
   id="rect188-82-4-3-7-6-60"
   transform="scale(-1,1)"
   style="fill:#ffffff;fill-opacity:1" /><rect
   x="-56.198498"
   y="80"
   width="8"
   height="8"
   id="rect188-82-4-3-7-6-76"
   transform="scale(-1,1)"
   style="fill:#ffffff;fill-opacity:1" /><rect
   x="-80.198502"
   y="56"
   width="8"
   height="8"
   id="rect188-82-4-3-7-6-23"
   transform="scale(-1,1)"
   style="fill:#ffffff;fill-opacity:1" /><rect
   x="-88.198502"
   y="48"
   width="8"
   height="8"
   id="rect188-82-4-3-7-6-23-8"
   transform="scale(-1,1)"
   style="fill:#000000;fill-opacity:1" /><rect
   x="-96.198502"
   y="40"
   width="8"
   height="8"
   id="rect188-82-4-3-7-6-23-0"
   transform="scale(-1,1)"
   style="fill:#ffffff;fill-opacity:1" /><rect
   x="-104.1985"
   y="40"
   width="8"
   height="8"
   id="rect188-82-4-3-7-6-23-9"
   transform="scale(-1,1)"
   style="fill:#ffffff;fill-opacity:1" /><rect
   x="-112.19852"
   y="40"
   width="8"
   height="8"
   id="rect188-82-4-3-7-6-23-3"
   transform="scale(-1,1)"
   style="fill:#ffffff;fill-opacity:1" /><rect
   x="-112.19852"
   y="48"
   width="8"
   height="8"
   id="rect188-82-4-3-7-6-23-82"
   transform="scale(-1,1)"
   style="fill:#ffffff;fill-opacity:1" /><rect
   x="-104.1985"
   y="56.000008"
   width="8"
   height="8"
   id="rect188-82-4-3-7-6-23-80"
   transform="scale(-1,1)"
   style="fill:#ffffff;fill-opacity:1" /><rect
   x="-96.198502"
   y="64"
   width="8"
   height="8"
   id="rect188-82-4-3-7-6-23-4"
   transform="scale(-1,1)"
   style="fill:#ffffff;fill-opacity:1" /><rect
   x="-88.198502"
   y="72"
   width="8"
   height="8"
   id="rect188-82-4-3-7-6-23-05"
   transform="scale(-1,1)"
   style="fill:#000000;fill-opacity:1" /><rect
   x="-48.198498"
   y="80"
   width="8"
   height="8"
   id="rect188-82-4-3-7-6-23-1"
   transform="scale(-1,1)"
   style="fill:#ffffff;fill-opacity:1" /><rect
   x="-64.198502"
   y="56"
   width="8"
   height="8"
   id="rect188-82-4-3-7-6-23-11"
   transform="scale(-1,1)"
   style="fill:#ffffff;fill-opacity:1" /><rect
   x="-56.198498"
   y="48"
   width="8"
   height="8"
   id="rect188-82-4-3-7-6-23-86"
   transform="scale(-1,1)"
   style="fill:#ffffff;fill-opacity:1" /><rect
   x="-48.198498"
   y="40"
   width="8"
   height="8"
   id="rect188-82-4-3-7-6-23-41"
   transform="scale(-1,1)"
   style="fill:#ffffff;fill-opacity:1" /><rect
   x="-40.198498"
   y="40"
   width="8"
   height="8"
   id="rect188-82-4-3-7-6-23-43"
   transform="scale(-1,1)"
   style="fill:#000000;fill-opacity:1" /><rect
   x="-32.198502"
   y="40"
   width="8"
   height="8"
   id="rect188-82-4-3-7-6-23-45"
   transform="scale(-1,1)"
   style="fill:#ffffff;fill-opacity:1" /><rect
   x="-32.198502"
   y="48"
   width="8"
   height="8"
   id="rect188-82-4-3-7-6-23-49"
   transform="scale(-1,1)"
   style="fill:#ffffff;fill-opacity:1" /><rect
   x="-40.198498"
   y="56"
   width="8"
   height="8"
   id="rect188-82-4-3-7-6-23-67"
   transform="scale(-1,1)"
   style="fill:#000000;fill-opacity:1" /><rect
   x="-48.198498"
   y="64"
   width="8"
   height="8"
   id="rect188-82-4-3-7-6-23-38"
   transform="scale(-1,1)"
   style="fill:#ffffff;fill-opacity:1" /><rect
   x="-56.198498"
   y="72"
   width="8"
   height="8"
   id="rect188-82-4-3-7-6-23-7"
   transform="scale(-1,1)"
   style="fill:#ffffff;fill-opacity:1" /><rect
   x="-32.198502"
   y="80"
   width="8"
   height="8"
   id="rect188-82-4-3-7-6-23-414"
   transform="scale(-1,1)"
   style="fill:#ffffff;fill-opacity:1" /><rect
   x="-72.198502"
   y="64"
   width="8"
   height="8"
   id="rect188-82-4-3-7-6-23-12"
   transform="scale(-1,1)"
   style="fill:#ffffff;fill-opacity:1" /><rect
   x="-40.198498"
   y="48"
   width="8"
   height="8"
   id="rect188-82-4-3-7-6-23-19"
   transform="scale(-1,1)"
   style="fill:#000000;fill-opacity:1" /><rect
   x="-48.198498"
   y="48"
   width="8"
   height="8"
   id="rect188-82-4-3-7-6-23-19-9"
   transform="scale(-1,1)"
   style="fill:#ffffff;fill-opacity:1" /><rect
   x="-48.198498"
   y="56"
   width="8"
   height="8"
   id="rect188-82-4-3-7-6-23-19-8"
   transform="scale(-1,1)"
   style="fill:#ffffff;fill-opacity:1" /><rect
   x="-56.198498"
   y="56"
   width="8"
   height="8"
   id="rect188-82-4-3-7-6-23-19-3"
   transform="scale(-1,1)"
   style="fill:#ffffff;fill-opacity:1" /><rect
   x="-56.198498"
   y="64"
   width="8"
   height="8"
   id="rect188-82-4-3-7-6-23-19-5"
   transform="scale(-1,1)"
   style="fill:#ffffff;fill-opacity:1" /><rect
   x="-64.198502"
   y="64"
   width="8"
   height="8"
   id="rect188-82-4-3-7-6-23-19-80"
   transform="scale(-1,1)"
   style="fill:#ffffff;fill-opacity:1" /><rect
   x="-64.198502"
   y="72"
   width="8"
   height="8"
   id="rect188-82-4-3-7-6-23-19-30"
   transform="scale(-1,1)"
   style="fill:#ffffff;fill-opacity:1" /><rect
   x="-72.198502"
   y="72"
   width="8"
   height="8"
   id="rect188-82-4-3-7-6-23-19-91"
   transform="scale(-1,1)"
   style="fill:#ffffff;fill-opacity:1" /><rect
   x="-40.198498"
   y="80"
   width="8"
   height="8"
   id="rect188-82-4-3-7-6-23-19-36"
   transform="scale(-1,1)"
   style="fill:#ffffff;fill-opacity:1" /><rect
   x="-80.198502"
   y="72"
   width="8"
   height="8"
   id="rect188-82-4-3-7-6-23-19-39"
   transform="scale(-1,1)"
   style="fill:#000000;fill-opacity:1" /><rect
   x="-80.198502"
   y="64"
   width="8"
   height="8"
   id="rect188-82-4-3-7-6-23-19-1"
   transform="scale(-1,1)"
   style="fill:#ffffff;fill-opacity:1" /><rect
   x="-88.198502"
   y="64"
   width="8"
   height="8"
   id="rect188-82-4-3-7-6-23-19-2"
   transform="scale(-1,1)"
   style="fill:#000000;fill-opacity:1" /><rect
   x="-88.198502"
   y="56"
   width="8"
   height="8"
   id="rect188-82-4-3-7-6-23-19-14"
   transform="scale(-1,1)"
   style="fill:#000000;fill-opacity:1" /><rect
   x="-96.198502"
   y="56"
   width="8"
   height="8"
   id="rect188-82-4-3-7-6-23-19-7"
   transform="scale(-1,1)"
   style="fill:#ffffff;fill-opacity:1" /><rect
   x="-96.198502"
   y="48"
   width="8"
   height="8"
   id="rect188-82-4-3-7-6-23-19-17"
   transform="scale(-1,1)"
   style="fill:#ffffff;fill-opacity:1" /><rect
   x="-104.1985"
   y="48.000008"
   width="8"
   height="8"
   id="rect188-82-4-3-7-6-23-19-54"
   transform="scale(-1,1)"
   style="fill:#ffffff;fill-opacity:1" /><rect
   x="-16.198502"
   y="56"
   width="8"
   height="8"
   id="rect188-82-4-3-7-2-4-6-5-15-72-1"
   transform="scale(-1,1)"
   style="fill:#ffffff;fill-opacity:1" /><rect
   x="-16.198502"
   y="64"
   width="8"
   height="8"
   id="rect188-82-4-3-7-2-4-6-5-15-28-5"
   transform="scale(-1,1)"
   style="fill:#ffffff;fill-opacity:1" /><rect
   x="-24.198502"
   y="64"
   width="8"
   height="8"
   id="rect188-82-4-3-7-2-4-6-5-15-72-6"
   transform="scale(-1,1)"
   style="fill:#ffffff;fill-opacity:1" /><rect
   x="-24.198502"
   y="72"
   width="8"
   height="8"
   id="rect188-82-4-3-7-2-4-6-5-15-28-9"
   transform="scale(-1,1)"
   style="fill:#ffffff;fill-opacity:1" /><rect
   x="-112.19852"
   y="72"
   width="8"
   height="8"
   id="rect188-82-4-3-7-2-4-6-5-15-72-4-7"
   transform="scale(-1,1)"
   style="fill:#ffffff;fill-opacity:1" /><rect
   x="-32.198502"
   y="72"
   width="8"
   height="8"
   id="rect188-82-4-3-7-2-4-6-5-15-72-4-73"
   transform="scale(-1,1)"
   style="fill:#000000;fill-opacity:1" /><rect
   x="-16.198502"
   y="72"
   width="8"
   height="8"
   id="rect188-82-4-3-7-2-4-6-5-15-72-4-73-3"
   transform="scale(-1,1)"
   style="fill:#ffffff;fill-opacity:1" /><rect
   x="-72.198502"
   y="80"
   width="8"
   height="8"
   id="rect188-82-4-3-7-2-4-6-5-15-59-6"
   transform="scale(-1,1)"
   style="fill:#000000;fill-opacity:1" /><rect
   x="-80.198502"
   y="80"
   width="8"
   height="8"
   id="rect188-82-4-3-7-6-65-9"
   transform="scale(-1,1)"
   style="fill:#ffffff;fill-opacity:1" /><rect
   x="-112.19849"
   y="80"
   width="8"
   height="8"
   id="rect188-82-4-3-7-6-76-3"
   transform="scale(-1,1)"
   style="fill:#ffffff;fill-opacity:1" /><rect
   x="-104.19849"
   y="80"
   width="8"
   height="8"
   id="rect188-82-4-3-7-6-23-1-7"
   transform="scale(-1,1)"
   style="fill:#ffffff;fill-opacity:1" /><rect
   x="-88.198502"
   y="80"
   width="8"
   height="8"
   id="rect188-82-4-3-7-6-23-414-3"
   transform="scale(-1,1)"
   style="fill:#000000;fill-opacity:1" /><rect
   x="-96.198502"
   y="80"
   width="8"
   height="8"
   id="rect188-82-4-3-7-6-23-19-36-4"
   transform="scale(-1,1)"
   style="fill:#ffffff;fill-opacity:1" /><rect
   x="-72.198502"
   y="40"
   width="8"
   height="8"
   id="rect188-82-4-3-7-2-4-6-5-15-1-6"
   transform="scale(-1,1)"
   style="fill:#ffffff;fill-opacity:1" /><rect
   x="-64.198502"
   y="32"
   width="8"
   height="8"
   id="rect188-82-4-3-7-2-4-6-5-15-00-4"
   transform="scale(-1,1)"
   style="fill:#ffffff;fill-opacity:1" /><rect
   x="-16.19849"
   y="32"
   width="8"
   height="8"
   id="rect188-82-4-3-7-2-4-6-5-15-59-68"
   transform="scale(-1,1)"
   style="fill:#ffffff;fill-opacity:1" /><rect
   x="-24.19849"
   y="32"
   width="8"
   height="8"
   id="rect188-82-4-3-7-6-65-2"
   transform="scale(-1,1)"
   style="fill:#ffffff;fill-opacity:1" /><rect
   x="-56.19849"
   y="32"
   width="8"
   height="8"
   id="rect188-82-4-3-7-6-76-6"
   transform="scale(-1,1)"
   style="fill:#ffffff;fill-opacity:1" /><rect
   x="-48.19849"
   y="32"
   width="8"
   height="8"
   id="rect188-82-4-3-7-6-23-1-9"
   transform="scale(-1,1)"
   style="fill:#ffffff;fill-opacity:1" /><rect
   x="-32.19849"
   y="32"
   width="8"
   height="8"
   id="rect188-82-4-3-7-6-23-414-4"
   transform="scale(-1,1)"
   style="fill:#ffffff;fill-opacity:1" /><rect
   x="-40.19849"
   y="32"
   width="8"
   height="8"
   id="rect188-82-4-3-7-6-23-19-36-5"
   transform="scale(-1,1)"
   style="fill:#000000;fill-opacity:1" /><rect
   x="-72.198502"
   y="32"
   width="8"
   height="8"
   id="rect188-82-4-3-7-2-4-6-5-15-59-6-6"
   transform="scale(-1,1)"
   style="fill:#ffffff;fill-opacity:1" /><rect
   x="-80.198502"
   y="32"
   width="8"
   height="8"
   id="rect188-82-4-3-7-6-65-9-0"
   transform="scale(-1,1)"
   style="fill:#ffffff;fill-opacity:1" /><rect
   x="-112.19847"
   y="32"
   width="8"
   height="8"
   id="rect188-82-4-3-7-6-76-3-29"
   transform="scale(-1,1)"
   style="fill:#ffffff;fill-opacity:1" /><rect
   x="-104.19849"
   y="32"
   width="8"
   height="8"
   id="rect188-82-4-3-7-6-23-1-7-7"
   transform="scale(-1,1)"
   style="fill:#ffffff;fill-opacity:1" /><rect
   x="-88.198502"
   y="32"
   width="8"
   height="8"
   id="rect188-82-4-3-7-6-23-414-3-9"
   transform="scale(-1,1)"
   style="fill:#000000;fill-opacity:1" /><rect
   x="-96.198502"
   y="32"
   width="8"
   height="8"
   id="rect188-82-4-3-7-6-23-19-36-4-9"
   transform="scale(-1,1)"
   style="fill:#ffffff;fill-opacity:1" /><rect
   x="-112.19852"
   y="8"
   width="8"
   height="8"
   id="rect188-82-4-3-7-2-4-6-5-15-87-6"
   transform="scale(-1,1)"
   style="fill:#ffffff;fill-opacity:1" /><rect
   x="-104.1985"
   y="15.999999"
   width="8"
   height="8"
   id="rect188-82-4-3-7-2-4-6-5-15-5-8"
   transform="scale(-1,1)"
   style="fill:#ffffff;fill-opacity:1" /><rect
   x="-64.198502"
   y="24.000002"
   width="8"
   height="8"
   id="rect188-82-4-3-7-2-4-6-5-15-00-26"
   transform="scale(-1,1)"
   style="fill:#000000;fill-opacity:1" /><rect
   x="-24.198494"
   y="0"
   width="8"
   height="8"
   id="rect188-82-4-3-7-2-4-6-5-15-90-9"
   transform="scale(-1,1)"
   style="fill:#ffffff;fill-opacity:1" /><rect
   x="-32.198494"
   y="8"
   width="8"
   height="8"
   id="rect188-82-4-3-7-2-4-6-5-15-81-2"
   transform="scale(-1,1)"
   style="fill:#ffffff;fill-opacity:1" /><rect
   x="-40.19849"
   y="15.999999"
   width="8"
   height="8"
   id="rect188-82-4-3-7-2-4-6-5-15-04-6"
   transform="scale(-1,1)"
   style="fill:#ffffff;fill-opacity:1" /><rect
   x="-16.198494"
   y="24.000002"
   width="8"
   height="8"
   id="rect188-82-4-3-7-2-4-6-5-15-59-9"
   transform="scale(-1,1)"
   style="fill:#ffffff;fill-opacity:1" /><rect
   x="-32.198494"
   y="7.6293945e-006"
   width="8"
   height="8"
   id="rect188-82-4-3-7-6-2-5"
   transform="scale(-1,1)"
   style="fill:#ffffff;fill-opacity:1" /><rect
   x="-40.19849"
   y="8"
   width="8"
   height="8"
   id="rect188-82-4-3-7-6-1-8"
   transform="scale(-1,1)"
   style="fill:#ffffff;fill-opacity:1" /><rect
   x="-48.19849"
   y="15.999999"
   width="8"
   height="8"
   id="rect188-82-4-3-7-6-41-6"
   transform="scale(-1,1)"
   style="fill:#ffffff;fill-opacity:1" /><rect
   x="-24.198494"
   y="24.000002"
   width="8"
   height="8"
   id="rect188-82-4-3-7-6-65-0"
   transform="scale(-1,1)"
   style="fill:#ffffff;fill-opacity:1" /><rect
   x="-72.198502"
   y="0"
   width="8"
   height="8"
   id="rect188-82-4-3-7-6-5-3"
   transform="scale(-1,1)"
   style="fill:#ffffff;fill-opacity:1" /><rect
   x="-112.19852"
   y="0"
   width="8"
   height="8"
   id="rect188-82-4-3-7-6-020-7"
   transform="scale(-1,1)"
   style="fill:#ffffff;fill-opacity:1" /><rect
   x="-104.1985"
   y="8"
   width="8"
   height="8"
   id="rect188-82-4-3-7-6-26-4"
   transform="scale(-1,1)"
   style="fill:#ffffff;fill-opacity:1" /><rect
   x="-96.198502"
   y="15.999999"
   width="8"
   height="8"
   id="rect188-82-4-3-7-6-60-4"
   transform="scale(-1,1)"
   style="fill:#ffffff;fill-opacity:1" /><rect
   x="-56.19849"
   y="24.000002"
   width="8"
   height="8"
   id="rect188-82-4-3-7-6-76-9"
   transform="scale(-1,1)"
   style="fill:#000000;fill-opacity:1" /><rect
   x="-80.198502"
   y="0"
   width="8"
   height="8"
   id="rect188-82-4-3-7-6-23-81"
   transform="scale(-1,1)"
   style="fill:#ffffff;fill-opacity:1" /><rect
   x="-104.1985"
   y="7.6293945e-006"
   width="8"
   height="8"
   id="rect188-82-4-3-7-6-23-80-5"
   transform="scale(-1,1)"
   style="fill:#ffffff;fill-opacity:1" /><rect
   x="-96.198502"
   y="8"
   width="8"
   height="8"
   id="rect188-82-4-3-7-6-23-4-4"
   transform="scale(-1,1)"
   style="fill:#ffffff;fill-opacity:1" /><rect
   x="-88.198502"
   y="15.999999"
   width="8"
   height="8"
   id="rect188-82-4-3-7-6-23-05-8"
   transform="scale(-1,1)"
   style="fill:#ffffff;fill-opacity:1" /><rect
   x="-48.19849"
   y="24.000002"
   width="8"
   height="8"
   id="rect188-82-4-3-7-6-23-1-8"
   transform="scale(-1,1)"
   style="fill:#000000;fill-opacity:1" /><rect
   x="-64.198502"
   y="0"
   width="8"
   height="8"
   id="rect188-82-4-3-7-6-23-11-6"
   transform="scale(-1,1)"
   style="fill:#ffffff;fill-opacity:1" /><rect
   x="-40.19849"
   y="0"
   width="8"
   height="8"
   id="rect188-82-4-3-7-6-23-67-8"
   transform="scale(-1,1)"
   style="fill:#ffffff;fill-opacity:1" /><rect
   x="-48.19849"
   y="8"
   width="8"
   height="8"
   id="rect188-82-4-3-7-6-23-38-2"
   transform="scale(-1,1)"
   style="fill:#ffffff;fill-opacity:1" /><rect
   x="-56.19849"
   y="15.999999"
   width="8"
   height="8"
   id="rect188-82-4-3-7-6-23-7-0"
   transform="scale(-1,1)"
   style="fill:#ffffff;fill-opacity:1" /><rect
   x="-32.198494"
   y="24.000002"
   width="8"
   height="8"
   id="rect188-82-4-3-7-6-23-414-0"
   transform="scale(-1,1)"
   style="fill:#ffffff;fill-opacity:1" /><rect
   x="-72.198502"
   y="8"
   width="8"
   height="8"
   id="rect188-82-4-3-7-6-23-12-7"
   transform="scale(-1,1)"
   style="fill:#ffffff;fill-opacity:1" /><rect
   x="-48.19849"
   y="0"
   width="8"
   height="8"
   id="rect188-82-4-3-7-6-23-19-8-3"
   transform="scale(-1,1)"
   style="fill:#ffffff;fill-opacity:1" /><rect
   x="-56.19849"
   y="0"
   width="8"
   height="8"
   id="rect188-82-4-3-7-6-23-19-3-6"
   transform="scale(-1,1)"
   style="fill:#ffffff;fill-opacity:1" /><rect
   x="-56.19849"
   y="8"
   width="8"
   height="8"
   id="rect188-82-4-3-7-6-23-19-5-3"
   transform="scale(-1,1)"
   style="fill:#ffffff;fill-opacity:1" /><rect
   x="-64.198502"
   y="8"
   width="8"
   height="8"
   id="rect188-82-4-3-7-6-23-19-80-5"
   transform="scale(-1,1)"
   style="fill:#ffffff;fill-opacity:1" /><rect
   x="-64.198502"
   y="15.999999"
   width="8"
   height="8"
   id="rect188-82-4-3-7-6-23-19-30-6"
   transform="scale(-1,1)"
   style="fill:#ffffff;fill-opacity:1" /><rect
   x="-72.198502"
   y="15.999999"
   width="8"
   height="8"
   id="rect188-82-4-3-7-6-23-19-91-3"
   transform="scale(-1,1)"
   style="fill:#ffffff;fill-opacity:1" /><rect
   x="-40.19849"
   y="24.000002"
   width="8"
   height="8"
   id="rect188-82-4-3-7-6-23-19-36-43"
   transform="scale(-1,1)"
   style="fill:#000000;fill-opacity:1" /><rect
   x="-80.198502"
   y="15.999999"
   width="8"
   height="8"
   id="rect188-82-4-3-7-6-23-19-39-8"
   transform="scale(-1,1)"
   style="fill:#ffffff;fill-opacity:1" /><rect
   x="-80.198502"
   y="8"
   width="8"
   height="8"
   id="rect188-82-4-3-7-6-23-19-1-8"
   transform="scale(-1,1)"
   style="fill:#ffffff;fill-opacity:1" /><rect
   x="-88.198502"
   y="8"
   width="8"
   height="8"
   id="rect188-82-4-3-7-6-23-19-2-4"
   transform="scale(-1,1)"
   style="fill:#ffffff;fill-opacity:1" /><rect
   x="-88.198502"
   y="0"
   width="8"
   height="8"
   id="rect188-82-4-3-7-6-23-19-14-9"
   transform="scale(-1,1)"
   style="fill:#ffffff;fill-opacity:1" /><rect
   x="-96.198502"
   y="0"
   width="8"
   height="8"
   id="rect188-82-4-3-7-6-23-19-7-3"
   transform="scale(-1,1)"
   style="fill:#ffffff;fill-opacity:1" /><rect
   x="-16.198494"
   y="0"
   width="8"
   height="8"
   id="rect188-82-4-3-7-2-4-6-5-15-72-1-6"
   transform="scale(-1,1)"
   style="fill:#ffffff;fill-opacity:1" /><rect
   x="-16.198494"
   y="8"
   width="8"
   height="8"
   id="rect188-82-4-3-7-2-4-6-5-15-28-5-0"
   transform="scale(-1,1)"
   style="fill:#ffffff;fill-opacity:1" /><rect
   x="-24.198494"
   y="8"
   width="8"
   height="8"
   id="rect188-82-4-3-7-2-4-6-5-15-72-6-1"
   transform="scale(-1,1)"
   style="fill:#ffffff;fill-opacity:1" /><rect
   x="-24.198494"
   y="15.999999"
   width="8"
   height="8"
   id="rect188-82-4-3-7-2-4-6-5-15-28-9-4"
   transform="scale(-1,1)"
   style="fill:#ffffff;fill-opacity:1" /><rect
   x="-112.19852"
   y="15.999999"
   width="8"
   height="8"
   id="rect188-82-4-3-7-2-4-6-5-15-72-4-7-9"
   transform="scale(-1,1)"
   style="fill:#ffffff;fill-opacity:1" /><rect
   x="-32.198494"
   y="15.999999"
   width="8"
   height="8"
   id="rect188-82-4-3-7-2-4-6-5-15-72-4-73-7"
   transform="scale(-1,1)"
   style="fill:#ffffff;fill-opacity:1" /><rect
   x="-16.198494"
   y="15.999999"
   width="8"
   height="8"
   id="rect188-82-4-3-7-2-4-6-5-15-72-4-73-3-6"
   transform="scale(-1,1)"
   style="fill:#ffffff;fill-opacity:1" /><rect
   x="-72.198502"
   y="24.000002"
   width="8"
   height="8"
   id="rect188-82-4-3-7-2-4-6-5-15-59-6-7"
   transform="scale(-1,1)"
   style="fill:#000000;fill-opacity:1" /><rect
   x="-80.198502"
   y="24.000002"
   width="8"
   height="8"
   id="rect188-82-4-3-7-6-65-9-4"
   transform="scale(-1,1)"
   style="fill:#000000;fill-opacity:1" /><rect
   x="-112.19849"
   y="24.000002"
   width="8"
   height="8"
   id="rect188-82-4-3-7-6-76-3-1"
   transform="scale(-1,1)"
   style="fill:#ffffff;fill-opacity:1" /><rect
   x="-104.19849"
   y="24.000002"
   width="8"
   height="8"
   id="rect188-82-4-3-7-6-23-1-7-1"
   transform="scale(-1,1)"
   style="fill:#ffffff;fill-opacity:1" /><rect
   x="-88.198502"
   y="24.000002"
   width="8"
   height="8"
   id="rect188-82-4-3-7-6-23-414-3-3"
   transform="scale(-1,1)"
   style="fill:#000000;fill-opacity:1" /><rect
   x="-96.198502"
   y="24.000002"
   width="8"
   height="8"
   id="rect188-82-4-3-7-6-23-19-36-4-8"
   transform="scale(-1,1)"
   style="fill:#ffffff;fill-opacity:1" /><rect
   x="-63.999989"
   y="95.973083"
   width="8"
   height="8"
   id="rect188-82-4-3-7-2-4-6-5-15-9-2"
   transform="scale(-1,1)"
   style="fill:#000000;fill-opacity:1" /><rect
   x="-72"
   y="103.97308"
   width="8"
   height="8"
   id="rect188-82-4-3-7-2-4-6-5-15-2-1"
   transform="scale(-1,1)"
   style="fill:#ffffff;fill-opacity:1" /><rect
   x="-15.999996"
   y="95.973083"
   width="8"
   height="8"
   id="rect188-82-4-3-7-2-4-6-5-15-72-16"
   transform="scale(-1,1)"
   style="fill:#000000;fill-opacity:1" /><rect
   x="-15.999996"
   y="103.97308"
   width="8"
   height="8"
   id="rect188-82-4-3-7-2-4-6-5-15-28-51"
   transform="scale(-1,1)"
   style="fill:#ffffff;fill-opacity:1" /><rect
   x="-23.999989"
   y="111.97308"
   width="8"
   height="8"
   id="rect188-82-4-3-7-2-4-6-5-15-90-3"
   transform="scale(-1,1)"
   style="fill:#ffffff;fill-opacity:1" /><rect
   x="-23.999989"
   y="95.973083"
   width="8"
   height="8"
   id="rect188-82-4-3-7-6-0-9"
   transform="scale(-1,1)"
   style="fill:#000000;fill-opacity:1" /><rect
   x="-23.999989"
   y="103.97308"
   width="8"
   height="8"
   id="rect188-82-4-3-7-6-68-8"
   transform="scale(-1,1)"
   style="fill:#ffffff;fill-opacity:1" /><rect
   x="-31.999989"
   y="111.97309"
   width="8"
   height="8"
   id="rect188-82-4-3-7-6-2-0"
   transform="scale(-1,1)"
   style="fill:#ffffff;fill-opacity:1" /><rect
   x="-55.999989"
   y="95.973083"
   width="8"
   height="8"
   id="rect188-82-4-3-7-6-02-6"
   transform="scale(-1,1)"
   style="fill:#000000;fill-opacity:1" /><rect
   x="-63.999989"
   y="103.97308"
   width="8"
   height="8"
   id="rect188-82-4-3-7-6-9-4"
   transform="scale(-1,1)"
   style="fill:#ffffff;fill-opacity:1" /><rect
   x="-72"
   y="111.97308"
   width="8"
   height="8"
   id="rect188-82-4-3-7-6-5-8"
   transform="scale(-1,1)"
   style="fill:#ffffff;fill-opacity:1" /><rect
   x="-80.000015"
   y="103.97308"
   width="8"
   height="8"
   id="rect188-82-4-3-7-6-7-9"
   transform="scale(-1,1)"
   style="fill:#ffffff;fill-opacity:1" /><rect
   x="-88.000015"
   y="95.973083"
   width="8"
   height="8"
   id="rect188-82-4-3-7-6-8-6"
   transform="scale(-1,1)"
   style="fill:#000000;fill-opacity:1" /><rect
   x="-112.00002"
   y="111.97308"
   width="8"
   height="8"
   id="rect188-82-4-3-7-6-020-5"
   transform="scale(-1,1)"
   style="fill:#ffffff;fill-opacity:1" /><rect
   x="-80.000015"
   y="111.97308"
   width="8"
   height="8"
   id="rect188-82-4-3-7-6-23-804"
   transform="scale(-1,1)"
   style="fill:#ffffff;fill-opacity:1" /><rect
   x="-88.000015"
   y="103.97308"
   width="8"
   height="8"
   id="rect188-82-4-3-7-6-23-8-7"
   transform="scale(-1,1)"
   style="fill:#000000;fill-opacity:1" /><rect
   x="-96.000015"
   y="95.973083"
   width="8"
   height="8"
   id="rect188-82-4-3-7-6-23-0-5"
   transform="scale(-1,1)"
   style="fill:#ffffff;fill-opacity:1" /><rect
   x="-104.00002"
   y="95.973083"
   width="8"
   height="8"
   id="rect188-82-4-3-7-6-23-9-8"
   transform="scale(-1,1)"
   style="fill:#ffffff;fill-opacity:1" /><rect
   x="-112.00002"
   y="95.973083"
   width="8"
   height="8"
   id="rect188-82-4-3-7-6-23-3-7"
   transform="scale(-1,1)"
   style="fill:#ffffff;fill-opacity:1" /><rect
   x="-112.00002"
   y="103.97308"
   width="8"
   height="8"
   id="rect188-82-4-3-7-6-23-82-0"
   transform="scale(-1,1)"
   style="fill:#ffffff;fill-opacity:1" /><rect
   x="-104.00002"
   y="111.97309"
   width="8"
   height="8"
   id="rect188-82-4-3-7-6-23-80-56"
   transform="scale(-1,1)"
   style="fill:#ffffff;fill-opacity:1" /><rect
   x="-63.999989"
   y="111.97308"
   width="8"
   height="8"
   id="rect188-82-4-3-7-6-23-11-0"
   transform="scale(-1,1)"
   style="fill:#ffffff;fill-opacity:1" /><rect
   x="-55.999989"
   y="103.97308"
   width="8"
   height="8"
   id="rect188-82-4-3-7-6-23-86-46"
   transform="scale(-1,1)"
   style="fill:#ffffff;fill-opacity:1" /><rect
   x="-47.999989"
   y="95.973083"
   width="8"
   height="8"
   id="rect188-82-4-3-7-6-23-41-6"
   transform="scale(-1,1)"
   style="fill:#000000;fill-opacity:1" /><rect
   x="-39.999989"
   y="95.973083"
   width="8"
   height="8"
   id="rect188-82-4-3-7-6-23-43-4"
   transform="scale(-1,1)"
   style="fill:#000000;fill-opacity:1" /><rect
   x="-31.999989"
   y="95.973083"
   width="8"
   height="8"
   id="rect188-82-4-3-7-6-23-45-9"
   transform="scale(-1,1)"
   style="fill:#000000;fill-opacity:1" /><rect
   x="-31.999989"
   y="103.97308"
   width="8"
   height="8"
   id="rect188-82-4-3-7-6-23-49-7"
   transform="scale(-1,1)"
   style="fill:#ffffff;fill-opacity:1" /><rect
   x="-39.999989"
   y="111.97308"
   width="8"
   height="8"
   id="rect188-82-4-3-7-6-23-67-1"
   transform="scale(-1,1)"
   style="fill:#000000;fill-opacity:1" /><rect
   x="-39.999989"
   y="103.97308"
   width="8"
   height="8"
   id="rect188-82-4-3-7-6-23-19-0"
   transform="scale(-1,1)"
   style="fill:#000000;fill-opacity:1" /><rect
   x="-47.999989"
   y="103.97308"
   width="8"
   height="8"
   id="rect188-82-4-3-7-6-23-19-9-0"
   transform="scale(-1,1)"
   style="fill:#ffffff;fill-opacity:1" /><rect
   x="-47.999989"
   y="111.97308"
   width="8"
   height="8"
   id="rect188-82-4-3-7-6-23-19-8-8"
   transform="scale(-1,1)"
   style="fill:#ffffff;fill-opacity:1" /><rect
   x="-55.999989"
   y="111.97308"
   width="8"
   height="8"
   id="rect188-82-4-3-7-6-23-19-3-3"
   transform="scale(-1,1)"
   style="fill:#ffffff;fill-opacity:1" /><rect
   x="-88.000015"
   y="111.97308"
   width="8"
   height="8"
   id="rect188-82-4-3-7-6-23-19-14-8"
   transform="scale(-1,1)"
   style="fill:#000000;fill-opacity:1" /><rect
   x="-96.000015"
   y="111.97308"
   width="8"
   height="8"
   id="rect188-82-4-3-7-6-23-19-7-6"
   transform="scale(-1,1)"
   style="fill:#ffffff;fill-opacity:1" /><rect
   x="-96.000015"
   y="103.97308"
   width="8"
   height="8"
   id="rect188-82-4-3-7-6-23-19-17-0"
   transform="scale(-1,1)"
   style="fill:#ffffff;fill-opacity:1" /><rect
   x="-104.00002"
   y="103.97309"
   width="8"
   height="8"
   id="rect188-82-4-3-7-6-23-19-54-8"
   transform="scale(-1,1)"
   style="fill:#ffffff;fill-opacity:1" /><rect
   x="-15.999996"
   y="111.97308"
   width="8"
   height="8"
   id="rect188-82-4-3-7-2-4-6-5-15-72-1-8"
   transform="scale(-1,1)"
   style="fill:#ffffff;fill-opacity:1" /><rect
   x="-72"
   y="95.973083"
   width="8"
   height="8"
   id="rect188-82-4-3-7-2-4-6-5-15-1-6-4"
   transform="scale(-1,1)"
   style="fill:#ffffff;fill-opacity:1" /><rect
   x="-63.999989"
   y="87.973083"
   width="8"
   height="8"
   id="rect188-82-4-3-7-2-4-6-5-15-00-4-3"
   transform="scale(-1,1)"
   style="fill:#000000;fill-opacity:1" /><rect
   x="-15.999989"
   y="87.973083"
   width="8"
   height="8"
   id="rect188-82-4-3-7-2-4-6-5-15-59-68-3"
   transform="scale(-1,1)"
   style="fill:#000000;fill-opacity:1" /><rect
   x="-23.999989"
   y="87.973083"
   width="8"
   height="8"
   id="rect188-82-4-3-7-6-65-2-2"
   transform="scale(-1,1)"
   style="fill:#ffffff;fill-opacity:1" /><rect
   x="-55.999989"
   y="87.973083"
   width="8"
   height="8"
   id="rect188-82-4-3-7-6-76-6-51"
   transform="scale(-1,1)"
   style="fill:#ffffff;fill-opacity:1" /><rect
   x="-47.999989"
   y="87.973083"
   width="8"
   height="8"
   id="rect188-82-4-3-7-6-23-1-9-5"
   transform="scale(-1,1)"
   style="fill:#ffffff;fill-opacity:1" /><rect
   x="-31.999989"
   y="87.973083"
   width="8"
   height="8"
   id="rect188-82-4-3-7-6-23-414-4-9"
   transform="scale(-1,1)"
   style="fill:#ffffff;fill-opacity:1" /><rect
   x="-39.999989"
   y="87.973083"
   width="8"
   height="8"
   id="rect188-82-4-3-7-6-23-19-36-5-2"
   transform="scale(-1,1)"
   style="fill:#ffffff;fill-opacity:1" /><rect
   x="-72"
   y="87.973083"
   width="8"
   height="8"
   id="rect188-82-4-3-7-2-4-6-5-15-59-6-6-6"
   transform="scale(-1,1)"
   style="fill:#ffffff;fill-opacity:1" /><rect
   x="-80.000015"
   y="87.973083"
   width="8"
   height="8"
   id="rect188-82-4-3-7-6-65-9-0-9"
   transform="scale(-1,1)"
   style="fill:#ffffff;fill-opacity:1" /><rect
   x="-111.99997"
   y="87.973083"
   width="8"
   height="8"
   id="rect188-82-4-3-7-6-76-3-29-5"
   transform="scale(-1,1)"
   style="fill:#ffffff;fill-opacity:1" /><rect
   x="-104"
   y="87.973083"
   width="8"
   height="8"
   id="rect188-82-4-3-7-6-23-1-7-7-1"
   transform="scale(-1,1)"
   style="fill:#ffffff;fill-opacity:1" /><rect
   x="-88.000015"
   y="87.973083"
   width="8"
   height="8"
   id="rect188-82-4-3-7-6-23-414-3-9-7"
   transform="scale(-1,1)"
   style="fill:#000000;fill-opacity:1" /><rect
   x="-96.000015"
   y="87.973083"
   width="8"
   height="8"
   id="rect188-82-4-3-7-6-23-19-36-4-9-9"
   transform="scale(-1,1)"
   style="fill:#ffffff;fill-opacity:1" /><rect
   x="-8"
   y="95.973083"
   width="8"
   height="8"
   id="rect188-82-4-3-7-6-96-1-1"
   transform="scale(-1,1)"
   style="fill:#000000;fill-opacity:1" /><rect
   x="-80.000015"
   y="95.973083"
   width="8"
   height="8"
   id="rect188-82-4-3-7-6-65-9-0-9-1"
   transform="scale(-1,1)"
   style="fill:#ffffff;fill-opacity:1" /><rect
   x="-23.999981"
   y="119.97308"
   width="8"
   height="8"
   id="rect188-82-4-3-7-2-4-6-5-15-90-3-5"
   transform="scale(-1,1)"
   style="fill:#ffffff;fill-opacity:1" /><rect
   x="-31.999981"
   y="119.97308"
   width="8"
   height="8"
   id="rect188-82-4-3-7-6-2-0-5"
   transform="scale(-1,1)"
   style="fill:#ffffff;fill-opacity:1" /><rect
   x="-72"
   y="119.97308"
   width="8"
   height="8"
   id="rect188-82-4-3-7-6-5-8-0"
   transform="scale(-1,1)"
   style="fill:#000000;fill-opacity:1" /><rect
   x="-112.00002"
   y="119.97308"
   width="8"
   height="8"
   id="rect188-82-4-3-7-6-020-5-4"
   transform="scale(-1,1)"
   style="fill:#ffffff;fill-opacity:1" /><rect
   x="-80.000015"
   y="119.97308"
   width="8"
   height="8"
   id="rect188-82-4-3-7-6-23-804-0"
   transform="scale(-1,1)"
   style="fill:#000000;fill-opacity:1" /><rect
   x="-104.00002"
   y="119.97308"
   width="8"
   height="8"
   id="rect188-82-4-3-7-6-23-80-56-8"
   transform="scale(-1,1)"
   style="fill:#ffffff;fill-opacity:1" /><rect
   x="-63.999973"
   y="119.97308"
   width="8"
   height="8"
   id="rect188-82-4-3-7-6-23-11-0-5"
   transform="scale(-1,1)"
   style="fill:#000000;fill-opacity:1" /><rect
   x="-39.999981"
   y="119.97308"
   width="8"
   height="8"
   id="rect188-82-4-3-7-6-23-67-1-8"
   transform="scale(-1,1)"
   style="fill:#000000;fill-opacity:1" /><rect
   x="-47.999981"
   y="119.97308"
   width="8"
   height="8"
   id="rect188-82-4-3-7-6-23-19-8-8-7"
   transform="scale(-1,1)"
   style="fill:#000000;fill-opacity:1" /><rect
   x="-55.999981"
   y="119.97308"
   width="8"
   height="8"
   id="rect188-82-4-3-7-6-23-19-3-3-7"
   transform="scale(-1,1)"
   style="fill:#000000;fill-opacity:1" /><rect
   x="-88.000015"
   y="119.97308"
   width="8"
   height="8"
   id="rect188-82-4-3-7-6-23-19-14-8-1"
   transform="scale(-1,1)"
   style="fill:#000000;fill-opacity:1" /><rect
   x="-96.000015"
   y="119.97308"
   width="8"
   height="8"
   id="rect188-82-4-3-7-6-23-19-7-6-7"
   transform="scale(-1,1)"
   style="fill:#ffffff;fill-opacity:1" /><rect
   x="-15.999989"
   y="119.97308"
   width="8"
   height="8"
   id="rect188-82-4-3-7-2-4-6-5-15-72-1-8-1"
   transform="scale(-1,1)"
   style="fill:#ffffff;fill-opacity:1" /><rect
   x="-23.999973"
   y="127.97308"
   width="8"
   height="8"
   id="rect188-82-4-3-7-2-4-6-5-15-90-9-9"
   transform="scale(-1,1)"
   style="fill:#ffffff;fill-opacity:1" /><rect
   x="-31.999973"
   y="127.9731"
   width="8"
   height="8"
   id="rect188-82-4-3-7-6-2-5-2"
   transform="scale(-1,1)"
   style="fill:#ffffff;fill-opacity:1" /><rect
   x="-71.999969"
   y="127.97308"
   width="8"
   height="8"
   id="rect188-82-4-3-7-6-5-3-4"
   transform="scale(-1,1)"
   style="fill:#ffffff;fill-opacity:1" /><rect
   x="-112"
   y="127.97308"
   width="8"
   height="8"
   id="rect188-82-4-3-7-6-020-7-3"
   transform="scale(-1,1)"
   style="fill:#ffffff;fill-opacity:1" /><rect
   x="-79.999969"
   y="127.97308"
   width="8"
   height="8"
   id="rect188-82-4-3-7-6-23-81-5"
   transform="scale(-1,1)"
   style="fill:#ffffff;fill-opacity:1" /><rect
   x="-103.99997"
   y="127.9731"
   width="8"
   height="8"
   id="rect188-82-4-3-7-6-23-80-5-1"
   transform="scale(-1,1)"
   style="fill:#ffffff;fill-opacity:1" /><rect
   x="-63.999973"
   y="127.97308"
   width="8"
   height="8"
   id="rect188-82-4-3-7-6-23-11-6-0"
   transform="scale(-1,1)"
   style="fill:#ffffff;fill-opacity:1" /><rect
   x="-39.999958"
   y="127.97308"
   width="8"
   height="8"
   id="rect188-82-4-3-7-6-23-67-8-9"
   transform="scale(-1,1)"
   style="fill:#ffffff;fill-opacity:1" /><rect
   x="-47.999958"
   y="127.97308"
   width="8"
   height="8"
   id="rect188-82-4-3-7-6-23-19-8-3-4"
   transform="scale(-1,1)"
   style="fill:#ffffff;fill-opacity:1" /><rect
   x="-55.999958"
   y="127.97308"
   width="8"
   height="8"
   id="rect188-82-4-3-7-6-23-19-3-6-9"
   transform="scale(-1,1)"
   style="fill:#ffffff;fill-opacity:1" /><rect
   x="-87.999969"
   y="127.97308"
   width="8"
   height="8"
   id="rect188-82-4-3-7-6-23-19-14-9-4"
   transform="scale(-1,1)"
   style="fill:#ffffff;fill-opacity:1" /><rect
   x="-95.999969"
   y="127.97308"
   width="8"
   height="8"
   id="rect188-82-4-3-7-6-23-19-7-3-7"
   transform="scale(-1,1)"
   style="fill:#ffffff;fill-opacity:1" /><rect
   x="-15.999966"
   y="127.97308"
   width="8"
   height="8"
   id="rect188-82-4-3-7-2-4-6-5-15-72-1-6-8"
   transform="scale(-1,1)"
   style="fill:#ffffff;fill-opacity:1" /><rect
   x="-23.999966"
   y="135.97308"
   width="8"
   height="8"
   id="rect188-82-4-3-7-2-4-6-5-15-90-9-7"
   transform="scale(-1,1)"
   style="fill:#ffffff;fill-opacity:1" /><rect
   x="-31.999966"
   y="135.9731"
   width="8"
   height="8"
   id="rect188-82-4-3-7-6-2-5-1"
   transform="scale(-1,1)"
   style="fill:#ffffff;fill-opacity:1" /><rect
   x="-71.999969"
   y="135.97308"
   width="8"
   height="8"
   id="rect188-82-4-3-7-6-5-3-41"
   transform="scale(-1,1)"
   style="fill:#ffffff;fill-opacity:1" /><rect
   x="-112.00002"
   y="135.97308"
   width="8"
   height="8"
   id="rect188-82-4-3-7-6-020-7-7"
   transform="scale(-1,1)"
   style="fill:#ffffff;fill-opacity:1" /><rect
   x="-79.999985"
   y="135.97308"
   width="8"
   height="8"
   id="rect188-82-4-3-7-6-23-81-1"
   transform="scale(-1,1)"
   style="fill:#ffffff;fill-opacity:1" /><rect
   x="-103.99998"
   y="135.9731"
   width="8"
   height="8"
   id="rect188-82-4-3-7-6-23-80-5-4"
   transform="scale(-1,1)"
   style="fill:#ffffff;fill-opacity:1" /><rect
   x="-63.999973"
   y="135.97308"
   width="8"
   height="8"
   id="rect188-82-4-3-7-6-23-11-6-3"
   transform="scale(-1,1)"
   style="fill:#ffffff;fill-opacity:1" /><rect
   x="-39.999958"
   y="135.97308"
   width="8"
   height="8"
   id="rect188-82-4-3-7-6-23-67-8-97"
   transform="scale(-1,1)"
   style="fill:#ffffff;fill-opacity:1" /><rect
   x="-47.999958"
   y="135.97308"
   width="8"
   height="8"
   id="rect188-82-4-3-7-6-23-19-8-3-7"
   transform="scale(-1,1)"
   style="fill:#ffffff;fill-opacity:1" /><rect
   x="-55.999958"
   y="135.97308"
   width="8"
   height="8"
   id="rect188-82-4-3-7-6-23-19-3-6-2"
   transform="scale(-1,1)"
   style="fill:#ffffff;fill-opacity:1" /><rect
   x="-87.999985"
   y="135.97308"
   width="8"
   height="8"
   id="rect188-82-4-3-7-6-23-19-14-9-3"
   transform="scale(-1,1)"
   style="fill:#ffffff;fill-opacity:1" /><rect
   x="-95.999985"
   y="135.97308"
   width="8"
   height="8"
   id="rect188-82-4-3-7-6-23-19-7-3-1"
   transform="scale(-1,1)"
   style="fill:#ffffff;fill-opacity:1" /><rect
   x="-15.999966"
   y="135.97308"
   width="8"
   height="8"
   id="rect188-82-4-3-7-2-4-6-5-15-72-1-6-89"
   transform="scale(-1,1)"
   style="fill:#ffffff;fill-opacity:1" /><rect
   x="-23.99995"
   y="143.97308"
   width="8"
   height="8"
   id="rect188-82-4-3-7-2-4-6-5-15-90-9-0"
   transform="scale(-1,1)"
   style="fill:#ffffff;fill-opacity:1" /><rect
   x="-31.99995"
   y="143.9731"
   width="8"
   height="8"
   id="rect188-82-4-3-7-6-2-5-0"
   transform="scale(-1,1)"
   style="fill:#ffffff;fill-opacity:1" /><rect
   x="-71.999954"
   y="143.97308"
   width="8"
   height="8"
   id="rect188-82-4-3-7-6-5-3-3"
   transform="scale(-1,1)"
   style="fill:#ffffff;fill-opacity:1" /><rect
   x="-111.99997"
   y="143.97308"
   width="8"
   height="8"
   id="rect188-82-4-3-7-6-020-7-9"
   transform="scale(-1,1)"
   style="fill:#ffffff;fill-opacity:1" /><rect
   x="-79.999954"
   y="143.97308"
   width="8"
   height="8"
   id="rect188-82-4-3-7-6-23-81-6"
   transform="scale(-1,1)"
   style="fill:#ffffff;fill-opacity:1" /><rect
   x="-103.99997"
   y="143.9731"
   width="8"
   height="8"
   id="rect188-82-4-3-7-6-23-80-5-7"
   transform="scale(-1,1)"
   style="fill:#ffffff;fill-opacity:1" /><rect
   x="-63.999958"
   y="143.97308"
   width="8"
   height="8"
   id="rect188-82-4-3-7-6-23-11-6-1"
   transform="scale(-1,1)"
   style="fill:#ffffff;fill-opacity:1" /><rect
   x="-39.999943"
   y="143.97308"
   width="8"
   height="8"
   id="rect188-82-4-3-7-6-23-67-8-96"
   transform="scale(-1,1)"
   style="fill:#ffffff;fill-opacity:1" /><rect
   x="-47.999943"
   y="143.97308"
   width="8"
   height="8"
   id="rect188-82-4-3-7-6-23-19-8-3-9"
   transform="scale(-1,1)"
   style="fill:#ffffff;fill-opacity:1" /><rect
   x="-55.999943"
   y="143.97308"
   width="8"
   height="8"
   id="rect188-82-4-3-7-6-23-19-3-6-6"
   transform="scale(-1,1)"
   style="fill:#ffffff;fill-opacity:1" /><rect
   x="-87.999954"
   y="143.97308"
   width="8"
   height="8"
   id="rect188-82-4-3-7-6-23-19-14-9-5"
   transform="scale(-1,1)"
   style="fill:#ffffff;fill-opacity:1" /><rect
   x="-95.999954"
   y="143.97308"
   width="8"
   height="8"
   id="rect188-82-4-3-7-6-23-19-7-3-9"
   transform="scale(-1,1)"
   style="fill:#ffffff;fill-opacity:1" /><rect
   x="-15.99995"
   y="143.97308"
   width="8"
   height="8"
   id="rect188-82-4-3-7-2-4-6-5-15-72-1-6-5"
   transform="scale(-1,1)"
   style="fill:#ffffff;fill-opacity:1" /><rect
   x="-16.415222"
   y="80.282822"
   width="8"
   height="8"
   id="rect188-82-4-3-7-2-4-6-5-15-72-4-73-3-4"
   transform="scale(-1,1)"
   style="fill:#ffffff;fill-opacity:1" /></svg>