<?xml version="1.0" encoding="UTF-8" standalone="no"?>
<!-- Generator: Adobe Illustrator 16.0.0, SVG Export Plug-In . SVG Version: 6.00 Build 0)  -->

<svg
   xmlns:dc="http://purl.org/dc/elements/1.1/"
   xmlns:cc="http://creativecommons.org/ns#"
   xmlns:rdf="http://www.w3.org/1999/02/22-rdf-syntax-ns#"
   xmlns:svg="http://www.w3.org/2000/svg"
   xmlns="http://www.w3.org/2000/svg"
   xmlns:sodipodi="http://sodipodi.sourceforge.net/DTD/sodipodi-0.dtd"
   xmlns:inkscape="http://www.inkscape.org/namespaces/inkscape"
   version="1.1"
   id="Layer_1"
   x="0px"
   y="0px"
   width="60"
   height="60"
   viewBox="0 0 60 60"
   enable-background="new 0 0 256 256"
   xml:space="preserve"
   sodipodi:docname="GrantreMedSnø.svg"
   inkscape:version="0.92.3 (2405546, 2018-03-11)"><metadata
   id="metadata215"><rdf:RDF><cc:Work
       rdf:about=""><dc:format>image/svg+xml</dc:format><dc:type
         rdf:resource="http://purl.org/dc/dcmitype/StillImage" /><dc:title></dc:title></cc:Work></rdf:RDF></metadata><defs
   id="defs213" /><sodipodi:namedview
   pagecolor="#ffffff"
   bordercolor="#666666"
   borderopacity="1"
   objecttolerance="10"
   gridtolerance="10"
   guidetolerance="10"
   inkscape:pageopacity="0"
   inkscape:pageshadow="2"
   inkscape:window-width="1920"
   inkscape:window-height="1013"
   id="namedview211"
   showgrid="false"
   inkscape:zoom="7.375"
   inkscape:cx="41.989294"
   inkscape:cy="43.19787"
   inkscape:window-x="-9"
   inkscape:window-y="29"
   inkscape:window-maximized="1"
   inkscape:current-layer="Layer_1"
   inkscape:pagecheckerboard="true"><inkscape:grid
     type="xygrid"
     id="grid4725" /></sodipodi:namedview>








































































































<rect
   x="-42.161789"
   y="43.779957"
   width="8"
   height="8"
   id="rect188-742-1-25-0-3"
   transform="scale(-1,1)"
   style="fill:#005400;fill-opacity:1" /><rect
   x="-10.16179"
   y="43.779957"
   width="8"
   height="8"
   id="rect188-742-1-25-0-3-7"
   transform="scale(-1,1)"
   style="fill:#005400;fill-opacity:1" /><rect
   x="-58.161789"
   y="35.779957"
   width="8"
   height="8"
   id="rect188-742-1-25-0-3-5"
   transform="scale(-1,1)"
   style="fill:#d7d7f4;fill-opacity:1" /><rect
   x="-34.161789"
   y="11.779952"
   width="8"
   height="8"
   id="rect188-742-1-25-0-3-4"
   transform="scale(-1,1)"
   style="fill:#ffffff;fill-opacity:1" /><rect
   x="-26.161791"
   y="19.779951"
   width="8"
   height="8"
   id="rect188-742-1-25-0-3-0"
   transform="scale(-1,1)"
   style="fill:#ffffff;fill-opacity:1" /><rect
   x="-34.161789"
   y="43.779957"
   width="8"
   height="8"
   id="rect188-742-1-25-0-3-1"
   transform="scale(-1,1)"
   style="fill:#008000;fill-opacity:1" /><rect
   x="-18.161791"
   y="43.779957"
   width="8"
   height="8"
   id="rect188-742-1-25-0-3-41"
   transform="scale(-1,1)"
   style="fill:#008000;fill-opacity:1" /><rect
   x="-42.161789"
   y="11.779952"
   width="8"
   height="8"
   id="rect188-742-1-25-0-3-78"
   transform="scale(-1,1)"
   style="fill:#d7d7f4;fill-opacity:1" /><rect
   x="-10.16179"
   y="35.779957"
   width="8"
   height="8"
   id="rect188-742-1-25-0-3-9"
   transform="scale(-1,1)"
   style="fill:#d7d7f4;fill-opacity:1" /><rect
   x="-58.161789"
   y="43.779957"
   width="8"
   height="8"
   id="rect188-742-1-25-0-3-2"
   transform="scale(-1,1)"
   style="fill:#005400;fill-opacity:1" /><rect
   x="-26.161791"
   y="11.779952"
   width="8"
   height="8"
   id="rect188-742-1-25-0-3-25"
   transform="scale(-1,1)"
   style="fill:#d7d7f4;fill-opacity:1" /><rect
   x="-50.161789"
   y="19.779951"
   width="8"
   height="8"
   id="rect188-742-1-25-0-3-04"
   transform="scale(-1,1)"
   style="fill:#d7d7f4;fill-opacity:1" /><rect
   x="-18.161791"
   y="19.779951"
   width="8"
   height="8"
   id="rect188-742-1-25-0-3-13"
   transform="scale(-1,1)"
   style="fill:#d7d7f4;fill-opacity:1" /><rect
   x="-34.161789"
   y="3.779952"
   width="8"
   height="8"
   id="rect188-742-1-25-0-3-782"
   transform="scale(-1,1)"
   style="fill:#d7d7f4;fill-opacity:1" /><rect
   x="-42.161789"
   y="19.779951"
   width="8"
   height="8"
   id="rect188-742-1-25-0-3-22"
   transform="scale(-1,1)"
   style="fill:#ffffff;fill-opacity:1" /><rect
   x="-34.161789"
   y="19.779951"
   width="8"
   height="8"
   id="rect188-742-1-25-0-3-74"
   transform="scale(-1,1)"
   style="fill:#005400;fill-opacity:1" /><rect
   x="-18.161791"
   y="27.779951"
   width="8"
   height="8"
   id="rect188-742-1-25-0-3-8"
   transform="scale(-1,1)"
   style="fill:#ffffff;fill-opacity:1" /><rect
   x="-26.161791"
   y="27.779951"
   width="8"
   height="8"
   id="rect188-742-1-25-0-3-84"
   transform="scale(-1,1)"
   style="fill:#005400;fill-opacity:1" /><rect
   x="-34.161789"
   y="27.779951"
   width="8"
   height="8"
   id="rect188-742-1-25-0-3-92"
   transform="scale(-1,1)"
   style="fill:#008000;fill-opacity:1" /><rect
   x="-42.161789"
   y="27.779951"
   width="8"
   height="8"
   id="rect188-742-1-25-0-3-6"
   transform="scale(-1,1)"
   style="fill:#005400;fill-opacity:1" /><rect
   x="-50.161789"
   y="27.779951"
   width="8"
   height="8"
   id="rect188-742-1-25-0-3-00"
   transform="scale(-1,1)"
   style="fill:#ffffff;fill-opacity:1" /><rect
   x="-50.161789"
   y="35.779957"
   width="8"
   height="8"
   id="rect188-742-1-25-0-3-61"
   transform="scale(-1,1)"
   style="fill:#005400;fill-opacity:1" /><rect
   x="-42.161789"
   y="35.779957"
   width="8"
   height="8"
   id="rect188-742-1-25-0-3-47"
   transform="scale(-1,1)"
   style="fill:#008000;fill-opacity:1" /><rect
   x="-34.161789"
   y="35.779957"
   width="8"
   height="8"
   id="rect188-742-1-25-0-3-929"
   transform="scale(-1,1)"
   style="fill:#005400;fill-opacity:1" /><rect
   x="-26.161791"
   y="35.779957"
   width="8"
   height="8"
   id="rect188-742-1-25-0-3-844"
   transform="scale(-1,1)"
   style="fill:#008000;fill-opacity:1" /><rect
   x="-18.161791"
   y="35.779957"
   width="8"
   height="8"
   id="rect188-742-1-25-0-3-24"
   transform="scale(-1,1)"
   style="fill:#005400;fill-opacity:1" /><rect
   x="-50.161789"
   y="43.779957"
   width="8"
   height="8"
   id="rect188-742-1-25-0-3-68"
   transform="scale(-1,1)"
   style="fill:#008000;fill-opacity:1" /><rect
   x="-26.161791"
   y="43.779957"
   width="8"
   height="8"
   id="rect188-742-1-25-0-3-09"
   transform="scale(-1,1)"
   style="fill:#005400;fill-opacity:1" /><rect
   x="-34.161789"
   y="51.779957"
   width="8"
   height="8"
   id="rect188-742-1-25-0-3-3"
   transform="scale(-1,1)"
   style="fill:#502d16;fill-opacity:1" /><rect
   x="-42.161789"
   y="51.779957"
   width="8"
   height="8"
   id="rect188-742-1-25-0-3-3-5"
   transform="scale(-1,1)"
   style="fill:#502d16;fill-opacity:1" /><rect
   x="-26.161791"
   y="51.779957"
   width="8"
   height="8"
   id="rect188-742-1-25-0-3-3-0"
   transform="scale(-1,1)"
   style="fill:#502d16;fill-opacity:1" /></svg>