<?xml version="1.0" encoding="UTF-8" standalone="no"?>
<svg
   xmlns:dc="http://purl.org/dc/elements/1.1/"
   xmlns:cc="http://creativecommons.org/ns#"
   xmlns:rdf="http://www.w3.org/1999/02/22-rdf-syntax-ns#"
   xmlns:svg="http://www.w3.org/2000/svg"
   xmlns="http://www.w3.org/2000/svg"
   xmlns:sodipodi="http://sodipodi.sourceforge.net/DTD/sodipodi-0.dtd"
   xmlns:inkscape="http://www.inkscape.org/namespaces/inkscape"
   version="1.1"
   id="Layer_1"
   x="0px"
   y="0px"
   width="176"
   height="120"
   viewBox="0 0 176 120"
   enable-background="new 0 0 256 256"
   xml:space="preserve"
   sodipodi:docname="GreenArrow.svg"
   inkscape:version="1.0.1 (3bc2e813f5, 2020-09-07)"><metadata
   id="metadata215"><rdf:RDF><cc:Work
       rdf:about=""><dc:format>image/svg+xml</dc:format><dc:type
         rdf:resource="http://purl.org/dc/dcmitype/StillImage" /><dc:title></dc:title></cc:Work></rdf:RDF></metadata><defs
   id="defs213" /><sodipodi:namedview
   pagecolor="#ffffff"
   bordercolor="#666666"
   borderopacity="1"
   objecttolerance="10"
   gridtolerance="10"
   guidetolerance="10"
   inkscape:pageopacity="0"
   inkscape:pageshadow="2"
   inkscape:window-width="2560"
   inkscape:window-height="1373"
   id="namedview211"
   showgrid="false"
   inkscape:zoom="1.3037282"
   inkscape:cx="19.695838"
   inkscape:cy="-45.251722"
   inkscape:window-x="-9"
   inkscape:window-y="29"
   inkscape:window-maximized="1"
   inkscape:current-layer="Layer_1"
   inkscape:pagecheckerboard="true"
   fit-margin-top="0"
   fit-margin-left="0"
   fit-margin-right="0"
   fit-margin-bottom="0"
   inkscape:document-rotation="0"><inkscape:grid
     type="xygrid"
     id="grid4725"
     originx="-35.660252"
     originy="-129.42543" /></sodipodi:namedview>








































































































<rect
   x="-56.000011"
   y="40"
   width="8"
   height="8"
   id="rect188-82-4-3-7-2-4-6-5-15-9"
   transform="scale(-1,1)"
   style="fill:#007500;fill-opacity:1" /><rect
   x="-64.000015"
   y="48"
   width="8"
   height="8"
   id="rect188-82-4-3-7-2-4-6-5-15-2"
   transform="scale(-1,1)"
   style="fill:#00ff00;fill-opacity:1" /><rect
   x="-72.000015"
   y="40"
   width="8"
   height="8"
   id="rect188-82-4-3-7-2-4-6-5-15-1"
   transform="scale(-1,1)"
   style="fill:#007500;fill-opacity:1" /><rect
   x="-120.00002"
   y="40"
   width="8"
   height="8"
   id="rect188-82-4-3-7-2-4-6-5-15-4"
   transform="scale(-1,1)"
   style="fill:#007500;fill-opacity:1" /><rect
   x="-120.00002"
   y="48"
   width="8"
   height="8"
   id="rect188-82-4-3-7-2-4-6-5-15-64"
   transform="scale(-1,1)"
   style="fill:#00ff00;fill-opacity:1" /><rect
   x="-112.00002"
   y="56"
   width="8"
   height="8"
   id="rect188-82-4-3-7-2-4-6-5-15-63"
   transform="scale(-1,1)"
   style="fill:#00ff00;fill-opacity:1" /><rect
   x="-104.00002"
   y="64"
   width="8"
   height="8"
   id="rect188-82-4-3-7-2-4-6-5-15-87"
   transform="scale(-1,1)"
   style="fill:#00ff00;fill-opacity:1" /><rect
   x="-96.000015"
   y="72"
   width="8"
   height="8"
   id="rect188-82-4-3-7-2-4-6-5-15-5"
   transform="scale(-1,1)"
   style="fill:#007500;fill-opacity:1" /><rect
   x="-56.000011"
   y="80"
   width="8"
   height="8"
   id="rect188-82-4-3-7-2-4-6-5-15-00"
   transform="scale(-1,1)"
   style="fill:#007500;fill-opacity:1" /><rect
   x="-8.0000114"
   y="40"
   width="8"
   height="8"
   id="rect188-82-4-3-7-2-4-6-5-15-72"
   transform="scale(-1,1)"
   style="fill:#007500;fill-opacity:1" /><rect
   x="-8.0000114"
   y="48"
   width="8"
   height="8"
   id="rect188-82-4-3-7-2-4-6-5-15-28"
   transform="scale(-1,1)"
   style="fill:#007500;fill-opacity:1" /><rect
   x="-16.000011"
   y="56"
   width="8"
   height="8"
   id="rect188-82-4-3-7-2-4-6-5-15-90"
   transform="scale(-1,1)"
   style="fill:#007500;fill-opacity:1" /><rect
   x="-24.000011"
   y="64"
   width="8"
   height="8"
   id="rect188-82-4-3-7-2-4-6-5-15-81"
   transform="scale(-1,1)"
   style="fill:#00ff00;fill-opacity:1" /><rect
   x="-32.000011"
   y="72"
   width="8"
   height="8"
   id="rect188-82-4-3-7-2-4-6-5-15-04"
   transform="scale(-1,1)"
   style="fill:#007500;fill-opacity:1" /><rect
   x="-8.0000114"
   y="80"
   width="8"
   height="8"
   id="rect188-82-4-3-7-2-4-6-5-15-59"
   transform="scale(-1,1)"
   style="fill:#007500;fill-opacity:1" /><rect
   x="-16.000011"
   y="40"
   width="8"
   height="8"
   id="rect188-82-4-3-7-6-0"
   transform="scale(-1,1)"
   style="fill:#007500;fill-opacity:1" /><rect
   x="-16.000011"
   y="48"
   width="8"
   height="8"
   id="rect188-82-4-3-7-6-68"
   transform="scale(-1,1)"
   style="fill:#007500;fill-opacity:1" /><rect
   x="-24.000011"
   y="56.000008"
   width="8"
   height="8"
   id="rect188-82-4-3-7-6-2"
   transform="scale(-1,1)"
   style="fill:#00ff00;fill-opacity:1" /><rect
   x="-32.000011"
   y="64"
   width="8"
   height="8"
   id="rect188-82-4-3-7-6-1"
   transform="scale(-1,1)"
   style="fill:#00ff00;fill-opacity:1" /><rect
   x="-40.000011"
   y="72"
   width="8"
   height="8"
   id="rect188-82-4-3-7-6-41"
   transform="scale(-1,1)"
   style="fill:#007500;fill-opacity:1" /><rect
   x="-16.000011"
   y="80"
   width="8"
   height="8"
   id="rect188-82-4-3-7-6-65"
   transform="scale(-1,1)"
   style="fill:#007500;fill-opacity:1" /><rect
   x="-48.000011"
   y="40"
   width="8"
   height="8"
   id="rect188-82-4-3-7-6-02"
   transform="scale(-1,1)"
   style="fill:#007500;fill-opacity:1" /><rect
   x="-56.000011"
   y="48"
   width="8"
   height="8"
   id="rect188-82-4-3-7-6-9"
   transform="scale(-1,1)"
   style="fill:#00ff00;fill-opacity:1" /><rect
   x="-64.000015"
   y="56"
   width="8"
   height="8"
   id="rect188-82-4-3-7-6-5"
   transform="scale(-1,1)"
   style="fill:#00ff00;fill-opacity:1" /><rect
   x="-72.000015"
   y="48"
   width="8"
   height="8"
   id="rect188-82-4-3-7-6-7"
   transform="scale(-1,1)"
   style="fill:#00ff00;fill-opacity:1" /><rect
   x="-80.000015"
   y="40"
   width="8"
   height="8"
   id="rect188-82-4-3-7-6-8"
   transform="scale(-1,1)"
   style="fill:#007500;fill-opacity:1" /><rect
   x="-112.00002"
   y="40"
   width="8"
   height="8"
   id="rect188-82-4-3-7-6-96"
   transform="scale(-1,1)"
   style="fill:#007500;fill-opacity:1" /><rect
   x="-112.00002"
   y="48"
   width="8"
   height="8"
   id="rect188-82-4-3-7-6-61"
   transform="scale(-1,1)"
   style="fill:#00ff00;fill-opacity:1" /><rect
   x="-104.00002"
   y="56"
   width="8"
   height="8"
   id="rect188-82-4-3-7-6-020"
   transform="scale(-1,1)"
   style="fill:#00ff00;fill-opacity:1" /><rect
   x="-96.000015"
   y="64"
   width="8"
   height="8"
   id="rect188-82-4-3-7-6-26"
   transform="scale(-1,1)"
   style="fill:#00ff00;fill-opacity:1" /><rect
   x="-88.000015"
   y="72"
   width="8"
   height="8"
   id="rect188-82-4-3-7-6-60"
   transform="scale(-1,1)"
   style="fill:#007500;fill-opacity:1" /><rect
   x="-48.000011"
   y="80"
   width="8"
   height="8"
   id="rect188-82-4-3-7-6-76"
   transform="scale(-1,1)"
   style="fill:#007500;fill-opacity:1" /><rect
   x="-72.000015"
   y="56"
   width="8"
   height="8"
   id="rect188-82-4-3-7-6-23"
   transform="scale(-1,1)"
   style="fill:#00ff00;fill-opacity:1" /><rect
   x="-80.000015"
   y="48"
   width="8"
   height="8"
   id="rect188-82-4-3-7-6-23-8"
   transform="scale(-1,1)"
   style="fill:#00ff00;fill-opacity:1" /><rect
   x="-88.000015"
   y="40"
   width="8"
   height="8"
   id="rect188-82-4-3-7-6-23-0"
   transform="scale(-1,1)"
   style="fill:#007500;fill-opacity:1" /><rect
   x="-96.000015"
   y="40"
   width="8"
   height="8"
   id="rect188-82-4-3-7-6-23-9"
   transform="scale(-1,1)"
   style="fill:#007500;fill-opacity:1" /><rect
   x="-104.00002"
   y="40"
   width="8"
   height="8"
   id="rect188-82-4-3-7-6-23-3"
   transform="scale(-1,1)"
   style="fill:#007500;fill-opacity:1" /><rect
   x="-104.00002"
   y="48"
   width="8"
   height="8"
   id="rect188-82-4-3-7-6-23-82"
   transform="scale(-1,1)"
   style="fill:#00ff00;fill-opacity:1" /><rect
   x="-96.000015"
   y="56.000008"
   width="8"
   height="8"
   id="rect188-82-4-3-7-6-23-80"
   transform="scale(-1,1)"
   style="fill:#00ff00;fill-opacity:1" /><rect
   x="-88.000015"
   y="64"
   width="8"
   height="8"
   id="rect188-82-4-3-7-6-23-4"
   transform="scale(-1,1)"
   style="fill:#00ff00;fill-opacity:1" /><rect
   x="-80.000015"
   y="72"
   width="8"
   height="8"
   id="rect188-82-4-3-7-6-23-05"
   transform="scale(-1,1)"
   style="fill:#007500;fill-opacity:1" /><rect
   x="-40.000011"
   y="80"
   width="8"
   height="8"
   id="rect188-82-4-3-7-6-23-1"
   transform="scale(-1,1)"
   style="fill:#007500;fill-opacity:1" /><rect
   x="-56.000011"
   y="56"
   width="8"
   height="8"
   id="rect188-82-4-3-7-6-23-11"
   transform="scale(-1,1)"
   style="fill:#00ff00;fill-opacity:1" /><rect
   x="-48.000011"
   y="48"
   width="8"
   height="8"
   id="rect188-82-4-3-7-6-23-86"
   transform="scale(-1,1)"
   style="fill:#00ff00;fill-opacity:1" /><rect
   x="-40.000011"
   y="40"
   width="8"
   height="8"
   id="rect188-82-4-3-7-6-23-41"
   transform="scale(-1,1)"
   style="fill:#007500;fill-opacity:1" /><rect
   x="-32.000011"
   y="40"
   width="8"
   height="8"
   id="rect188-82-4-3-7-6-23-43"
   transform="scale(-1,1)"
   style="fill:#007500;fill-opacity:1" /><rect
   x="-24.000011"
   y="40"
   width="8"
   height="8"
   id="rect188-82-4-3-7-6-23-45"
   transform="scale(-1,1)"
   style="fill:#007500;fill-opacity:1" /><rect
   x="-24.000011"
   y="48"
   width="8"
   height="8"
   id="rect188-82-4-3-7-6-23-49"
   transform="scale(-1,1)"
   style="fill:#00ff00;fill-opacity:1" /><rect
   x="-32.000011"
   y="56"
   width="8"
   height="8"
   id="rect188-82-4-3-7-6-23-67"
   transform="scale(-1,1)"
   style="fill:#00ff00;fill-opacity:1" /><rect
   x="-40.000011"
   y="64"
   width="8"
   height="8"
   id="rect188-82-4-3-7-6-23-38"
   transform="scale(-1,1)"
   style="fill:#00ff00;fill-opacity:1" /><rect
   x="-48.000011"
   y="72"
   width="8"
   height="8"
   id="rect188-82-4-3-7-6-23-7"
   transform="scale(-1,1)"
   style="fill:#007500;fill-opacity:1" /><rect
   x="-24.000011"
   y="80"
   width="8"
   height="8"
   id="rect188-82-4-3-7-6-23-414"
   transform="scale(-1,1)"
   style="fill:#007500;fill-opacity:1" /><rect
   x="-64.000015"
   y="64"
   width="8"
   height="8"
   id="rect188-82-4-3-7-6-23-12"
   transform="scale(-1,1)"
   style="fill:#00ff00;fill-opacity:1" /><rect
   x="-32.000011"
   y="48"
   width="8"
   height="8"
   id="rect188-82-4-3-7-6-23-19"
   transform="scale(-1,1)"
   style="fill:#00ff00;fill-opacity:1" /><rect
   x="-40.000011"
   y="48"
   width="8"
   height="8"
   id="rect188-82-4-3-7-6-23-19-9"
   transform="scale(-1,1)"
   style="fill:#00ff00;fill-opacity:1" /><rect
   x="-40.000011"
   y="56"
   width="8"
   height="8"
   id="rect188-82-4-3-7-6-23-19-8"
   transform="scale(-1,1)"
   style="fill:#00ff00;fill-opacity:1" /><rect
   x="-48.000011"
   y="56"
   width="8"
   height="8"
   id="rect188-82-4-3-7-6-23-19-3"
   transform="scale(-1,1)"
   style="fill:#00ff00;fill-opacity:1" /><rect
   x="-48.000011"
   y="64"
   width="8"
   height="8"
   id="rect188-82-4-3-7-6-23-19-5"
   transform="scale(-1,1)"
   style="fill:#00ff00;fill-opacity:1" /><rect
   x="-56.000011"
   y="64"
   width="8"
   height="8"
   id="rect188-82-4-3-7-6-23-19-80"
   transform="scale(-1,1)"
   style="fill:#00ff00;fill-opacity:1" /><rect
   x="-56.000011"
   y="72"
   width="8"
   height="8"
   id="rect188-82-4-3-7-6-23-19-30"
   transform="scale(-1,1)"
   style="fill:#007500;fill-opacity:1" /><rect
   x="-64.000015"
   y="72"
   width="8"
   height="8"
   id="rect188-82-4-3-7-6-23-19-91"
   transform="scale(-1,1)"
   style="fill:#007500;fill-opacity:1" /><rect
   x="-32.000011"
   y="80"
   width="8"
   height="8"
   id="rect188-82-4-3-7-6-23-19-36"
   transform="scale(-1,1)"
   style="fill:#007500;fill-opacity:1" /><rect
   x="-72.000015"
   y="72"
   width="8"
   height="8"
   id="rect188-82-4-3-7-6-23-19-39"
   transform="scale(-1,1)"
   style="fill:#007500;fill-opacity:1" /><rect
   x="-72.000015"
   y="64"
   width="8"
   height="8"
   id="rect188-82-4-3-7-6-23-19-1"
   transform="scale(-1,1)"
   style="fill:#00ff00;fill-opacity:1" /><rect
   x="-80.000015"
   y="64"
   width="8"
   height="8"
   id="rect188-82-4-3-7-6-23-19-2"
   transform="scale(-1,1)"
   style="fill:#00ff00;fill-opacity:1" /><rect
   x="-80.000015"
   y="56"
   width="8"
   height="8"
   id="rect188-82-4-3-7-6-23-19-14"
   transform="scale(-1,1)"
   style="fill:#00ff00;fill-opacity:1" /><rect
   x="-88.000015"
   y="56"
   width="8"
   height="8"
   id="rect188-82-4-3-7-6-23-19-7"
   transform="scale(-1,1)"
   style="fill:#00ff00;fill-opacity:1" /><rect
   x="-88.000015"
   y="48"
   width="8"
   height="8"
   id="rect188-82-4-3-7-6-23-19-17"
   transform="scale(-1,1)"
   style="fill:#00ff00;fill-opacity:1" /><rect
   x="-96.000015"
   y="48.000008"
   width="8"
   height="8"
   id="rect188-82-4-3-7-6-23-19-54"
   transform="scale(-1,1)"
   style="fill:#00ff00;fill-opacity:1" /><rect
   x="-8.0000114"
   y="56"
   width="8"
   height="8"
   id="rect188-82-4-3-7-2-4-6-5-15-72-1"
   transform="scale(-1,1)"
   style="fill:#007500;fill-opacity:1" /><rect
   x="-8.0000114"
   y="64"
   width="8"
   height="8"
   id="rect188-82-4-3-7-2-4-6-5-15-28-5"
   transform="scale(-1,1)"
   style="fill:#007500;fill-opacity:1" /><rect
   x="-16.000011"
   y="64"
   width="8"
   height="8"
   id="rect188-82-4-3-7-2-4-6-5-15-72-6"
   transform="scale(-1,1)"
   style="fill:#007500;fill-opacity:1" /><rect
   x="-16.000011"
   y="72"
   width="8"
   height="8"
   id="rect188-82-4-3-7-2-4-6-5-15-28-9"
   transform="scale(-1,1)"
   style="fill:#007500;fill-opacity:1" /><rect
   x="-120.00002"
   y="56"
   width="8"
   height="8"
   id="rect188-82-4-3-7-2-4-6-5-15-72-7"
   transform="scale(-1,1)"
   style="fill:#00ff00;fill-opacity:1" /><rect
   x="-112.00002"
   y="64"
   width="8"
   height="8"
   id="rect188-82-4-3-7-2-4-6-5-15-28-1"
   transform="scale(-1,1)"
   style="fill:#00ff00;fill-opacity:1" /><rect
   x="-120.00002"
   y="72"
   width="8"
   height="8"
   id="rect188-82-4-3-7-2-4-6-5-15-72-4"
   transform="scale(-1,1)"
   style="fill:#007500;fill-opacity:1" /><rect
   x="-120.00002"
   y="64"
   width="8"
   height="8"
   id="rect188-82-4-3-7-2-4-6-5-15-28-98"
   transform="scale(-1,1)"
   style="fill:#00ff00;fill-opacity:1" /><rect
   x="-112.00002"
   y="72"
   width="8"
   height="8"
   id="rect188-82-4-3-7-2-4-6-5-15-72-4-3"
   transform="scale(-1,1)"
   style="fill:#007500;fill-opacity:1" /><rect
   x="-104.00002"
   y="72"
   width="8"
   height="8"
   id="rect188-82-4-3-7-2-4-6-5-15-72-4-7"
   transform="scale(-1,1)"
   style="fill:#007500;fill-opacity:1" /><rect
   x="-24.000011"
   y="72"
   width="8"
   height="8"
   id="rect188-82-4-3-7-2-4-6-5-15-72-4-73"
   transform="scale(-1,1)"
   style="fill:#007500;fill-opacity:1" /><rect
   x="-8.0000114"
   y="72"
   width="8"
   height="8"
   id="rect188-82-4-3-7-2-4-6-5-15-72-4-73-3"
   transform="scale(-1,1)"
   style="fill:#007500;fill-opacity:1" /><rect
   x="-112"
   y="80"
   width="8"
   height="8"
   id="rect188-82-4-3-7-2-4-6-5-15-00-2"
   transform="scale(-1,1)"
   style="fill:#007500;fill-opacity:1" /><rect
   x="-64.000015"
   y="80"
   width="8"
   height="8"
   id="rect188-82-4-3-7-2-4-6-5-15-59-6"
   transform="scale(-1,1)"
   style="fill:#007500;fill-opacity:1" /><rect
   x="-72.000015"
   y="80"
   width="8"
   height="8"
   id="rect188-82-4-3-7-6-65-9"
   transform="scale(-1,1)"
   style="fill:#007500;fill-opacity:1" /><rect
   x="-104"
   y="80"
   width="8"
   height="8"
   id="rect188-82-4-3-7-6-76-3"
   transform="scale(-1,1)"
   style="fill:#007500;fill-opacity:1" /><rect
   x="-96"
   y="80"
   width="8"
   height="8"
   id="rect188-82-4-3-7-6-23-1-7"
   transform="scale(-1,1)"
   style="fill:#007500;fill-opacity:1" /><rect
   x="-80.000015"
   y="80"
   width="8"
   height="8"
   id="rect188-82-4-3-7-6-23-414-3"
   transform="scale(-1,1)"
   style="fill:#007500;fill-opacity:1" /><rect
   x="-88.000015"
   y="80"
   width="8"
   height="8"
   id="rect188-82-4-3-7-6-23-19-36-4"
   transform="scale(-1,1)"
   style="fill:#007500;fill-opacity:1" /><rect
   x="-64.000015"
   y="40"
   width="8"
   height="8"
   id="rect188-82-4-3-7-2-4-6-5-15-1-6"
   transform="scale(-1,1)"
   style="fill:#007500;fill-opacity:1" /><rect
   x="-120"
   y="80"
   width="8"
   height="8"
   id="rect188-82-4-3-7-6-76-3-2"
   transform="scale(-1,1)"
   style="fill:#007500;fill-opacity:1" /><rect
   x="-120"
   y="88"
   width="8"
   height="8"
   id="rect188-82-4-3-7-6-76-3-2-2"
   transform="scale(-1,1)"
   style="fill:#007500;fill-opacity:1" /><rect
   x="-120"
   y="96"
   width="8"
   height="8"
   id="rect188-82-4-3-7-6-76-3-2-8"
   transform="scale(-1,1)"
   style="fill:#007500;fill-opacity:1" /><rect
   x="-120"
   y="104"
   width="8"
   height="8"
   id="rect188-82-4-3-7-6-76-3-2-6"
   transform="scale(-1,1)"
   style="fill:#007500;fill-opacity:1" /><rect
   x="-120"
   y="112"
   width="8"
   height="8"
   id="rect188-82-4-3-7-6-76-3-2-3"
   transform="scale(-1,1)"
   style="fill:#007500;fill-opacity:1" /><rect
   x="-128"
   y="104"
   width="8"
   height="8"
   id="rect188-82-4-3-7-6-76-3-2-0"
   transform="scale(-1,1)"
   style="fill:#007500;fill-opacity:1" /><rect
   x="-136"
   y="96"
   width="8"
   height="8"
   id="rect188-82-4-3-7-6-76-3-2-1"
   transform="scale(-1,1)"
   style="fill:#007500;fill-opacity:1" /><rect
   x="-144"
   y="88"
   width="8"
   height="8"
   id="rect188-82-4-3-7-6-76-3-2-7"
   transform="scale(-1,1)"
   style="fill:#007500;fill-opacity:1" /><rect
   x="-152"
   y="80"
   width="8"
   height="8"
   id="rect188-82-4-3-7-6-76-3-2-4"
   transform="scale(-1,1)"
   style="fill:#007500;fill-opacity:1" /><rect
   x="-160"
   y="72"
   width="8"
   height="8"
   id="rect188-82-4-3-7-6-76-3-2-16"
   transform="scale(-1,1)"
   style="fill:#007500;fill-opacity:1" /><rect
   x="-168"
   y="64"
   width="8"
   height="8"
   id="rect188-82-4-3-7-6-76-3-2-26"
   transform="scale(-1,1)"
   style="fill:#007500;fill-opacity:1" /><rect
   x="-176"
   y="56"
   width="8"
   height="8"
   id="rect188-82-4-3-7-6-76-3-2-11"
   transform="scale(-1,1)"
   style="fill:#007500;fill-opacity:1" /><rect
   x="-120.00002"
   y="32"
   width="8"
   height="8"
   id="rect188-82-4-3-7-6-76-3-2-08"
   transform="scale(-1,1)"
   style="fill:#007500;fill-opacity:1" /><rect
   x="-120.00002"
   y="24.000002"
   width="8"
   height="8"
   id="rect188-82-4-3-7-6-76-3-2-37"
   transform="scale(-1,1)"
   style="fill:#007500;fill-opacity:1" /><rect
   x="-120.00002"
   y="16.000002"
   width="8"
   height="8"
   id="rect188-82-4-3-7-6-76-3-2-19"
   transform="scale(-1,1)"
   style="fill:#007500;fill-opacity:1" /><rect
   x="-120.00002"
   y="8"
   width="8"
   height="8"
   id="rect188-82-4-3-7-6-76-3-2-40"
   transform="scale(-1,1)"
   style="fill:#007500;fill-opacity:1" /><rect
   x="-120.00002"
   y="0"
   width="8"
   height="8"
   id="rect188-82-4-3-7-6-76-3-2-39"
   transform="scale(-1,1)"
   style="fill:#007500;fill-opacity:1" /><rect
   x="-128.00002"
   y="8"
   width="8"
   height="8"
   id="rect188-82-4-3-7-6-76-3-2-14"
   transform="scale(-1,1)"
   style="fill:#007500;fill-opacity:1" /><rect
   x="-136.00002"
   y="16"
   width="8"
   height="8"
   id="rect188-82-4-3-7-6-76-3-2-17"
   transform="scale(-1,1)"
   style="fill:#007500;fill-opacity:1" /><rect
   x="-144.00002"
   y="24"
   width="8"
   height="8"
   id="rect188-82-4-3-7-6-76-3-2-33"
   transform="scale(-1,1)"
   style="fill:#007500;fill-opacity:1" /><rect
   x="-152.00002"
   y="32"
   width="8"
   height="8"
   id="rect188-82-4-3-7-6-76-3-2-32"
   transform="scale(-1,1)"
   style="fill:#007500;fill-opacity:1" /><rect
   x="-160.00002"
   y="40"
   width="8"
   height="8"
   id="rect188-82-4-3-7-6-76-3-2-409"
   transform="scale(-1,1)"
   style="fill:#007500;fill-opacity:1" /><rect
   x="-168.00002"
   y="48"
   width="8"
   height="8"
   id="rect188-82-4-3-7-6-76-3-2-68"
   transform="scale(-1,1)"
   style="fill:#007500;fill-opacity:1" /><rect
   x="-128"
   y="96"
   width="8"
   height="8"
   id="rect188-82-4-3-7-6-76-3-2-64"
   transform="scale(-1,1)"
   style="fill:#007500;fill-opacity:1" /><rect
   x="-136"
   y="88"
   width="8"
   height="8"
   id="rect188-82-4-3-7-6-76-3-2-87"
   transform="scale(-1,1)"
   style="fill:#007500;fill-opacity:1" /><rect
   x="-144"
   y="80"
   width="8"
   height="8"
   id="rect188-82-4-3-7-6-76-3-2-35"
   transform="scale(-1,1)"
   style="fill:#007500;fill-opacity:1" /><rect
   x="-152"
   y="72"
   width="8"
   height="8"
   id="rect188-82-4-3-7-6-76-3-2-5"
   transform="scale(-1,1)"
   style="fill:#007500;fill-opacity:1" /><rect
   x="-160"
   y="64"
   width="8"
   height="8"
   id="rect188-82-4-3-7-6-76-3-2-15"
   transform="scale(-1,1)"
   style="fill:#007500;fill-opacity:1" /><rect
   x="-168.00002"
   y="56"
   width="8"
   height="8"
   id="rect188-82-4-3-7-6-76-3-2-04"
   transform="scale(-1,1)"
   style="fill:#007500;fill-opacity:1" /><rect
   x="-160.00002"
   y="48"
   width="8"
   height="8"
   id="rect188-82-4-3-7-6-76-3-2-55"
   transform="scale(-1,1)"
   style="fill:#007500;fill-opacity:1" /><rect
   x="-152.00002"
   y="40"
   width="8"
   height="8"
   id="rect188-82-4-3-7-6-76-3-2-06"
   transform="scale(-1,1)"
   style="fill:#007500;fill-opacity:1" /><rect
   x="-144.00002"
   y="32"
   width="8"
   height="8"
   id="rect188-82-4-3-7-6-76-3-2-157"
   transform="scale(-1,1)"
   style="fill:#007500;fill-opacity:1" /><rect
   x="-136.00002"
   y="24.000004"
   width="8"
   height="8"
   id="rect188-82-4-3-7-6-76-3-2-69"
   transform="scale(-1,1)"
   style="fill:#007500;fill-opacity:1" /><rect
   x="-128.00002"
   y="16"
   width="8"
   height="8"
   id="rect188-82-4-3-7-6-76-3-2-75"
   transform="scale(-1,1)"
   style="fill:#007500;fill-opacity:1" /><rect
   x="-128.00002"
   y="24"
   width="8"
   height="8"
   id="rect188-82-4-3-7-2-4-6-5-15-72-7-4"
   transform="scale(-1,1)"
   style="fill:#00ff00;fill-opacity:1" /><rect
   x="-128.00002"
   y="32"
   width="8"
   height="8"
   id="rect188-82-4-3-7-2-4-6-5-15-72-7-3"
   transform="scale(-1,1)"
   style="fill:#00ff00;fill-opacity:1" /><rect
   x="-136.00002"
   y="32"
   width="8"
   height="8"
   id="rect188-82-4-3-7-2-4-6-5-15-72-7-8"
   transform="scale(-1,1)"
   style="fill:#00ff00;fill-opacity:1" /><rect
   x="-128.00002"
   y="40"
   width="8"
   height="8"
   id="rect188-82-4-3-7-2-4-6-5-15-72-7-44"
   transform="scale(-1,1)"
   style="fill:#00ff00;fill-opacity:1" /><rect
   x="-128.00002"
   y="48"
   width="8"
   height="8"
   id="rect188-82-4-3-7-2-4-6-5-15-72-7-45"
   transform="scale(-1,1)"
   style="fill:#00ff00;fill-opacity:1" /><rect
   x="-128.00002"
   y="56"
   width="8"
   height="8"
   id="rect188-82-4-3-7-2-4-6-5-15-72-7-0"
   transform="scale(-1,1)"
   style="fill:#00ff00;fill-opacity:1" /><rect
   x="-128.00002"
   y="64"
   width="8"
   height="8"
   id="rect188-82-4-3-7-2-4-6-5-15-72-7-00"
   transform="scale(-1,1)"
   style="fill:#00ff00;fill-opacity:1" /><rect
   x="-128.00002"
   y="72"
   width="8"
   height="8"
   id="rect188-82-4-3-7-2-4-6-5-15-72-7-002"
   transform="scale(-1,1)"
   style="fill:#00ff00;fill-opacity:1" /><rect
   x="-128"
   y="80"
   width="8"
   height="8"
   id="rect188-82-4-3-7-2-4-6-5-15-72-7-5"
   transform="scale(-1,1)"
   style="fill:#00ff00;fill-opacity:1" /><rect
   x="-128"
   y="88"
   width="8"
   height="8"
   id="rect188-82-4-3-7-2-4-6-5-15-72-7-2"
   transform="scale(-1,1)"
   style="fill:#00ff00;fill-opacity:1" /><rect
   x="-136.00002"
   y="40"
   width="8"
   height="8"
   id="rect188-82-4-3-7-2-4-6-5-15-72-7-28"
   transform="scale(-1,1)"
   style="fill:#00ff00;fill-opacity:1" /><rect
   x="-144.00002"
   y="40"
   width="8"
   height="8"
   id="rect188-82-4-3-7-2-4-6-5-15-72-7-1"
   transform="scale(-1,1)"
   style="fill:#00ff00;fill-opacity:1" /><rect
   x="-136.00002"
   y="48"
   width="8"
   height="8"
   id="rect188-82-4-3-7-2-4-6-5-15-72-7-39"
   transform="scale(-1,1)"
   style="fill:#00ff00;fill-opacity:1" /><rect
   x="-144.00002"
   y="48"
   width="8"
   height="8"
   id="rect188-82-4-3-7-2-4-6-5-15-72-7-7"
   transform="scale(-1,1)"
   style="fill:#00ff00;fill-opacity:1" /><rect
   x="-152.00002"
   y="48"
   width="8"
   height="8"
   id="rect188-82-4-3-7-2-4-6-5-15-72-7-40"
   transform="scale(-1,1)"
   style="fill:#00ff00;fill-opacity:1" /><rect
   x="-136.00002"
   y="56"
   width="8"
   height="8"
   id="rect188-82-4-3-7-2-4-6-5-15-72-7-87"
   transform="scale(-1,1)"
   style="fill:#00ff00;fill-opacity:1" /><rect
   x="-144.00002"
   y="56"
   width="8"
   height="8"
   id="rect188-82-4-3-7-2-4-6-5-15-72-7-6"
   transform="scale(-1,1)"
   style="fill:#00ff00;fill-opacity:1" /><rect
   x="-152"
   y="56.000008"
   width="8"
   height="8"
   id="rect188-82-4-3-7-2-4-6-5-15-72-7-9"
   transform="scale(-1,1)"
   style="fill:#00ff00;fill-opacity:1" /><rect
   x="-160.00002"
   y="56"
   width="8"
   height="8"
   id="rect188-82-4-3-7-2-4-6-5-15-72-7-13"
   transform="scale(-1,1)"
   style="fill:#00ff00;fill-opacity:1" /><rect
   x="-136.00002"
   y="-72"
   width="8"
   height="8"
   id="rect188-82-4-3-7-2-4-6-5-15-72-7-31"
   transform="scale(-1)"
   style="fill:#00ff00;fill-opacity:1" /><rect
   x="-144"
   y="64"
   width="8"
   height="8"
   id="rect188-82-4-3-7-2-4-6-5-15-72-7-395"
   transform="scale(-1,1)"
   style="fill:#00ff00;fill-opacity:1" /><rect
   x="-152.00002"
   y="64"
   width="8"
   height="8"
   id="rect188-82-4-3-7-2-4-6-5-15-72-7-96"
   transform="scale(-1,1)"
   style="fill:#00ff00;fill-opacity:1" /><rect
   x="-136"
   y="72"
   width="8"
   height="8"
   id="rect188-82-4-3-7-2-4-6-5-15-72-7-81"
   transform="scale(-1,1)"
   style="fill:#00ff00;fill-opacity:1" /><rect
   x="-144"
   y="72"
   width="8"
   height="8"
   id="rect188-82-4-3-7-2-4-6-5-15-72-7-02"
   transform="scale(-1,1)"
   style="fill:#00ff00;fill-opacity:1" /><rect
   x="-136"
   y="80"
   width="8"
   height="8"
   id="rect188-82-4-3-7-2-4-6-5-15-72-7-29"
   transform="scale(-1,1)"
   style="fill:#00ff00;fill-opacity:1" /><rect
   x="-56.000011"
   y="32"
   width="8"
   height="8"
   id="rect188-82-4-3-7-2-4-6-5-15-00-4"
   transform="scale(-1,1)"
   style="fill:#007500;fill-opacity:1" /><rect
   x="-8"
   y="32"
   width="8"
   height="8"
   id="rect188-82-4-3-7-2-4-6-5-15-59-68"
   transform="scale(-1,1)"
   style="fill:#007500;fill-opacity:1" /><rect
   x="-16"
   y="32"
   width="8"
   height="8"
   id="rect188-82-4-3-7-6-65-2"
   transform="scale(-1,1)"
   style="fill:#007500;fill-opacity:1" /><rect
   x="-48.000004"
   y="32"
   width="8"
   height="8"
   id="rect188-82-4-3-7-6-76-6"
   transform="scale(-1,1)"
   style="fill:#007500;fill-opacity:1" /><rect
   x="-40.000004"
   y="32"
   width="8"
   height="8"
   id="rect188-82-4-3-7-6-23-1-9"
   transform="scale(-1,1)"
   style="fill:#007500;fill-opacity:1" /><rect
   x="-24"
   y="32"
   width="8"
   height="8"
   id="rect188-82-4-3-7-6-23-414-4"
   transform="scale(-1,1)"
   style="fill:#007500;fill-opacity:1" /><rect
   x="-32.000004"
   y="32"
   width="8"
   height="8"
   id="rect188-82-4-3-7-6-23-19-36-5"
   transform="scale(-1,1)"
   style="fill:#007500;fill-opacity:1" /><rect
   x="-111.99998"
   y="32"
   width="8"
   height="8"
   id="rect188-82-4-3-7-2-4-6-5-15-00-2-6"
   transform="scale(-1,1)"
   style="fill:#007500;fill-opacity:1" /><rect
   x="-64.000015"
   y="32"
   width="8"
   height="8"
   id="rect188-82-4-3-7-2-4-6-5-15-59-6-6"
   transform="scale(-1,1)"
   style="fill:#007500;fill-opacity:1" /><rect
   x="-72.000015"
   y="32"
   width="8"
   height="8"
   id="rect188-82-4-3-7-6-65-9-0"
   transform="scale(-1,1)"
   style="fill:#007500;fill-opacity:1" /><rect
   x="-103.99998"
   y="32"
   width="8"
   height="8"
   id="rect188-82-4-3-7-6-76-3-29"
   transform="scale(-1,1)"
   style="fill:#007500;fill-opacity:1" /><rect
   x="-96"
   y="32"
   width="8"
   height="8"
   id="rect188-82-4-3-7-6-23-1-7-7"
   transform="scale(-1,1)"
   style="fill:#007500;fill-opacity:1" /><rect
   x="-80.000015"
   y="32"
   width="8"
   height="8"
   id="rect188-82-4-3-7-6-23-414-3-9"
   transform="scale(-1,1)"
   style="fill:#007500;fill-opacity:1" /><rect
   x="-88.000015"
   y="32"
   width="8"
   height="8"
   id="rect188-82-4-3-7-6-23-19-36-4-9"
   transform="scale(-1,1)"
   style="fill:#007500;fill-opacity:1" /></svg>
