<?xml version="1.0" encoding="UTF-8" standalone="no"?>
<svg
   xmlns:dc="http://purl.org/dc/elements/1.1/"
   xmlns:cc="http://creativecommons.org/ns#"
   xmlns:rdf="http://www.w3.org/1999/02/22-rdf-syntax-ns#"
   xmlns:svg="http://www.w3.org/2000/svg"
   xmlns="http://www.w3.org/2000/svg"
   xmlns:sodipodi="http://sodipodi.sourceforge.net/DTD/sodipodi-0.dtd"
   xmlns:inkscape="http://www.inkscape.org/namespaces/inkscape"
   version="1.1"
   id="Layer_1"
   x="0px"
   y="0px"
   width="256px"
   height="256px"
   viewBox="0 0 256 256"
   enable-background="new 0 0 256 256"
   xml:space="preserve"
   sodipodi:docname="maincharacter.svg"
   inkscape:version="1.0.1 (3bc2e813f5, 2020-09-07)"><metadata
   id="metadata215"><rdf:RDF><cc:Work
       rdf:about=""><dc:format>image/svg+xml</dc:format><dc:type
         rdf:resource="http://purl.org/dc/dcmitype/StillImage" /><dc:title></dc:title></cc:Work></rdf:RDF></metadata><defs
   id="defs213" /><sodipodi:namedview
   pagecolor="#ffffff"
   bordercolor="#666666"
   borderopacity="1"
   objecttolerance="10"
   gridtolerance="10"
   guidetolerance="10"
   inkscape:pageopacity="0"
   inkscape:pageshadow="2"
   inkscape:window-width="820"
   inkscape:window-height="480"
   id="namedview211"
   showgrid="false"
   inkscape:zoom="3.9375"
   inkscape:cx="128"
   inkscape:cy="128"
   inkscape:window-x="0"
   inkscape:window-y="38"
   inkscape:window-maximized="0"
   inkscape:current-layer="Layer_1" />
<rect
   x="104"
   y="16"
   fill="#993300"
   width="8"
   height="8"
   id="rect2" />
<rect
   x="104"
   y="24"
   fill="#993300"
   width="8"
   height="8"
   id="rect4" />
<rect
   x="104"
   y="32"
   fill="#993300"
   width="8"
   height="8"
   id="rect6" />
<rect
   x="112"
   y="32"
   fill="#993300"
   width="8"
   height="8"
   id="rect8" />
<rect
   x="120"
   y="32"
   fill="#993300"
   width="8"
   height="8"
   id="rect10" />
<rect
   x="120"
   y="24"
   fill="#993300"
   width="8"
   height="8"
   id="rect12" />
<rect
   x="128"
   y="24"
   fill="#993300"
   width="8"
   height="8"
   id="rect14" />
<rect
   x="136"
   y="24"
   fill="#993300"
   width="8"
   height="8"
   id="rect16" />
<rect
   x="136"
   y="32"
   fill="#FFAA85"
   width="8"
   height="8"
   id="rect18" />
<rect
   x="128"
   y="32"
   fill="#FFAA85"
   width="8"
   height="8"
   id="rect20" />
<rect
   x="144"
   y="32"
   fill="#FFAA85"
   width="8"
   height="8"
   id="rect22" />
<rect
   x="144"
   y="40"
   fill="#FFAA85"
   width="8"
   height="8"
   id="rect24" />
<rect
   x="144"
   y="48"
   fill="#FFAA85"
   width="8"
   height="8"
   id="rect26" />
<rect
   x="144"
   y="56"
   fill="#FFAA85"
   width="8"
   height="8"
   id="rect28" />
<rect
   x="136"
   y="56"
   fill="#FFAA85"
   width="8"
   height="8"
   id="rect30" />
<rect
   x="136"
   y="64"
   fill="#FFAA85"
   width="8"
   height="8"
   id="rect32" />
<rect
   x="128"
   y="56"
   fill="#FFAA85"
   width="8"
   height="8"
   id="rect34" />
<rect
   x="128"
   y="64"
   fill="#FFAA85"
   width="8"
   height="8"
   id="rect36" />
<rect
   x="128"
   y="48"
   fill="#FFAA85"
   width="8"
   height="8"
   id="rect38" />
<rect
   x="120"
   y="48"
   fill="#FFAA85"
   width="8"
   height="8"
   id="rect40" />
<rect
   x="112"
   y="48"
   fill="#FFAA85"
   width="8"
   height="8"
   id="rect42" />
<rect
   x="104"
   y="48"
   fill="#993300"
   width="8"
   height="8"
   id="rect44" />
<rect
   x="112"
   y="56"
   fill="#FFAA85"
   width="8"
   height="8"
   id="rect46" />
<rect
   x="112"
   y="64"
   fill="#FFAA85"
   width="8"
   height="8"
   id="rect48" />
<rect
   x="104"
   y="56"
   fill="#FFAA85"
   width="8"
   height="8"
   id="rect50" />
<rect
   x="104"
   y="64"
   fill="#FFAA85"
   width="8"
   height="8"
   id="rect52" />
<rect
   x="104"
   y="72"
   fill="#EA1818"
   width="8"
   height="8"
   id="rect54" />
<rect
   x="112"
   y="80"
   fill="#EA1818"
   width="8"
   height="8"
   id="rect56" />
<rect
   x="104"
   y="80"
   fill="#EA1818"
   width="8"
   height="8"
   id="rect58" />
<rect
   x="96"
   y="88"
   fill="#EA1818"
   width="8"
   height="8"
   id="rect60" />
<rect
   x="120"
   y="80"
   width="8"
   height="8"
   id="rect62" />
<rect
   x="128"
   y="80"
   fill="#EA1818"
   width="8"
   height="8"
   id="rect64" />
<rect
   x="136"
   y="80"
   fill="#EA1818"
   width="8"
   height="8"
   id="rect66" />
<rect
   x="144"
   y="88"
   fill="#EA1818"
   width="8"
   height="8"
   id="rect68" />
<rect
   x="136"
   y="88"
   fill="#EA1818"
   width="8"
   height="8"
   id="rect70" />
<rect
   x="128"
   y="88"
   fill="#EA1818"
   width="8"
   height="8"
   id="rect72" />
<rect
   x="120"
   y="88"
   fill="#EA1818"
   width="8"
   height="8"
   id="rect74" />
<rect
   x="112"
   y="88"
   fill="#EA1818"
   width="8"
   height="8"
   id="rect76" />
<rect
   x="104"
   y="88"
   fill="#EA1818"
   width="8"
   height="8"
   id="rect78" />
<rect
   x="96"
   y="96"
   fill="#FFAA85"
   width="8"
   height="8"
   id="rect80" />
<rect
   x="144"
   y="96"
   fill="#EA1818"
   width="8"
   height="8"
   id="rect82" />
<rect
   x="136"
   y="96"
   fill="#EA1818"
   width="8"
   height="8"
   id="rect84" />
<rect
   x="128"
   y="96"
   fill="#EA1818"
   width="8"
   height="8"
   id="rect86" />
<rect
   x="120"
   y="96"
   fill="#EA1818"
   width="8"
   height="8"
   id="rect88" />
<rect
   x="112"
   y="96"
   fill="#EA1818"
   width="8"
   height="8"
   id="rect90" />
<rect
   x="104"
   y="96"
   fill="#FFAA85"
   width="8"
   height="8"
   id="rect92" />
<rect
   x="96"
   y="104"
   fill="#FFAA85"
   width="8"
   height="8"
   id="rect94" />
<rect
   x="144"
   y="104"
   fill="#EA1818"
   width="8"
   height="8"
   id="rect96" />
<rect
   x="136"
   y="104"
   fill="#EA1818"
   width="8"
   height="8"
   id="rect98" />
<rect
   x="128"
   y="104"
   fill="#EA1818"
   width="8"
   height="8"
   id="rect100" />
<rect
   x="120"
   y="104"
   fill="#EA1818"
   width="8"
   height="8"
   id="rect102" />
<rect
   x="144"
   y="112"
   fill="#EA1818"
   width="8"
   height="8"
   id="rect104" />
<rect
   x="136"
   y="112"
   fill="#EA1818"
   width="8"
   height="8"
   id="rect106" />
<rect
   x="128"
   y="112"
   fill="#EA1818"
   width="8"
   height="8"
   id="rect108" />
<rect
   x="120"
   y="112"
   fill="#EA1818"
   width="8"
   height="8"
   id="rect110" />
<rect
   x="112"
   y="104"
   fill="#FFAA85"
   width="8"
   height="8"
   id="rect112" />
<rect
   x="104"
   y="104"
   fill="#FFAA85"
   width="8"
   height="8"
   id="rect114" />
<rect
   x="96"
   y="112"
   fill="#FFAA85"
   width="8"
   height="8"
   id="rect116" />
<rect
   x="112"
   y="112"
   fill="#FFAA85"
   width="8"
   height="8"
   id="rect118" />
<rect
   x="104"
   y="112"
   fill="#FFAA85"
   width="8"
   height="8"
   id="rect120" />
<rect
   x="128"
   y="120"
   width="8"
   height="8"
   id="rect122" />
<rect
   x="136"
   y="120"
   width="8"
   height="8"
   id="rect124" />
<rect
   x="136"
   y="128"
   width="8"
   height="8"
   id="rect126" />
<rect
   x="120"
   y="120"
   width="8"
   height="8"
   id="rect128" />
<rect
   x="112"
   y="120"
   width="8"
   height="8"
   id="rect130" />
<rect
   x="104"
   y="120"
   width="8"
   height="8"
   id="rect132" />
<rect
   x="104"
   y="128"
   width="8"
   height="8"
   id="rect134" />
<rect
   x="128"
   y="128"
   width="8"
   height="8"
   id="rect136" />
<rect
   x="120"
   y="128"
   width="8"
   height="8"
   id="rect138" />
<rect
   x="112"
   y="128"
   width="8"
   height="8"
   id="rect140" />
<rect
   x="136"
   y="72"
   fill="#FFAA85"
   width="8"
   height="8"
   id="rect142" />
<rect
   x="96"
   y="56"
   fill="#993300"
   width="8"
   height="8"
   id="rect144" />
<rect
   x="88"
   y="56"
   fill="#993300"
   width="8"
   height="8"
   id="rect146" />
<rect
   x="96"
   y="48"
   fill="#993300"
   width="8"
   height="8"
   id="rect148" />
<rect
   x="88"
   y="48"
   fill="#993300"
   width="8"
   height="8"
   id="rect150" />
<rect
   x="96"
   y="40"
   fill="#993300"
   width="8"
   height="8"
   id="rect152" />
<rect
   x="88"
   y="32"
   fill="#993300"
   width="8"
   height="8"
   id="rect154" />
<rect
   x="88"
   y="40"
   fill="#993300"
   width="8"
   height="8"
   id="rect156" />
<rect
   x="96"
   y="32"
   fill="#993300"
   width="8"
   height="8"
   id="rect158" />
<rect
   x="96"
   y="24"
   fill="#993300"
   width="8"
   height="8"
   id="rect160" />
<rect
   x="120"
   y="56"
   fill="#FFAA85"
   width="8"
   height="8"
   id="rect162" />
<rect
   x="120"
   y="64"
   fill="#FFAA85"
   width="8"
   height="8"
   id="rect164" />
<rect
   x="136"
   y="40"
   width="8"
   height="8"
   id="rect166" />
<rect
   x="136"
   y="48"
   width="8"
   height="8"
   id="rect168" />
<rect
   x="128"
   y="40"
   fill="#FFAA85"
   width="8"
   height="8"
   id="rect170" />
<rect
   x="120"
   y="40"
   fill="#FFAA85"
   width="8"
   height="8"
   id="rect172" />
<rect
   x="112"
   y="40"
   fill="#993300"
   width="8"
   height="8"
   id="rect174" />
<rect
   x="104"
   y="40"
   fill="#993300"
   width="8"
   height="8"
   id="rect176" />
<rect
   x="112"
   y="16"
   fill="#993300"
   width="8"
   height="8"
   id="rect178" />
<rect
   x="112"
   y="24"
   fill="#993300"
   width="8"
   height="8"
   id="rect180" />
<rect
   x="120"
   y="16"
   fill="#993300"
   width="8"
   height="8"
   id="rect182" />
<rect
   x="128"
   y="16"
   fill="#993300"
   width="8"
   height="8"
   id="rect184" />
<rect
   x="136"
   y="16"
   fill="#993300"
   width="8"
   height="8"
   id="rect186" />
<rect
   x="136"
   y="8"
   fill="#993300"
   width="8"
   height="8"
   id="rect188" />
<rect
   x="128"
   y="8"
   fill="#993300"
   width="8"
   height="8"
   id="rect190" />
<rect
   x="120"
   y="8"
   fill="#993300"
   width="8"
   height="8"
   id="rect192" />
<rect
   x="112"
   y="8"
   fill="#993300"
   width="8"
   height="8"
   id="rect194" />
<rect
   x="144"
   y="16"
   fill="#993300"
   width="8"
   height="8"
   id="rect196" />
<rect
   x="96"
   y="64"
   fill="#993300"
   width="8"
   height="8"
   id="rect198" />
<rect
   x="128"
   y="72"
   fill="#FFAA85"
   width="8"
   height="8"
   id="rect200" />
<rect
   x="120"
   y="72"
   fill="#FFAA85"
   width="8"
   height="8"
   id="rect202" />
<rect
   x="112"
   y="72"
   fill="#FFAA85"
   width="8"
   height="8"
   id="rect204" />
<rect
   x="144"
   y="64"
   fill="#FFAA85"
   width="8"
   height="8"
   id="rect206" />
<rect
   x="144"
   y="24"
   fill="#993300"
   width="8"
   height="8"
   id="rect208" />
</svg>
