<?xml version="1.0" encoding="utf-8"?>
<!-- Generator: Adobe Illustrator 16.0.0, SVG Export Plug-In . SVG Version: 6.00 Build 0)  -->
<!DOCTYPE svg PUBLIC "-//W3C//DTD SVG 1.1//EN" "http://www.w3.org/Graphics/SVG/1.1/DTD/svg11.dtd">
<svg version="1.1" id="Layer_1" xmlns="http://www.w3.org/2000/svg" xmlns:xlink="http://www.w3.org/1999/xlink" x="0px" y="0px"
	 width="256px" height="256px" viewBox="0 0.5 256 256" enable-background="new 0 0.5 256 256" xml:space="preserve">
<line x1="136.5" y1="136.5" x2="144.5" y2="136.5"/>
<line x1="104.5" y1="136.5" x2="112.5" y2="136.5"/>
<line x1="128.5" y1="136.5" x2="136.5" y2="136.5"/>
<line x1="120.5" y1="136.5" x2="128.5" y2="136.5"/>
<line x1="112.5" y1="136.5" x2="120.5" y2="136.5"/>
<rect x="95.5" y="62.5" fill="#FFFFFF" width="8" height="8"/>
<rect x="87.5" y="54.5" fill="#FFFFFF" width="8" height="8"/>
<rect x="87.5" y="46.5" fill="#FFFFFF" width="8" height="8"/>
<rect x="95.5" y="38.5" fill="#FFFFFF" width="8" height="8"/>
<rect x="103.5" y="30.5" fill="#FFFFFF" width="8" height="8"/>
<rect x="111.5" y="30.5" fill="#FFFFFF" width="8" height="8"/>
<rect x="143.5" y="30.5" fill="#FFFFFF" width="8" height="8"/>
<rect x="135.5" y="22.5" fill="#FFFFFF" width="8" height="8"/>
<rect x="127.5" y="22.5" fill="#FFFFFF" width="8" height="8"/>
<rect x="119.5" y="22.5" fill="#FFFFFF" width="8" height="8"/>
<rect x="103.5" y="62.5" fill="#FFFFFF" width="8" height="8"/>
<rect x="111.5" y="62.5" fill="#FFFFFF" width="8" height="8"/>
<rect x="119.5" y="62.5" fill="#FFFFFF" width="8" height="8"/>
<rect x="127.5" y="62.5" fill="#FFFFFF" width="8" height="8"/>
<rect x="135.5" y="62.5" fill="#FFFFFF" width="8" height="8"/>
<rect x="95.5" y="54.5" fill="#FFFFFF" width="8" height="8"/>
<rect x="103.5" y="54.5" fill="#FFFFFF" width="8" height="8"/>
<rect x="111.5" y="54.5" fill="#FFFFFF" width="8" height="8"/>
<rect x="119.5" y="54.5" fill="#FFFFFF" width="8" height="8"/>
<rect x="127.5" y="54.5" fill="#FFFFFF" width="8" height="8"/>
<rect x="135.5" y="54.5" fill="#FFFFFF" width="8" height="8"/>
<rect x="95.5" y="46.5" fill="#FFFFFF" width="8" height="8"/>
<rect x="103.5" y="46.5" fill="#FFFFFF" width="8" height="8"/>
<rect x="111.5" y="46.5" fill="#FFFFFF" width="8" height="8"/>
<rect x="119.5" y="46.5" fill="#FFFFFF" width="8" height="8"/>
<rect x="127.5" y="46.5" fill="#FFFFFF" width="8" height="8"/>
<rect x="135.5" y="46.5" fill="#FFFFFF" width="8" height="8"/>
<rect x="143.5" y="46.5" fill="#FFFFFF" width="8" height="8"/>
<rect x="143.5" y="38.5" fill="#FFFFFF" width="8" height="8"/>
<rect x="135.5" y="38.5" fill="#FFFFFF" width="8" height="8"/>
<rect x="127.5" y="38.5" fill="#FFFFFF" width="8" height="8"/>
<rect x="119.5" y="38.5" fill="#FFFFFF" width="8" height="8"/>
<rect x="111.5" y="38.5" fill="#FFFFFF" width="8" height="8"/>
<rect x="103.5" y="38.5" fill="#FFFFFF" width="8" height="8"/>
<rect x="119.5" y="30.5" fill="#FFFFFF" width="8" height="8"/>
<rect x="127.5" y="30.5" fill="#FFFFFF" width="8" height="8"/>
<rect x="135.5" y="30.5" fill="#FFFFFF" width="8" height="8"/>
<rect x="143.5" y="54.5" fill="#FFFFFF" width="8" height="8"/>
<rect x="151.5" y="46.5" fill="#FFFFFF" width="8" height="8"/>
<rect x="151.5" y="38.5" fill="#FFFFFF" width="8" height="8"/>
</svg>
